<svg width="294" height="217" viewBox="0 0 294 217" fill="none" xmlns="http://www.w3.org/2000/svg">
<path d="M172.797 124.648C170.822 123.336 168.928 121.513 167.382 119.688C170.19 121.149 172.955 122.946 174.131 125.003C175.045 126.6 173.05 124.816 172.797 124.648Z" fill="#6DD096"/>
<path d="M177.851 166.516C177.811 166.47 177.77 166.423 177.727 166.377C178.796 166.724 179.755 167.107 180.406 167.587C181.083 168.086 178.366 167.117 177.851 166.516Z" fill="#6DD096"/>
<path d="M61.5413 44.4089C65.2315 49.6768 71.0862 54.102 76.3074 58.4908C81.1555 62.566 88.7547 65.8303 92.1408 70.7742C92.973 71.9892 97.3558 78.3873 99.7268 75.0842C101.805 72.1889 100.297 69.2468 101.691 66.3275C102.002 65.6775 102.156 67.4354 102.604 67.8744C104.017 69.2578 105.249 70.8064 106.355 72.3617C109.298 76.4985 114.376 79.4973 118.398 82.9841C122.203 86.2826 125.942 89.4001 129.108 93.0925C130.159 94.3172 132.534 98.3482 134.011 94.0464C134.925 91.3834 135.957 88.7463 138.04 86.2327C138.751 85.3747 139.33 87.2464 139.434 87.3956C141.142 89.8441 143.921 91.8149 145.934 94.1054C149.692 98.3824 151.682 103.903 156.285 107.678C159.847 110.601 163.299 114.138 165.823 117.686C166.286 118.337 166.81 119.013 167.382 119.688C166.093 119.018 164.795 118.419 163.638 117.898C156.238 114.569 149.087 111.273 142.11 107.659C136.56 104.784 140.746 116.31 136.92 115.565C133.258 114.853 129.225 108.826 127.536 106.606C125.624 104.095 122.213 102.417 120.177 99.9522C117.339 96.5178 112.395 91.8677 107.9 89.5391C106.34 88.7307 104.309 87.1926 103.637 85.8438C102.806 84.1761 102.621 89.88 102.45 90.2619C102.143 90.9457 98.9317 97.2893 97.4954 96.3352C92.7679 93.1947 90.6144 88.376 85.8539 85.1222C79.5983 80.8464 74.2626 75.8519 67.2436 72.1711C63.1318 70.0148 60.7493 66.411 56.9106 64.0149C54.8459 62.726 44.1363 56.4252 51.3897 53.324C54.2024 52.1215 60.8554 46.6048 61.5413 44.4089Z" fill="#6DD096"/>
<path d="M40.6266 75.3022C48.9135 86.3688 62.1371 96.0509 75.4758 103.864C80.4913 106.801 85.0331 110.618 88.8566 114.364C89.5929 115.086 92.0501 116.45 93.1994 116.801C95.1751 117.406 94.7788 117.507 96.3642 115.379C99.9179 110.61 100.792 109.882 104.131 113.483C107.001 116.579 110.056 119.976 113.787 122.495C117.314 124.876 120.049 128.965 122.608 131.949C123.86 133.409 124.62 134.96 126.816 135.665C127.779 135.975 130.251 137.434 130.654 138.1C132.85 141.731 136.083 133.525 136.649 133.089C139.387 130.978 146.356 137.061 147.38 138.043C152.75 143.188 157.746 148.201 162.693 153.536C165.265 156.311 167.823 159.273 171.007 161.682C172.975 163.171 176.183 164.695 177.727 166.377C175.794 165.749 173.504 165.239 172.031 164.492C166.913 161.896 161.643 159.078 156.072 156.929C149.998 154.586 144.592 150.874 137.587 149.511C135.378 149.082 134.564 153.948 134.15 155.275C133.836 156.28 133.305 158.85 132.252 156.88C131.237 154.98 128.475 154.178 127.245 152.562C124.86 149.429 120.117 147.384 117.225 144.403C115.683 142.813 112.785 142.322 111.244 140.66C109.508 138.787 107.66 137.23 105.369 135.728C102.12 133.597 98.7945 130.847 96.2024 128.308C95.3349 127.458 93.8595 134.602 91.7601 133.589C88.061 131.804 86.2977 128.654 83.1219 126.559C78.9085 123.779 74.596 120.675 70.8453 117.61C63.2746 111.424 54.7752 105.731 46.2743 100.156C43.4001 98.2709 26.1252 91.7646 30.3151 88.1984C35.327 83.9325 40.0479 80.1681 40.6266 75.3022Z" fill="#6DD096"/>
<path d="M167.382 119.688C166.81 119.013 166.286 118.337 165.823 117.686C163.299 114.138 159.847 110.601 156.285 107.678C151.682 103.903 149.692 98.3824 145.934 94.1054C143.921 91.8149 141.142 89.8441 139.434 87.3956C139.33 87.2464 138.751 85.3747 138.04 86.2327C135.957 88.7463 134.925 91.3834 134.011 94.0464C132.534 98.3482 130.159 94.3172 129.108 93.0925C125.942 89.4001 122.203 86.2826 118.398 82.9841C114.376 79.4973 109.298 76.4985 106.355 72.3617C105.249 70.8064 104.017 69.2578 102.605 67.8744C102.156 67.4354 102.002 65.6775 101.691 66.3275C100.297 69.2468 101.805 72.1889 99.7268 75.0842C97.3558 78.3873 92.973 71.9892 92.1408 70.7742C88.7547 65.8303 81.1555 62.566 76.3074 58.4908C71.0862 54.102 65.2315 49.6768 61.5413 44.4089C60.8554 46.6048 54.2024 52.1215 51.3897 53.324C44.1363 56.4252 54.8459 62.726 56.9106 64.0149C60.7493 66.411 63.1318 70.0148 67.2436 72.1711C74.2626 75.8519 79.5983 80.8465 85.8539 85.1222C90.6144 88.376 92.7679 93.1947 97.4954 96.3352C98.9317 97.2893 102.143 90.9457 102.45 90.2619C102.621 89.88 102.806 84.1761 103.637 85.8438C104.309 87.1926 106.34 88.7307 107.9 89.5391C112.395 91.8677 117.339 96.5178 120.177 99.9522C122.213 102.417 125.624 104.095 127.536 106.606C129.225 108.826 133.258 114.853 136.92 115.565C140.746 116.31 136.56 104.784 142.11 107.659C149.087 111.273 156.238 114.569 163.638 117.898C164.795 118.419 166.093 119.018 167.382 119.688ZM167.382 119.688C168.928 121.513 170.822 123.336 172.797 124.648C173.05 124.816 175.045 126.6 174.131 125.003C172.955 122.946 170.19 121.149 167.382 119.688ZM177.727 166.377C176.183 164.695 172.975 163.171 171.007 161.682C167.823 159.273 165.265 156.311 162.693 153.536C157.746 148.201 152.75 143.188 147.38 138.043C146.356 137.061 139.387 130.978 136.649 133.089C136.083 133.525 132.85 141.731 130.654 138.1C130.251 137.434 127.779 135.975 126.816 135.665C124.62 134.96 123.86 133.409 122.608 131.949C120.049 128.965 117.314 124.876 113.787 122.495C110.056 119.976 107.001 116.579 104.131 113.483C100.792 109.882 99.9179 110.61 96.3642 115.379C94.7788 117.507 95.1751 117.406 93.1994 116.801C92.0501 116.45 89.5929 115.086 88.8566 114.364C85.0331 110.618 80.4913 106.801 75.4758 103.864C62.1371 96.0509 48.9135 86.3688 40.6266 75.3022C40.0479 80.1681 35.327 83.9325 30.3151 88.1984C26.1252 91.7646 43.4001 98.2709 46.2743 100.156C54.7752 105.731 63.2746 111.424 70.8453 117.61C74.596 120.675 78.9085 123.779 83.1219 126.559C86.2976 128.654 88.061 131.804 91.7601 133.589C93.8595 134.602 95.3349 127.458 96.2024 128.308C98.7945 130.847 102.12 133.597 105.369 135.728C107.66 137.23 109.508 138.787 111.244 140.66C112.785 142.322 115.683 142.813 117.225 144.403C120.117 147.384 124.86 149.429 127.245 152.562C128.475 154.178 131.237 154.98 132.252 156.88C133.305 158.85 133.836 156.28 134.15 155.275C134.564 153.948 135.378 149.082 137.587 149.511C144.592 150.874 149.998 154.586 156.072 156.929C161.643 159.078 166.913 161.896 172.031 164.492C173.504 165.239 175.794 165.749 177.727 166.377ZM177.727 166.377C177.77 166.423 177.811 166.47 177.851 166.516C178.366 167.117 181.083 168.086 180.406 167.587C179.755 167.107 178.796 166.724 177.727 166.377Z" stroke="#3D32C0" stroke-width="2.64072" stroke-linecap="round" stroke-linejoin="round"/>
<path d="M226.24 176.868C227.047 175.501 227.771 173.788 228.332 172.149C227.149 173.803 226.015 175.689 225.648 177.412C225.362 178.752 226.136 177.043 226.24 176.868Z" fill="#DBFCC4"/>
<path d="M227.582 207.848C227.596 207.806 227.611 207.763 227.627 207.721C227.158 208.202 226.744 208.684 226.482 209.168C226.21 209.672 227.394 208.389 227.582 207.848Z" fill="#DBFCC4"/>
<path d="M271.148 95.3573C269.889 99.9209 267.544 104.355 265.491 108.625C263.585 112.59 260.322 116.576 259.177 120.842C258.895 121.89 257.412 127.411 256.012 125.571C254.784 123.958 255.229 121.53 254.319 119.751C254.116 119.354 254.199 120.643 254.029 121.054C253.491 122.349 253.052 123.722 252.672 125.073C251.663 128.667 249.554 131.914 247.983 135.279C246.496 138.462 245.024 141.502 243.87 144.827C243.488 145.93 242.734 149.324 241.663 146.576C241 144.875 240.284 143.218 239.088 141.879C238.68 141.421 238.575 142.883 238.539 143.012C237.958 145.132 236.833 147.144 236.095 149.217C234.717 153.089 234.275 157.462 232.457 161.159C231.05 164.021 229.75 167.298 228.884 170.38C228.725 170.945 228.54 171.542 228.332 172.149C228.875 171.389 229.429 170.679 229.924 170.055C233.088 166.067 236.14 162.156 239.081 158.056C241.421 154.794 240.485 163.931 242.207 162.566C243.856 161.26 245.208 156.079 245.801 154.128C246.473 151.918 247.919 149.978 248.653 147.775C249.675 144.706 251.575 140.309 253.47 137.668C254.128 136.751 254.941 135.211 255.136 134.102C255.377 132.73 255.968 136.761 256.082 136.996C256.286 137.417 258.348 141.244 258.935 140.25C260.867 136.978 261.447 133.07 263.385 129.71C265.931 125.295 267.983 120.568 270.939 116.412C272.67 113.976 273.465 110.885 275.047 108.339C275.898 106.969 280.347 100.138 276.682 99.5063C275.261 99.2613 271.663 96.7748 271.148 95.3573Z" fill="#DBFCC4"/>
<path d="M283.658 112.844C280.763 122.547 275.439 132.339 269.895 140.822C267.81 144.012 266.025 147.725 264.569 151.232C264.288 151.907 263.26 153.416 262.754 153.918C261.884 154.78 262.078 154.765 261.149 153.593C259.066 150.964 258.593 150.635 257.351 153.933C256.283 156.768 255.155 159.858 253.634 162.469C252.196 164.936 251.279 168.451 250.347 171.138C249.891 172.453 249.673 173.725 248.709 174.707C248.286 175.138 247.26 176.718 247.13 177.281C246.425 180.351 244.188 175.2 243.884 175.012C242.418 174.103 239.698 179.963 239.306 180.886C237.252 185.729 235.359 190.395 233.519 195.281C232.562 197.821 231.628 200.493 230.353 202.906C229.565 204.398 228.2 206.184 227.627 207.721C228.475 206.852 229.501 205.989 230.123 205.135C232.286 202.166 234.5 199.007 236.914 196.258C239.546 193.262 241.745 189.435 244.899 186.936C245.893 186.148 246.705 189.443 247.016 190.299C247.251 190.948 247.727 192.666 248.045 191.031C248.351 189.454 249.571 188.28 250.003 186.858C250.841 184.102 252.877 181.609 253.965 178.852C254.546 177.381 255.857 176.399 256.43 174.877C257.076 173.162 257.802 171.648 258.74 170.077C260.07 167.848 261.381 165.161 262.368 162.784C262.699 161.988 264.021 166.764 264.912 165.584C266.484 163.504 267.029 160.872 268.328 158.684C270.052 155.782 271.793 152.627 273.275 149.622C276.267 143.557 279.737 137.642 283.217 131.811C284.394 129.839 291.893 121.43 289.619 119.799C286.899 117.847 284.359 116.19 283.658 112.844Z" fill="#DBFCC4"/>
<path d="M228.332 172.149C228.54 171.542 228.725 170.945 228.884 170.38C229.75 167.298 231.05 164.021 232.457 161.159C234.275 157.462 234.717 153.089 236.095 149.217C236.833 147.144 237.958 145.132 238.539 143.012C238.575 142.883 238.68 141.421 239.088 141.879C240.284 143.218 241 144.875 241.663 146.576C242.734 149.324 243.488 145.93 243.87 144.827C245.024 141.502 246.496 138.462 247.983 135.279C249.554 131.914 251.663 128.667 252.672 125.073C253.052 123.722 253.491 122.349 254.029 121.054C254.199 120.643 254.116 119.354 254.319 119.751C255.229 121.53 254.784 123.958 256.012 125.571C257.412 127.411 258.895 121.89 259.177 120.842C260.322 116.576 263.585 112.59 265.491 108.625C267.544 104.355 269.889 99.9209 271.148 95.3573C271.663 96.7748 275.261 99.2613 276.682 99.5063C280.347 100.138 275.898 106.969 275.047 108.339C273.465 110.885 272.67 113.976 270.939 116.412C267.983 120.568 265.931 125.295 263.385 129.71C261.447 133.07 260.867 136.978 258.935 140.25C258.348 141.244 256.286 137.417 256.082 136.996C255.968 136.761 255.377 132.73 255.136 134.102C254.941 135.211 254.128 136.751 253.47 137.668C251.575 140.309 249.675 144.706 248.653 147.775C247.919 149.978 246.473 151.918 245.801 154.128C245.208 156.079 243.856 161.26 242.207 162.566C240.485 163.931 241.421 154.794 239.081 158.056C236.14 162.156 233.088 166.067 229.924 170.055C229.429 170.679 228.875 171.389 228.332 172.149ZM228.332 172.149C227.771 173.788 227.047 175.501 226.24 176.868C226.136 177.043 225.362 178.752 225.648 177.412C226.015 175.689 227.149 173.803 228.332 172.149ZM227.627 207.721C228.2 206.184 229.565 204.398 230.353 202.906C231.628 200.493 232.562 197.821 233.519 195.281C235.359 190.395 237.252 185.729 239.306 180.886C239.698 179.963 242.418 174.103 243.884 175.012C244.188 175.2 246.425 180.351 247.13 177.281C247.26 176.718 248.286 175.138 248.709 174.707C249.673 173.725 249.891 172.453 250.347 171.138C251.279 168.451 252.196 164.936 253.634 162.469C255.155 159.858 256.283 156.768 257.351 153.933C258.593 150.635 259.066 150.964 261.149 153.593C262.078 154.765 261.884 154.78 262.754 153.918C263.26 153.416 264.288 151.907 264.569 151.232C266.025 147.725 267.81 144.012 269.895 140.822C275.439 132.339 280.763 122.547 283.658 112.844C284.359 116.19 286.899 117.847 289.619 119.799C291.893 121.43 284.394 129.839 283.217 131.811C279.737 137.642 276.267 143.557 273.275 149.622C271.793 152.627 270.052 155.782 268.328 158.684C267.029 160.872 266.484 163.504 264.912 165.584C264.021 166.764 262.699 161.988 262.368 162.784C261.381 165.161 260.07 167.848 258.74 170.077C257.802 171.648 257.076 173.162 256.43 174.877C255.857 176.399 254.546 177.381 253.965 178.852C252.877 181.609 250.841 184.102 250.003 186.858C249.571 188.28 248.351 189.454 248.045 191.031C247.727 192.666 247.251 190.948 247.016 190.299C246.705 189.443 245.893 186.148 244.899 186.936C241.745 189.435 239.546 193.262 236.914 196.258C234.5 199.007 232.286 202.166 230.123 205.135C229.501 205.989 228.475 206.852 227.627 207.721ZM227.627 207.721C227.611 207.763 227.596 207.806 227.582 207.848C227.394 208.389 226.21 209.672 226.482 209.168C226.744 208.684 227.158 208.202 227.627 207.721Z" stroke="#3D32C0" stroke-width="1.33457" stroke-linecap="round" stroke-linejoin="round"/>
<path d="M31.1012 156.334V164.509C31.3869 165.367 32.5204 165.35 33.0607 166.199C33.8318 167.41 34.6361 168.229 35.8985 169.07C36.8245 169.688 38.6689 171.199 39.7668 171.199C40.7976 171.199 40.7771 169.457 40.8478 168.749C41.4777 162.451 41.135 155.984 41.135 149.645C41.135 149.261 41.151 147.363 41.2026 147.415C41.5491 147.761 41.4856 148.315 41.7431 148.766C42.4874 150.069 42.9841 151.915 43.5675 153.327C45.3282 157.59 46.9207 163.311 50.1891 166.705C51.408 167.971 53.8688 169.928 55.8648 169.357C56.6457 169.134 56.2959 167.631 56.4053 167.043C56.841 164.702 56.9459 162.327 56.9459 159.949C56.9459 154.132 57.7815 148.186 58.9222 142.482C59.16 141.293 59.5173 140.155 59.7499 138.969C59.9183 138.11 60.5616 137.493 60.5945 136.604C60.628 135.699 60.479 134.961 59.5472 134.695C58.6086 134.427 54.8175 132.058 54.8175 134.476C54.8175 139.552 52.1485 144.442 51.1688 149.341C50.8536 150.917 50.8554 152.835 50.2735 154.29C50.0388 154.877 49.9053 153.077 49.6485 152.499C48.6982 150.361 48.3427 148.051 47.4526 145.895C46.3841 143.305 45.0472 140.88 43.5675 138.496C42.2781 136.419 40.6301 135.254 38.9391 133.563C38.2744 132.899 38.0611 133.465 37.7228 134.104C35.7537 137.824 34.1042 141.855 33.0776 145.962C32.2246 149.374 31.1012 152.794 31.1012 156.334Z" fill="#FE966C"/>
<path d="M126.774 194.325C124.046 190.817 122.495 186.4 122.149 181.958C122.702 181.417 123.44 180.927 123.903 180.49C124.777 179.664 126.93 176.91 128.159 176.841C129.083 176.79 130.207 179.167 130.524 179.882C131.521 182.124 132.473 184.95 132.703 187.483C132.821 188.776 132.687 191.022 133.328 192.145C133.382 192.239 134.449 190.313 134.545 190.051C134.963 188.901 136.111 187.451 136.825 186.419C137.771 185.053 138.644 183.651 139.578 182.281C140.577 180.815 143.904 175.283 145.66 176.081C146.797 176.598 150.355 177.933 150.355 179.578C150.355 180.073 149.444 180.507 149.139 180.794C148.009 181.861 146.83 183.058 146.099 184.443C144.516 187.442 142.404 191.112 140.018 193.564C137.668 195.979 135.38 198.748 134.781 202.078C134.357 204.435 134.371 206.842 134.004 209.206C133.924 209.726 133.965 213.637 132.568 212.551C130.593 211.014 128.762 209.252 126.791 207.72C125.184 206.469 127.109 204.104 127.399 202.365C127.865 199.571 128.565 196.627 126.774 194.325Z" fill="#FE966C"/>
<path d="M31.1012 164.509V156.334C31.1012 152.794 32.2246 149.374 33.0776 145.962C34.1042 141.855 35.7537 137.824 37.7228 134.104C38.0611 133.465 38.2744 132.899 38.9391 133.563C40.6301 135.254 42.2781 136.419 43.5675 138.496C45.0472 140.88 46.3841 143.305 47.4526 145.895C48.3427 148.051 48.6982 150.361 49.6485 152.499C49.9053 153.077 50.0388 154.877 50.2735 154.29C50.8554 152.835 50.8536 150.917 51.1688 149.341C52.1485 144.442 54.8175 139.552 54.8175 134.476C54.8175 132.058 58.6086 134.427 59.5472 134.695C60.479 134.961 60.628 135.699 60.5945 136.604C60.5616 137.493 59.9183 138.11 59.7499 138.969C59.5173 140.155 59.16 141.293 58.9222 142.482C57.7815 148.186 56.9459 154.132 56.9459 159.949C56.9459 162.327 56.841 164.702 56.4053 167.043C56.2959 167.631 56.6457 169.134 55.8648 169.357C53.8688 169.928 51.408 167.971 50.1891 166.705C46.9207 163.311 45.3282 157.59 43.5675 153.327C42.9841 151.915 42.4874 150.069 41.7431 148.766C41.4856 148.315 41.5491 147.761 41.2026 147.415C41.151 147.363 41.135 149.261 41.135 149.645C41.135 155.984 41.4777 162.451 40.8478 168.749C40.7771 169.457 40.7976 171.199 39.7668 171.199C38.6689 171.199 36.8245 169.688 35.8985 169.07C34.6361 168.229 33.8318 167.41 33.0607 166.199C32.5204 165.35 31.3869 165.367 31.1012 164.509Z" fill="#FE966C"/>
<path d="M82.4865 156.946C84.0788 157.249 85.5928 157.25 87.1994 157.25C88.4731 157.25 88.4036 154.47 88.2467 153.449C87.9907 151.785 87.0962 150.042 86.0676 148.737C85.3323 147.803 82.7502 146.046 81.5068 146C79.8206 145.938 77.6973 145.662 76.2534 146.625C74.46 147.821 73.3743 150.121 71.5405 151.169C66.8915 153.826 66.0072 161.212 64.5473 165.764C63.7234 168.332 63.6351 170.359 63.6351 173.061C63.6351 175.149 64.4501 176.4 65.6115 178.078C67.5708 180.908 70.5688 184.815 74.2095 183.466C75.9332 182.828 77.1037 181.788 78.3818 180.51C79.1552 179.737 78.8378 180.261 78.8378 181.203V183.534C78.8378 185.608 80.2282 185.192 81.946 185.831C83.8192 186.528 85.2305 186.946 85.7635 184.547C86.5527 180.996 87.0933 177.409 87.8075 173.838C88.3088 171.331 87.9595 168.511 87.9595 165.949C87.9595 164.842 88.1723 163.826 87.0473 163.264C85.5259 162.503 83.6066 162.723 81.946 162.723C81.1145 162.723 79.1289 162.435 78.5338 163.179C78.1897 163.609 77.9417 164.042 77.6892 164.547C77.4371 165.052 77.4769 165.981 77.1655 166.355C76.2756 167.423 77.4696 169.198 78.5338 169.48C79.1632 169.646 82.7651 169.284 82.7906 169.716C82.8893 171.395 82.3093 172.845 81.8615 174.412C81.7266 174.884 78.3818 173.838 77.3176 174.733C71.8948 178.396 71.5405 173.541 71.5405 171.9C71.5405 165.555 71.2814 162.403 75.6453 157.554C76.7876 156.285 78.4839 156.338 80.0541 156.338C81.8857 156.338 81.4095 156.407 82.4865 156.946Z" fill="#FE966C"/>
<path fill-rule="evenodd" clip-rule="evenodd" d="M98.7963 162.669C98.6991 167.624 97.4114 172.229 96.2287 176.959C95.6707 179.191 95.2468 181.448 94.5395 183.649C93.8533 185.783 92.7637 187.748 92.1071 189.882C91.7266 191.118 91.7826 192.429 91.4314 193.615C91.0553 194.884 92.9641 195.088 94.0665 195.794C96.5578 197.388 101.312 198.325 102.141 194.595C102.501 192.973 102.445 191.389 102.445 189.73C102.445 189.359 102.543 187.125 102.597 187.179C105.017 189.599 107.165 192.527 109.877 194.747L109.905 194.769C110.574 195.317 114.683 198.681 115.215 197.483C116.052 195.6 117.648 193.482 117.648 191.402C117.648 189.82 112.975 189.157 111.938 188.514C110.551 187.652 108.873 186.666 107.766 185.473C107.421 185.101 105.192 183.747 106.465 183.649C108.58 183.486 111.376 182.542 113.087 181.284C115.407 179.578 116.404 177.654 117.411 175.135C118.211 173.136 118.256 170.368 118.256 168.209C118.256 166.453 117.018 165.35 115.519 164.561C110.74 162.045 104.016 162.669 98.7963 162.669ZM104.574 176.047C103.758 176.002 104.871 170.294 104.878 169.966L109.303 170.574C111.141 170.574 111.066 172.717 110.216 174.054C108.877 176.158 106.858 176.174 104.574 176.047Z" fill="#FE966C"/>
<path fill-rule="evenodd" clip-rule="evenodd" d="M1 151.78C1.92755 149.488 2.68736 147.513 3.88852 145.378C5.79283 141.992 6.62183 138.358 8.29731 134.888C10.3334 130.67 12.7668 126.93 15.223 122.962C16.0156 121.682 17.1816 119.249 18.9392 120.226C22.447 122.174 23.1321 125.584 23.8041 129.28C24.5539 133.403 25.1197 137.622 26.0845 141.695C27.0952 145.963 26.8447 150.29 26.8447 154.651C26.8447 155.979 19.9236 154.528 19.8514 153.3C19.7171 151.017 19.4199 148.698 18.9223 146.459C18.5042 144.577 16.3629 145.09 14.8176 145.09C14.1641 145.09 11.0958 144.644 11.0338 145.699C10.9088 147.823 9.96409 150.739 9.14191 152.692C8.48472 154.253 6.71517 154.212 5.25677 154.212C3.33898 154.212 2.44435 152.502 1 151.78ZM18.0268 129.584C18.0253 129.59 18.0238 129.596 18.0222 129.603C17.9047 130.112 17.4187 133.567 17.4187 134.161C17.4187 135.951 16.9035 137.295 16.2701 138.942C15.9786 139.7 13.8807 139.905 14.2261 139.145C15.6008 136.12 17.2384 132.866 18.0222 129.603C18.0238 129.596 18.0254 129.59 18.0268 129.584Z" fill="#FE966C"/>
<path d="M18.0222 129.603C18.0238 129.596 18.0253 129.59 18.0268 129.584C18.0254 129.59 18.0238 129.596 18.0222 129.603ZM18.0222 129.603C17.9047 130.112 17.4187 133.567 17.4187 134.161C17.4187 135.951 16.9035 137.295 16.2701 138.942C15.9786 139.7 13.8807 139.905 14.2261 139.145C15.6008 136.12 17.2384 132.866 18.0222 129.603ZM1 151.78C1.92755 149.488 2.68736 147.513 3.88852 145.378C5.79283 141.992 6.62183 138.358 8.29731 134.888C10.3334 130.67 12.7668 126.93 15.223 122.962C16.0156 121.682 17.1816 119.249 18.9392 120.226C22.447 122.174 23.1321 125.584 23.8041 129.28C24.5539 133.403 25.1197 137.622 26.0845 141.695C27.0952 145.963 26.8447 150.29 26.8447 154.651C26.8447 155.979 19.9236 154.528 19.8514 153.3C19.7171 151.017 19.4199 148.698 18.9223 146.459C18.5042 144.577 16.3629 145.09 14.8176 145.09C14.1641 145.09 11.0958 144.644 11.0338 145.699C10.9088 147.823 9.96409 150.739 9.14191 152.692C8.48472 154.253 6.71517 154.212 5.25677 154.212C3.33898 154.212 2.44435 152.502 1 151.78ZM31.1012 164.509V156.334C31.1012 152.794 32.2246 149.374 33.0776 145.962C34.1042 141.855 35.7537 137.824 37.7228 134.104C38.0611 133.465 38.2744 132.899 38.9391 133.563C40.6301 135.254 42.2781 136.419 43.5675 138.496C45.0472 140.88 46.3841 143.305 47.4526 145.895C48.3427 148.051 48.6982 150.361 49.6485 152.499C49.9053 153.077 50.0388 154.877 50.2735 154.29C50.8554 152.835 50.8536 150.917 51.1688 149.341C52.1485 144.442 54.8175 139.552 54.8175 134.476C54.8175 132.058 58.6086 134.427 59.5472 134.695C60.479 134.961 60.628 135.699 60.5945 136.604C60.5616 137.493 59.9183 138.11 59.7499 138.969C59.5173 140.155 59.16 141.293 58.9222 142.482C57.7815 148.186 56.9459 154.132 56.9459 159.949C56.9459 162.327 56.841 164.702 56.4053 167.043C56.2959 167.631 56.6457 169.134 55.8648 169.357C53.8688 169.928 51.408 167.971 50.1891 166.705C46.9207 163.311 45.3282 157.59 43.5675 153.327C42.9841 151.915 42.4874 150.069 41.7431 148.766C41.4856 148.315 41.5491 147.761 41.2026 147.415C41.151 147.363 41.135 149.261 41.135 149.645C41.135 155.984 41.4777 162.451 40.8478 168.749C40.7771 169.457 40.7976 171.199 39.7668 171.199C38.6689 171.199 36.8245 169.688 35.8985 169.07C34.6361 168.229 33.8318 167.41 33.0607 166.199C32.5204 165.35 31.3869 165.367 31.1012 164.509ZM82.4865 156.946C84.0788 157.249 85.5928 157.25 87.1994 157.25C88.4731 157.25 88.4036 154.47 88.2467 153.449C87.9907 151.785 87.0962 150.042 86.0676 148.737C85.3323 147.803 82.7502 146.046 81.5068 146C79.8206 145.938 77.6973 145.662 76.2534 146.625C74.46 147.821 73.3743 150.121 71.5405 151.169C66.8915 153.826 66.0072 161.212 64.5473 165.764C63.7234 168.332 63.6351 170.359 63.6351 173.061C63.6351 175.149 64.4501 176.4 65.6115 178.078C67.5708 180.908 70.5688 184.815 74.2095 183.466C75.9332 182.828 77.1037 181.788 78.3818 180.51C79.1552 179.737 78.8378 180.261 78.8378 181.203V183.534C78.8378 185.608 80.2282 185.192 81.946 185.831C83.8192 186.528 85.2305 186.946 85.7635 184.547C86.5527 180.996 87.0933 177.409 87.8075 173.838C88.3088 171.331 87.9595 168.511 87.9595 165.949C87.9595 164.842 88.1723 163.826 87.0473 163.264C85.5259 162.503 83.6066 162.723 81.946 162.723C81.1145 162.723 79.1289 162.435 78.5338 163.179C78.1897 163.609 77.9417 164.042 77.6892 164.547C77.4371 165.052 77.4769 165.981 77.1655 166.355C76.2756 167.423 77.4696 169.198 78.5338 169.48C79.1632 169.646 82.7651 169.284 82.7906 169.716C82.8893 171.395 82.3093 172.845 81.8615 174.412C81.7266 174.884 78.3818 173.838 77.3176 174.733C71.8948 178.396 71.5405 173.541 71.5405 171.9C71.5405 165.555 71.2814 162.403 75.6453 157.554C76.7876 156.285 78.4839 156.338 80.0541 156.338C81.8857 156.338 81.4095 156.407 82.4865 156.946ZM98.7963 162.669C98.6991 167.624 97.4114 172.229 96.2287 176.959C95.6707 179.191 95.2468 181.448 94.5395 183.649C93.8533 185.783 92.7637 187.748 92.1071 189.882C91.7266 191.118 91.7826 192.429 91.4314 193.615C91.0553 194.884 92.9641 195.088 94.0665 195.794C96.5578 197.388 101.312 198.325 102.141 194.595C102.501 192.973 102.445 191.389 102.445 189.73C102.445 189.359 102.543 187.125 102.597 187.179C105.017 189.599 107.165 192.527 109.877 194.747L109.905 194.769C110.574 195.317 114.683 198.681 115.215 197.483C116.052 195.6 117.648 193.482 117.648 191.402C117.648 189.82 112.975 189.157 111.938 188.514C110.551 187.652 108.873 186.666 107.766 185.473C107.421 185.101 105.192 183.747 106.465 183.649C108.58 183.486 111.376 182.542 113.087 181.284C115.407 179.578 116.404 177.654 117.411 175.135C118.211 173.136 118.256 170.368 118.256 168.209C118.256 166.453 117.018 165.35 115.519 164.561C110.74 162.045 104.016 162.669 98.7963 162.669ZM104.878 169.966C104.871 170.294 103.758 176.002 104.574 176.047C106.858 176.174 108.877 176.158 110.216 174.054C111.066 172.717 111.141 170.574 109.303 170.574L104.878 169.966ZM122.149 181.958C122.495 186.4 124.046 190.817 126.774 194.325C128.565 196.627 127.865 199.571 127.399 202.365C127.109 204.104 125.184 206.469 126.791 207.72C128.762 209.252 130.593 211.014 132.568 212.551C133.965 213.637 133.924 209.726 134.004 209.206C134.371 206.842 134.357 204.435 134.781 202.078C135.38 198.748 137.668 195.979 140.018 193.564C142.404 191.112 144.516 187.442 146.099 184.443C146.83 183.058 148.009 181.861 149.139 180.794C149.444 180.507 150.355 180.073 150.355 179.578C150.355 177.933 146.797 176.598 145.66 176.081C143.904 175.283 140.577 180.815 139.578 182.281C138.644 183.651 137.771 185.053 136.825 186.419C136.111 187.451 134.963 188.901 134.545 190.051C134.449 190.313 133.382 192.239 133.328 192.145C132.687 191.022 132.821 188.776 132.703 187.483C132.473 184.95 131.521 182.124 130.524 179.882C130.207 179.167 129.083 176.79 128.159 176.841C126.93 176.91 124.777 179.664 123.903 180.49C123.44 180.927 122.702 181.417 122.149 181.958Z" stroke="#3D32C0" stroke-linecap="round" stroke-linejoin="round"/>
<path d="M196.633 161.212C196.457 162.336 196.195 163.454 196.037 164.577C195.853 165.89 195.817 167.241 195.456 168.524C195.084 169.85 194.814 171.178 194.555 172.53C194.258 174.085 193.761 175.591 193.468 177.146C193.079 179.21 192.732 181.288 192.284 183.341C191.897 185.116 191.209 186.812 190.706 188.553C190.454 189.426 190.397 190.379 190.133 191.226C190.055 191.475 189.962 192.01 190.14 192.239C190.965 193.3 192.653 194.339 193.893 194.785C195.219 195.263 196.129 195.523 197.541 195.523C199.404 195.523 201.277 195.389 203.126 195.389C205.206 195.389 207.601 195.17 209.604 194.584C211.016 194.172 211.861 193.334 212.925 192.47C213.629 191.897 212.889 189.427 212.649 188.762C212.359 187.957 212.227 186.543 211.242 186.543C209.433 186.543 207.634 186.409 205.821 186.409C203.412 186.409 201.119 187.079 198.71 187.079C197.808 187.079 198.69 184.264 198.911 183.698C199.091 183.24 199.548 180.799 200.058 180.653C200.685 180.474 201.597 180.646 202.232 180.646H206.35C207.951 180.646 209.541 180.786 211.078 180.273C212.342 179.852 211.746 177.893 211.316 177.094C211.085 176.664 211.235 174.651 210.572 174.614C210.145 174.591 209.758 174.427 209.358 174.287C208.671 174.046 207.703 174.078 206.983 174.078H202.463C201.036 174.078 202.255 170.927 202.366 170.117L202.38 170.013C202.461 169.421 202.542 168.83 202.672 168.248C202.701 168.116 202.777 167.582 202.865 167.511C203.239 167.212 203.665 167.243 204.138 167.243C205.447 167.243 206.675 167.36 207.966 167.571C210.161 167.928 212.172 167.273 214.265 166.737C215.197 166.498 215.755 166.073 215.657 165.091C215.571 164.232 215.274 163.373 215.158 162.507L215.151 162.451C215.099 162.056 215.053 161.711 214.89 161.346C214.699 160.915 215.171 159.937 214.585 159.864C212.344 159.584 210.116 159.581 207.846 159.603C205.405 159.628 202.879 160.074 200.46 160.408C199.228 160.578 197.886 161.212 196.633 161.212Z" fill="#FE966C"/>
<path d="M196.278 121.486C196.278 126.69 195.135 132.091 194.193 137.178C193.731 139.674 193.447 142.156 192.894 144.63C192.547 146.18 191.971 147.901 191.971 149.485C191.971 151.351 191.123 152.175 192.894 153.553C194.093 154.486 195.615 155.453 196.654 156.493C197.696 157.535 197.845 155.877 198.124 155.091C198.853 153.043 198.889 150.784 199.287 148.664C199.492 147.572 199.91 146.263 199.97 145.177C200.03 144.102 200.448 143.947 201.577 143.947C203.125 143.947 204.599 143.684 206.124 143.639C207.257 143.606 209.929 143.18 210.5 142.1C211.259 140.666 210.739 138.032 210.739 136.408C210.739 134.782 201.201 137.315 201.201 135.161C201.201 133.933 201.494 129.486 203.081 129.486H212.124C214.682 129.486 213.816 126.873 213.816 124.887C213.816 122.846 214.361 121.486 211.953 121.486H196.278Z" fill="#FE966C"/>
<path fill-rule="evenodd" clip-rule="evenodd" d="M194.658 99.9585C194.837 99.6335 195.015 99.3094 195.192 98.9862C195.624 98.1976 196.048 97.4024 196.473 96.6067C197.26 95.1326 198.048 93.6566 198.884 92.2172C199.195 91.6814 199.556 91.1936 199.915 90.7078C200.452 89.9813 200.986 89.2594 201.346 88.3883C201.866 87.1275 202.464 85.9517 203.123 84.7645C203.259 84.5199 203.485 84.3519 203.714 84.1812C203.958 84 204.206 83.8157 204.354 83.5338C205.299 81.7374 205.657 81.3684 207.653 82.1492C207.749 82.1869 207.885 82.2382 208.051 82.3011C209.518 82.8571 213.371 84.3169 213.636 85.2431C214.399 87.9162 214.514 91.2273 214.576 93.9949C214.657 97.6108 215.075 101.201 215.493 104.787C215.958 108.773 216.422 112.755 216.422 116.763C216.422 116.874 216.435 117.026 216.449 117.194C216.487 117.631 216.534 118.182 216.388 118.438C216.072 118.991 213.56 118.574 213.037 118.455C212.81 118.404 212.433 118.378 211.989 118.347C210.553 118.247 208.422 118.099 208.422 116.883C208.422 114.61 208.3 111.344 207.345 109.242C206.824 108.096 205.126 108.247 203.646 108.378C203.2 108.418 202.774 108.456 202.405 108.456C201.349 108.456 200.863 108.454 200.587 108.693C200.319 108.926 200.25 109.387 200.046 110.302C199.94 110.78 199.841 111.272 199.741 111.772C199.344 113.746 198.926 115.827 197.961 117.515C197.388 118.518 194.185 117.392 193.5 116.917C192.307 116.092 191.18 114.94 190.11 113.846C189.888 113.619 189.668 113.395 189.451 113.176C189.991 108.438 192.369 104.117 194.658 99.9585ZM205.892 98.234C206.701 96.2276 207.423 93.968 207.806 91.8411C207.806 92.6423 208.06 93.6994 208.333 94.8381C208.933 97.3361 209.627 100.227 207.943 101.67C207.093 102.398 204.673 102.982 204.729 101.448C204.757 100.699 205.164 99.8278 205.528 99.0473C205.662 98.7603 205.79 98.4857 205.892 98.234Z" fill="#FE966C"/>
<path d="M194.847 41.9152C194.35 45.6699 192.311 48.8869 191.839 52.6156C191.466 55.5595 190.535 58.3769 190.078 61.299C189.599 64.3617 189.17 67.7889 189.001 70.8371C188.945 71.85 191.058 72.8283 191.77 73.3669C192.735 74.0971 194.847 75.4701 195.462 76.5463C196.271 77.9611 196.391 78.0944 196.693 76.2044C197.221 72.9041 197.761 69.555 198.471 66.2903C198.569 65.837 199.14 63.4899 199.77 63.4528C201.24 63.3663 202.741 63.4528 204.214 63.4528H206.077C206.327 63.4528 207.055 63.027 207.137 63.316C207.641 65.0793 206.902 67.4269 206.607 69.162C206.365 70.5895 206.269 72.2898 205.684 73.6062C205.378 74.2944 207.692 75.4871 208.214 75.9138C209.391 76.8771 210.348 78.1365 211.769 78.7684C213.348 79.47 213.616 78.4252 213.616 77.1445C213.616 66.0989 217 55.2612 217 44.2228C217 42.9078 216.645 42.7179 215.598 42.0519C214.998 41.6697 213.475 40.5147 213.239 41.5049C212.726 43.6609 211.781 45.638 211.222 47.7611C210.653 49.9252 210.219 52.0917 209.479 54.2053C209.205 54.9868 209.33 57.243 208.829 57.7436C208.184 58.3893 205.024 57.6069 204.077 57.6069C203.419 57.6069 201.361 57.9977 201.308 56.9915C201.204 55.0074 201.751 53.2272 201.907 51.2823C202.013 49.9499 202.539 48.5904 202.539 47.2996C202.539 46.2742 201.013 46.1999 200.385 45.6073C199.345 44.6245 198.399 44.1537 197.462 43.0091C196.911 42.3358 195.625 42.3043 194.847 41.9152Z" fill="#FE966C"/>
<path d="M209.229 12.3842C211.092 12.3842 211.65 13.2399 213.468 13.3072C214.282 13.3374 214.767 13.4848 214.767 12.5551C214.767 9.23138 215.023 6.26181 212.921 3.52981C212.005 2.33832 210.534 2.33379 209.229 1.92304C207.715 1.44628 206.214 1 204.614 1C200.537 1 197.462 3.1364 195.708 6.86302C194.651 9.10973 193.55 11.5751 192.785 13.9397C191.964 16.4791 191.958 19.1234 191.537 21.7342C191.169 24.018 191.076 26.2097 191.076 28.5203C191.076 31.2347 192.531 32.5893 194.153 34.6055C196.437 37.4454 201.812 39.2891 205.366 37.5456C207.306 36.594 209.245 34.0727 210.631 32.4518C212.363 30.4254 213.523 28.0012 214.306 25.4777C214.542 24.7171 215.203 22.9159 214.733 22.0932C214.458 21.6116 212.177 21.9223 211.69 21.9223C209.578 21.9223 209.034 22.517 208.306 24.5204C207.823 25.8493 205.969 27.7327 204.597 28.0759C203.128 28.4431 200.596 29.731 199.076 28.9305C198.445 28.5984 197.766 26.5649 197.606 25.9221C197.296 24.6837 197.537 23.1216 197.537 21.8539C197.537 17.9825 198.288 15.3684 200.46 12.2303C201.374 10.9104 202.493 9.48519 203.827 8.57235C204.374 8.19836 206.234 7.63341 206.921 7.78606C209.035 8.25567 209.229 10.5524 209.229 12.3842Z" fill="#FE966C"/>
<path d="M189.451 113.176C189.397 113.65 189.361 114.127 189.346 114.609C189.381 114.644 189.416 113.141 189.451 113.176ZM189.451 113.176C189.668 113.395 189.888 113.619 190.11 113.846C191.18 114.94 192.307 116.092 193.5 116.917C194.185 117.392 197.388 118.518 197.961 117.515C198.926 115.827 199.344 113.746 199.741 111.772C199.841 111.272 199.94 110.78 200.046 110.302C200.25 109.387 200.319 108.926 200.587 108.693C200.863 108.454 201.349 108.456 202.405 108.456C202.774 108.456 203.2 108.418 203.646 108.378C205.126 108.247 206.824 108.096 207.345 109.242C208.3 111.344 208.422 114.61 208.422 116.883C208.422 118.099 210.553 118.247 211.989 118.347C212.433 118.378 212.81 118.404 213.037 118.455C213.56 118.574 216.072 118.991 216.388 118.438C216.534 118.182 216.487 117.631 216.449 117.194C216.435 117.026 216.422 116.874 216.422 116.763C216.422 112.755 215.958 108.773 215.493 104.787C215.075 101.201 214.657 97.6108 214.576 93.9949C214.514 91.2273 214.399 87.9162 213.636 85.2431C213.371 84.3169 209.518 82.8571 208.051 82.3011C207.885 82.2382 207.749 82.1869 207.653 82.1492C205.657 81.3684 205.299 81.7374 204.354 83.5338C204.206 83.8157 203.958 84 203.714 84.1812C203.485 84.3519 203.259 84.5199 203.123 84.7645C202.464 85.9517 201.866 87.1275 201.346 88.3883C200.986 89.2594 200.452 89.9813 199.915 90.7078C199.556 91.1936 199.195 91.6814 198.884 92.2172C198.048 93.6566 197.26 95.1326 196.473 96.6067C196.048 97.4024 195.624 98.1976 195.192 98.9862C195.015 99.3094 194.837 99.6335 194.658 99.9585C192.369 104.117 189.991 108.438 189.451 113.176ZM196.278 121.486C196.278 126.69 195.135 132.091 194.193 137.178C193.731 139.674 193.447 142.156 192.894 144.63C192.547 146.18 191.971 147.901 191.971 149.485C191.971 151.351 191.123 152.175 192.894 153.553C194.093 154.486 195.615 155.453 196.654 156.493C197.696 157.535 197.845 155.877 198.124 155.091C198.853 153.043 198.889 150.784 199.287 148.664C199.492 147.572 199.91 146.263 199.97 145.177C200.03 144.102 200.448 143.947 201.577 143.947C203.125 143.947 204.599 143.684 206.124 143.639C207.257 143.606 209.929 143.18 210.5 142.1C211.259 140.666 210.739 138.032 210.739 136.408C210.739 134.782 201.201 137.315 201.201 135.161C201.201 133.933 201.494 129.486 203.081 129.486H212.124C214.682 129.486 213.816 126.873 213.816 124.887C213.816 122.846 214.361 121.486 211.953 121.486M196.278 121.486C201.332 121.486 206.837 121.486 211.953 121.486M196.278 121.486H211.953M202.366 170.117C202.255 170.927 201.036 174.078 202.463 174.078H206.983C207.703 174.078 208.671 174.046 209.358 174.287C209.758 174.427 210.145 174.591 210.572 174.614C211.235 174.651 211.085 176.664 211.316 177.094C211.746 177.893 212.342 179.852 211.078 180.273C209.541 180.786 207.951 180.646 206.35 180.646H202.232C201.597 180.646 200.685 180.474 200.058 180.653C199.548 180.799 199.091 183.24 198.911 183.698C198.69 184.264 197.808 187.079 198.71 187.079C201.119 187.079 203.412 186.409 205.821 186.409C207.634 186.409 209.433 186.543 211.242 186.543C212.227 186.543 212.359 187.957 212.649 188.762C212.889 189.427 213.629 191.897 212.925 192.47C211.861 193.334 211.016 194.172 209.604 194.584C207.601 195.17 205.206 195.389 203.126 195.389C201.277 195.389 199.404 195.523 197.541 195.523C196.129 195.523 195.219 195.263 193.893 194.785C192.653 194.339 190.965 193.3 190.14 192.239C189.962 192.01 190.055 191.475 190.133 191.226C190.397 190.379 190.454 189.426 190.706 188.553C191.209 186.812 191.897 185.116 192.284 183.341C192.732 181.288 193.079 179.21 193.468 177.146C193.761 175.591 194.258 174.085 194.555 172.53C194.814 171.178 195.084 169.85 195.456 168.524C195.817 167.241 195.853 165.89 196.037 164.577C196.195 163.454 196.457 162.336 196.633 161.212C197.886 161.212 199.228 160.578 200.46 160.408C202.879 160.074 205.405 159.628 207.846 159.603C210.116 159.581 212.344 159.584 214.585 159.864C215.171 159.937 214.699 160.915 214.89 161.346C215.053 161.711 215.099 162.056 215.151 162.451M202.366 170.117L202.38 170.013M202.366 170.117C202.371 170.082 202.376 170.048 202.38 170.013M215.158 162.507C215.274 163.373 215.571 164.232 215.657 165.091C215.755 166.073 215.197 166.498 214.265 166.737C212.172 167.273 210.161 167.928 207.966 167.571C206.675 167.36 205.447 167.243 204.138 167.243C203.665 167.243 203.239 167.212 202.865 167.511C202.777 167.582 202.701 168.116 202.672 168.248C202.542 168.83 202.461 169.421 202.38 170.013M215.158 162.507L215.151 162.451M215.158 162.507C215.156 162.488 215.153 162.469 215.151 162.451M209.229 12.3842C211.092 12.3842 211.65 13.2399 213.468 13.3072C214.282 13.3374 214.767 13.4848 214.767 12.5551C214.767 9.23138 215.023 6.26181 212.921 3.52981C212.005 2.33832 210.534 2.33379 209.229 1.92304C207.715 1.44628 206.214 1 204.614 1C200.537 1 197.462 3.1364 195.708 6.86302C194.651 9.10973 193.55 11.5751 192.785 13.9397C191.964 16.4791 191.958 19.1234 191.537 21.7342C191.169 24.018 191.076 26.2097 191.076 28.5203C191.076 31.2347 192.531 32.5893 194.153 34.6055C196.437 37.4454 201.812 39.2891 205.366 37.5456C207.306 36.594 209.245 34.0727 210.631 32.4518C212.363 30.4254 213.523 28.0012 214.306 25.4777C214.542 24.7171 215.203 22.9159 214.733 22.0932C214.458 21.6116 212.177 21.9223 211.69 21.9223C209.578 21.9223 209.034 22.517 208.306 24.5204C207.823 25.8493 205.969 27.7327 204.597 28.0759C203.128 28.4431 200.596 29.731 199.076 28.9305C198.445 28.5984 197.766 26.5649 197.606 25.9221C197.296 24.6837 197.537 23.1216 197.537 21.8539C197.537 17.9825 198.288 15.3684 200.46 12.2303C201.374 10.9104 202.493 9.48519 203.827 8.57235C204.374 8.19836 206.234 7.63341 206.921 7.78606C209.035 8.25567 209.229 10.5524 209.229 12.3842ZM194.847 41.9152C194.35 45.6699 192.311 48.8869 191.839 52.6156C191.466 55.5595 190.535 58.3769 190.078 61.299C189.599 64.3617 189.17 67.7889 189.001 70.8371C188.945 71.85 191.058 72.8283 191.77 73.3669C192.735 74.0971 194.847 75.4701 195.462 76.5463C196.271 77.9611 196.391 78.0944 196.693 76.2044C197.221 72.9041 197.761 69.555 198.471 66.2903C198.569 65.837 199.14 63.4899 199.77 63.4528C201.24 63.3663 202.741 63.4528 204.214 63.4528H206.077C206.327 63.4528 207.055 63.027 207.137 63.316C207.641 65.0793 206.902 67.4269 206.607 69.162C206.365 70.5895 206.269 72.2898 205.684 73.6062C205.378 74.2944 207.692 75.4871 208.214 75.9138C209.391 76.8771 210.348 78.1365 211.769 78.7684C213.348 79.47 213.616 78.4252 213.616 77.1445C213.616 66.0989 217 55.2612 217 44.2228C217 42.9078 216.645 42.7179 215.598 42.0519C214.998 41.6697 213.475 40.5147 213.239 41.5049C212.726 43.6609 211.781 45.638 211.222 47.7611C210.653 49.9252 210.219 52.0917 209.479 54.2053C209.205 54.9868 209.33 57.243 208.829 57.7436C208.184 58.3893 205.024 57.6069 204.077 57.6069C203.419 57.6069 201.361 57.9977 201.308 56.9915C201.204 55.0074 201.751 53.2272 201.907 51.2823C202.013 49.9499 202.539 48.5904 202.539 47.2996C202.539 46.2742 201.013 46.1999 200.385 45.6073C199.345 44.6245 198.399 44.1537 197.462 43.0091C196.911 42.3358 195.625 42.3043 194.847 41.9152ZM207.806 91.8411C207.423 93.968 206.701 96.2276 205.892 98.234C205.79 98.4857 205.662 98.7603 205.528 99.0473C205.164 99.8278 204.757 100.699 204.729 101.448C204.673 102.982 207.093 102.398 207.943 101.67C209.627 100.227 208.933 97.3361 208.333 94.8381C208.06 93.6994 207.806 92.6423 207.806 91.8411Z" stroke="#3D32C0" stroke-linecap="round" stroke-linejoin="round"/>
</svg>
