<svg width="211" height="214" viewBox="0 0 211 214" fill="none" xmlns="http://www.w3.org/2000/svg">
<g filter="url(#filter0_d)">
<circle cx="103" cy="102" r="101.5" fill="#1AB1E1" stroke="#3D32C0"/>
<path d="M121.113 55.8394C121.113 57.4369 119.994 58.9768 117.982 60.1451C115.983 61.3061 113.188 62.0401 110.073 62.0401C106.959 62.0401 104.164 61.3061 102.164 60.1451C100.152 58.9768 99.0332 57.4369 99.0332 55.8394C99.0332 54.2419 100.152 52.702 102.164 51.5337C104.164 50.3727 106.959 49.6387 110.073 49.6387C113.188 49.6387 115.983 50.3727 117.982 51.5337C119.994 52.702 121.113 54.2419 121.113 55.8394Z" fill="#94D3E7" stroke="#3B51C3"/>
<path d="M121.113 57.3285C121.113 58.9425 120.057 60.4811 118.187 61.6418C116.325 62.7978 113.72 63.5292 110.817 63.5292C107.914 63.5292 105.31 62.7978 103.447 61.6418C101.577 60.4811 100.521 58.9425 100.521 57.3285C100.521 55.7144 101.577 54.1759 103.447 53.0152C105.31 51.8591 107.914 51.1277 110.817 51.1277C113.72 51.1277 116.325 51.8591 118.187 53.0152C120.057 54.1759 121.113 55.7144 121.113 57.3285Z" fill="#1985A7" stroke="#3B51C3"/>
<path d="M159.084 42.4379C159.084 44.0355 157.965 45.5754 155.953 46.7437C153.954 47.9046 151.159 48.6387 148.044 48.6387C144.93 48.6387 142.134 47.9046 140.135 46.7437C138.123 45.5754 137.004 44.0355 137.004 42.4379C137.004 40.8404 138.123 39.3005 140.135 38.1322C142.134 36.9713 144.93 36.2372 148.044 36.2372C151.159 36.2372 153.954 36.9713 155.953 38.1322C157.965 39.3005 159.084 40.8404 159.084 42.4379Z" fill="#94D3E7" stroke="#3B51C3"/>
<path d="M159.083 43.927C159.083 45.5411 158.028 47.0796 156.158 48.2403C154.295 49.3964 151.691 50.1277 148.788 50.1277C145.885 50.1277 143.28 49.3964 141.418 48.2403C139.548 47.0796 138.492 45.5411 138.492 43.927C138.492 42.313 139.548 40.7744 141.418 39.6137C143.28 38.4577 145.885 37.7263 148.788 37.7263C151.691 37.7263 154.295 38.4577 156.158 39.6137C158.028 40.7744 159.083 42.313 159.083 43.927Z" fill="#1985A7" stroke="#3B51C3"/>
<path d="M97.453 9.95429C97.4999 10.4683 97.3008 11.0257 96.807 11.6099C96.3115 12.196 95.5443 12.7762 94.5388 13.3072C92.5299 14.368 89.6605 15.1845 86.4098 15.4814C83.1592 15.7782 80.1894 15.4948 78.0215 14.8153C76.9365 14.4753 76.0769 14.0436 75.4835 13.557C74.892 13.0719 74.5952 12.5597 74.5483 12.0457C74.5013 11.5317 74.7004 10.9742 75.1943 10.3901C75.6898 9.804 76.457 9.22379 77.4625 8.69282C79.4714 7.63198 82.3408 6.81545 85.5915 6.51864C88.8421 6.22182 91.8119 6.50518 93.9797 7.18465C95.0648 7.52474 95.9244 7.9564 96.5178 8.44304C97.1093 8.92811 97.4061 9.44025 97.453 9.95429Z" fill="#94D3E7" stroke="#3B51C3"/>
<path d="M97.4979 10.4522C97.5382 10.8941 97.3641 11.3823 96.9154 11.9034C96.4652 12.426 95.7661 12.9466 94.846 13.4249C93.0083 14.3802 90.3817 15.1186 87.4051 15.3904C84.4284 15.6622 81.7116 15.4117 79.7312 14.805C78.7397 14.5013 77.9579 14.1159 77.4205 13.6835C76.8848 13.2523 76.6252 12.8037 76.5849 12.3618C76.5445 11.9198 76.7186 11.4316 77.1674 10.9106C77.6175 10.388 78.3166 9.86737 79.2367 9.38911C81.0744 8.43382 83.701 7.69536 86.6776 7.42356C89.6543 7.15177 92.3711 7.40233 94.3515 8.00899C95.343 8.31271 96.1248 8.69808 96.6622 9.13053C97.1979 9.56169 97.4575 10.0103 97.4979 10.4522Z" fill="#1985A7" stroke="#3B51C3"/>
<path d="M18.6549 72.011C15.5802 76.2387 14.8457 81.1854 14.8457 86.4719C14.8457 96.6106 15.4704 105.683 18.6549 115.464C21.3463 123.731 26.414 130.916 30.3646 138.601C34.8552 147.338 40.9487 155.181 47.894 162.127C57.4339 171.667 70.5225 177.583 83.4112 181.067C85.4391 181.615 91.4725 183.112 89.3718 183.112C85.9412 183.112 82.0228 180.422 79.1082 178.81C74.2564 176.126 69.2324 173.788 64.3652 171.05C56.4649 166.606 52.2162 160.005 46.5184 153.239C40.2724 145.821 36.6487 136.763 32.9041 127.879C29.225 119.15 25.9113 109.492 24.0513 100.192C22.7084 93.4778 20.5595 86.6366 20.5595 79.7705C20.5595 76.5492 20.5595 73.3278 20.5595 70.1064" stroke="white" stroke-linecap="round" stroke-linejoin="round"/>
<path d="M169.117 59.9486C174.627 64.1621 177.412 69.5951 179.592 76.1377C180.557 79.0302 181.814 81.3591 181.814 84.4615C181.814 89.364 181.814 94.2666 181.814 99.1692C181.814 103.937 182.413 109.126 181.18 113.771C181.021 114.368 179.533 120.23 179.945 117.757C180.687 113.304 183.278 108.77 184.495 104.389C186.04 98.8263 186.893 93.7712 186.893 87.9532C186.893 82.8703 184.693 79.5489 182.449 75.1854C180.922 72.2148 179.057 69.2373 177.018 66.6147C174.819 63.7877 172.303 61.8648 169.752 59.3138" stroke="white" stroke-linecap="round" stroke-linejoin="round"/>
<path d="M31.9862 52.3305C33.5015 49.2368 34.5257 46.2479 34.5257 42.8075C34.5257 39.3853 34.7882 43.7879 35.478 45.0295C36.4699 46.815 36.1125 49.0501 38.3349 50.2848C40.252 51.3498 42.5055 51.6956 44.6836 51.6956C45.8872 51.6956 49.9822 50.4259 46.5529 50.4259C43.1086 50.4259 41.3476 51.9989 39.2872 54.5172C37.3526 56.8818 37.0652 57.5108 37.0652 60.5837C37.0652 61.8052 38.3349 67.2865 38.3349 64.0755C38.3349 59.9843 36.083 57.4094 31.9862 57.4094C30.0344 57.4094 26.5875 57.6956 25.426 59.6314C24.9917 60.3553 27.8952 58.9453 28.1771 58.6791C29.2698 57.6471 29.4468 57.4183 29.4468 55.8222C29.4468 53.2525 27.3919 52.3496 25.4965 51.0607C24.2514 50.2141 20.4404 45.3499 23.5919 48.3802C26.5255 51.201 30.6993 52.974 34.5257 51.0607" stroke="white" stroke-linecap="round" stroke-linejoin="round"/>
</g>
<defs>
<filter id="filter0_d" x="0.228525" y="0" width="210" height="213.686" filterUnits="userSpaceOnUse" color-interpolation-filters="sRGB">
<feFlood flood-opacity="0" result="BackgroundImageFix"/>
<feColorMatrix in="SourceAlpha" type="matrix" values="0 0 0 0 0 0 0 0 0 0 0 0 0 0 0 0 0 0 127 0"/>
<feOffset dx="2.22853" dy="6.68558"/>
<feGaussianBlur stdDeviation="1.5"/>
<feColorMatrix type="matrix" values="0 0 0 0 0 0 0 0 0 0 0 0 0 0 0 0 0 0 0.25 0"/>
<feBlend mode="normal" in2="BackgroundImageFix" result="effect1_dropShadow"/>
<feBlend mode="normal" in="SourceGraphic" in2="effect1_dropShadow" result="shape"/>
</filter>
</defs>
</svg>
