<svg width="186" height="273" viewBox="0 0 186 273" fill="none" xmlns="http://www.w3.org/2000/svg">
<path d="M124.877 211.149C124.877 230.027 122.215 248.253 122.138 267.177C124.656 268.128 126.91 270.056 129.672 270.669C132.805 271.366 136.736 270.746 139.947 270.746C149.95 270.746 145.427 266.129 145.427 258.415C145.427 244.127 142.687 229.821 142.687 215.26C142.687 205.499 147.819 209.094 154.332 209.094C159.517 209.094 167.392 204.83 170.088 200.113C177.701 186.789 179.678 174.901 179.678 159.773C179.678 152.824 178.412 145.611 170.088 146.073C164.551 146.381 162.101 158.543 161.867 162.513C161.635 166.461 158.559 176.924 156.083 180.019C152.332 184.708 145.427 187.6 145.427 178.269C145.427 146.678 144.328 115.597 142.687 84.4219C142.381 78.6067 141.524 63.3174 137.207 59.0003C135.281 57.0742 128.658 58.1029 127.617 60.4465C126.069 63.9297 125.297 67.3777 123.811 70.7217C121.225 76.5397 123.507 87.6295 123.507 94.0121V120.119C123.507 127.671 124.106 135.415 122.061 142.572C120.02 149.715 109.578 142.876 108.36 138.614C107.618 136.014 105.894 100.979 100.521 105.277C90.9196 112.958 94.7362 135.025 94.7362 146.073C94.7362 163.851 105.029 168.439 118.636 176.214C129.089 182.187 124.877 200.797 124.877 211.149Z" fill="#DBFCC4"/>
<path d="M38.9907 203.33C46.8133 206.383 50.133 210.673 58.8561 208.734C68.0816 206.684 68.2304 202.358 66.4674 194.425C64.2386 184.395 64.3547 173.53 61.5962 163.599C60.1956 158.557 59.6894 150.978 59.5411 145.789C59.4009 140.879 58.1711 136.417 58.1711 131.404V121.814C58.1711 115.847 59.0323 117.875 63.6512 118.389C72.3058 119.35 77.2318 119.469 82.8316 111.234C87.9408 103.72 95.1618 97.4604 95.1618 87.1824V63.283C95.1618 55.1419 96.8642 44.8751 95.0857 36.8719C93.1589 28.2011 82.2851 27.4838 78.7215 35.5019C73.2658 47.7773 75.9815 64.4765 75.9815 77.9728C75.9815 83.8137 72.1222 89.976 68.0658 94.0325C62.9942 99.1041 55.4311 94.2298 55.4311 88.2479C55.4311 70.8316 54.061 52.5988 54.061 34.8169V23.5522C54.061 18.9939 51.321 15.1081 51.321 10.8414C51.321 3.44353 39.0235 -2.93615 37.5446 7.41636C36.861 12.2015 34.8806 15.6483 34.8806 20.8122V62.9025C34.8806 78.6659 36.2507 94.2318 36.2507 110.168C36.2507 113.729 38.3529 128.008 35.9462 130.414C31.3056 135.055 20.4966 123.262 18.7448 119.759C16.8241 115.917 14.4901 110.68 14.3302 106.363C14.1915 102.618 14.8829 99.224 12.9602 95.8592C8.34229 87.7778 2 94.9867 2 101.263C2 115.728 2.52314 129.691 16.3092 137.569C21.4439 140.503 28.0126 140.569 32.445 144.115C36.6064 147.444 37.6207 156.263 37.6207 162.229C37.6207 176.167 38.9907 189.324 38.9907 203.33Z" fill="#DBFCC4"/>
<path d="M124.877 211.149C124.877 230.027 122.215 248.253 122.138 267.177C124.656 268.128 126.91 270.056 129.672 270.669C132.805 271.366 136.736 270.746 139.947 270.746C149.95 270.746 145.427 266.129 145.427 258.415C145.427 244.127 142.687 229.821 142.687 215.26C142.687 205.499 147.819 209.094 154.332 209.094C159.517 209.094 167.392 204.83 170.088 200.113C177.701 186.789 179.678 174.901 179.678 159.773C179.678 152.824 178.412 145.611 170.088 146.073C164.551 146.381 162.101 158.543 161.867 162.513C161.635 166.461 158.559 176.924 156.083 180.019C152.332 184.708 145.427 187.6 145.427 178.269C145.427 146.678 144.328 115.597 142.687 84.4219C142.381 78.6067 141.524 63.3174 137.207 59.0003C135.281 57.0742 128.658 58.1029 127.617 60.4465C126.069 63.9297 125.297 67.3777 123.811 70.7217C121.225 76.5397 123.507 87.6295 123.507 94.0121V120.119C123.507 127.671 124.106 135.415 122.061 142.572C120.02 149.715 109.578 142.876 108.36 138.614C107.618 136.014 105.894 100.979 100.521 105.277C90.9196 112.958 94.7362 135.025 94.7362 146.073C94.7362 163.851 105.029 168.439 118.636 176.214C129.089 182.187 124.877 200.797 124.877 211.149Z" stroke="#3D32C0" stroke-width="3.99946" stroke-linecap="round" stroke-linejoin="round"/>
<path d="M38.9907 203.33C46.8133 206.383 50.133 210.673 58.8561 208.734C68.0816 206.684 68.2304 202.358 66.4674 194.425C64.2386 184.395 64.3547 173.53 61.5962 163.599C60.1956 158.557 59.6894 150.978 59.5411 145.789C59.4009 140.879 58.1711 136.417 58.1711 131.404V121.814C58.1711 115.847 59.0323 117.875 63.6512 118.389C72.3058 119.35 77.2318 119.469 82.8316 111.234C87.9408 103.72 95.1618 97.4604 95.1618 87.1824V63.283C95.1618 55.1419 96.8642 44.8751 95.0857 36.8719C93.1589 28.2011 82.2851 27.4838 78.7215 35.5019C73.2658 47.7773 75.9815 64.4765 75.9815 77.9728C75.9815 83.8137 72.1222 89.976 68.0658 94.0325C62.9942 99.1041 55.4311 94.2298 55.4311 88.2479C55.4311 70.8316 54.061 52.5988 54.061 34.8169V23.5522C54.061 18.9939 51.321 15.1081 51.321 10.8414C51.321 3.44353 39.0235 -2.93615 37.5446 7.41636C36.861 12.2015 34.8806 15.6483 34.8806 20.8122V62.9025C34.8806 78.6659 36.2507 94.2318 36.2507 110.168C36.2507 113.729 38.3529 128.008 35.9462 130.414C31.3056 135.055 20.4966 123.262 18.7448 119.759C16.8241 115.917 14.4901 110.68 14.3302 106.363C14.1915 102.618 14.8829 99.224 12.9602 95.8592C8.34229 87.7778 2 94.9867 2 101.263C2 115.728 2.52314 129.691 16.3092 137.569C21.4439 140.503 28.0126 140.569 32.445 144.115C36.6064 147.444 37.6207 156.263 37.6207 162.229C37.6207 176.167 38.9907 189.324 38.9907 203.33Z" stroke="#3D32C0" stroke-width="3.99946" stroke-linecap="round" stroke-linejoin="round"/>
<path d="M137.256 77.1469C139.222 76.0038 141.731 76.0311 143.723 75.0352" stroke="#3D32C0" stroke-linecap="round" stroke-linejoin="round"/>
<path d="M135.936 71.4711C136.55 69.8119 137.868 68.536 139.074 67.2769C139.476 66.8565 139.756 66.331 140.159 65.9277" stroke="#3D32C0" stroke-linecap="round" stroke-linejoin="round"/>
<path d="M131.051 68.5677C131.051 67.537 131.252 66.1977 130.787 65.2681" stroke="#3D32C0" stroke-linecap="round" stroke-linejoin="round"/>
<path d="M127.488 76.883C125.194 76.8498 123.17 76.4399 121.152 75.4312" stroke="#3D32C0" stroke-linecap="round" stroke-linejoin="round"/>
<path d="M127.753 88.7617C125.707 88.4029 123.747 87.7776 121.689 87.5005C120.914 87.3963 120.167 87.2892 119.438 87.0459" stroke="#3D32C0" stroke-linecap="round" stroke-linejoin="round"/>
<path d="M132.635 86.6499C132.635 85.3667 132.635 84.106 132.635 82.8223" stroke="#3D32C0" stroke-linecap="round" stroke-linejoin="round"/>
<path d="M137.123 92.5891C139.084 92.1806 141.042 91.7666 142.93 91.1372" stroke="#3D32C0" stroke-linecap="round" stroke-linejoin="round"/>
<path d="M133.031 98.1324C133.031 97.1205 133.031 96.1086 133.031 95.0967" stroke="#3D32C0" stroke-linecap="round" stroke-linejoin="round"/>
<path d="M129.599 98.1324C128.823 97.5932 128.099 97.2922 127.421 96.6146C127.233 96.4268 126.894 95.9879 126.695 95.8887" stroke="#3D32C0" stroke-linecap="round" stroke-linejoin="round"/>
<path d="M129.336 109.615C128.746 108.662 127.702 107.64 126.697 107.107C126.405 106.953 125.785 106.472 125.641 106.184" stroke="#3D32C0" stroke-linecap="round" stroke-linejoin="round"/>
<path d="M126.696 115.158C125.364 115.158 123.791 115.366 122.48 115.092C121.77 114.945 120.84 114.906 120.229 114.499" stroke="#3D32C0" stroke-linecap="round" stroke-linejoin="round"/>
<path d="M138.707 106.447C138.895 105.711 139.346 105.082 139.602 104.365C139.707 104.069 139.712 103.781 140.027 103.676" stroke="#3D32C0" stroke-linecap="round" stroke-linejoin="round"/>
<path d="M138.971 115.555C140.749 114.939 142.406 114.015 144.155 113.333C144.612 113.154 145.206 113.114 145.438 112.651" stroke="#3D32C0" stroke-linecap="round" stroke-linejoin="round"/>
<path d="M139.764 122.022C140.253 121.777 140.748 121.464 141.216 121.23" stroke="#3D32C0" stroke-linecap="round" stroke-linejoin="round"/>
<path d="M134.352 117.931C134.352 116.874 134.434 115.953 134.645 114.924C134.721 114.552 134.785 113.49 135.143 113.311" stroke="#3D32C0" stroke-linecap="round" stroke-linejoin="round"/>
<path d="M131.711 123.474C131.488 123.044 131.182 122.262 130.685 122.052C130.451 121.953 130.303 121.812 130.128 121.626C129.953 121.442 129.708 121.183 129.6 120.966" stroke="#3D32C0" stroke-linecap="round" stroke-linejoin="round"/>
<path d="M127.224 131.129C126.126 130.088 124.788 129.277 123.69 128.254C123.225 127.821 122.556 127.426 122.209 126.905" stroke="#3D32C0" stroke-linecap="round" stroke-linejoin="round"/>
<path d="M135.803 135.22C135.803 133.725 135.803 132.229 135.803 130.733" stroke="#3D32C0" stroke-linecap="round" stroke-linejoin="round"/>
<path d="M139.367 132.317C140.48 131.182 141.633 130.146 142.769 129.046C143.262 128.569 143.907 128.001 144.515 127.697" stroke="#3D32C0" stroke-linecap="round" stroke-linejoin="round"/>
<path d="M141.215 138.52C143.318 137.81 145.495 137.093 147.55 136.408" stroke="#3D32C0" stroke-linecap="round" stroke-linejoin="round"/>
<path d="M140.555 146.967C140.784 145.948 142.33 144.063 143.458 144.063" stroke="#3D32C0" stroke-linecap="round" stroke-linejoin="round"/>
<path d="M129.204 141.424C128.525 140.445 127.299 140.08 126.725 139.048C126.618 138.855 126.338 138.473 126.168 138.388" stroke="#3D32C0" stroke-linecap="round" stroke-linejoin="round"/>
<path d="M124.188 150.135C123.953 149.013 123.385 148.013 122.575 147.202C122.095 146.723 121.37 146.169 121.152 145.516" stroke="#3D32C0" stroke-linecap="round" stroke-linejoin="round"/>
<path d="M132.768 148.815C132.539 148.14 132.318 147.518 131.815 146.997C131.585 146.758 131.421 146.49 131.316 146.175" stroke="#3D32C0" stroke-linecap="round" stroke-linejoin="round"/>
<path d="M136.859 143.799C136.859 142.744 136.859 141.688 136.859 140.632" stroke="#3D32C0" stroke-linecap="round" stroke-linejoin="round"/>
<path d="M134.879 161.618C134.879 159.752 135.758 157.615 136.595 155.942" stroke="#3D32C0" stroke-linecap="round" stroke-linejoin="round"/>
<path d="M140.555 158.714C141.598 157.976 142.856 157.246 144.096 156.874C144.426 156.775 144.709 156.47 145.042 156.47" stroke="#3D32C0" stroke-linecap="round" stroke-linejoin="round"/>
<path d="M145.834 149.475C146.795 148.834 147.747 148.202 148.664 147.503C148.958 147.279 149.182 147.083 149.53 146.967" stroke="#3D32C0" stroke-linecap="round" stroke-linejoin="round"/>
<path d="M129.468 161.618C129.262 160.657 128.773 160.095 128.346 159.242C128.146 158.842 128 158.426 127.752 158.054" stroke="#3D32C0" stroke-linecap="round" stroke-linejoin="round"/>
<path d="M115.082 149.739C115.082 147.759 115.082 145.78 115.082 143.8" stroke="#3D32C0" stroke-linecap="round" stroke-linejoin="round"/>
<path d="M108.746 143.536C109.704 142.986 110.754 142.498 111.679 141.922C112.22 141.586 112.576 140.982 113.102 140.632" stroke="#3D32C0" stroke-linecap="round" stroke-linejoin="round"/>
<path d="M105.051 139.312C105.051 138.64 105.035 135.888 105.843 135.484" stroke="#3D32C0" stroke-linecap="round" stroke-linejoin="round"/>
<path d="M105.447 129.941C106.276 128.897 107.458 128.372 108.476 127.558C109.002 127.137 109.462 126.586 109.935 126.113" stroke="#3D32C0" stroke-linecap="round" stroke-linejoin="round"/>
<path d="M105.975 121.23C106.012 119.568 106.91 118.137 107.353 116.566C107.475 116.134 107.552 115.705 107.69 115.291" stroke="#3D32C0" stroke-linecap="round" stroke-linejoin="round"/>
<path d="M101.619 118.986C101.655 117.911 102.106 117.033 102.338 116.002C102.617 114.757 102.757 113.491 103.13 112.27C103.304 111.697 103.731 110.748 103.731 110.143" stroke="#3D32C0" stroke-linecap="round" stroke-linejoin="round"/>
<path d="M99.5073 120.306C97.6377 119.172 95.7507 118.099 93.8612 117.006C93.3405 116.705 92.8147 116.403 92.248 116.214" stroke="#3D32C0" stroke-linecap="round" stroke-linejoin="round"/>
<path d="M99.6396 132.581C97.7848 131.492 95.8451 130.471 93.7663 129.882C92.8858 129.633 91.7386 129.563 91.0605 128.885" stroke="#3D32C0" stroke-linecap="round" stroke-linejoin="round"/>
<path d="M96.9998 138.652C95.7241 138.136 94.5152 137.392 93.1942 137.009C92.8208 136.901 92.1705 136.78 91.9844 136.408" stroke="#3D32C0" stroke-linecap="round" stroke-linejoin="round"/>
<path d="M101.695 148.857C101.695 147.017 101.43 145.778 100.903 144.094C100.762 143.64 100.702 142.479 100.338 142.297" stroke="#3D32C0" stroke-linecap="round" stroke-linejoin="round"/>
<path d="M100.337 152.476C98.634 152.476 97.0145 152.19 95.4111 151.571C94.5488 151.238 93.5753 150.666 92.6465 150.666" stroke="#3D32C0" stroke-linecap="round" stroke-linejoin="round"/>
<path d="M101.921 157.904C99.2818 157.904 96.6429 157.904 94.0039 157.904" stroke="#3D32C0" stroke-linecap="round" stroke-linejoin="round"/>
<path d="M109.612 154.059C109.581 152.466 109.048 151.724 108.494 150.339C108.279 149.801 107.803 149.446 107.803 148.856" stroke="#3D32C0" stroke-linecap="round" stroke-linejoin="round"/>
<path d="M108.708 162.881C107.2 162.881 105.692 162.881 104.184 162.881" stroke="#3D32C0" stroke-linecap="round" stroke-linejoin="round"/>
<path d="M115.04 166.953C112.551 168.221 110.507 169.748 108.254 171.25" stroke="#3D32C0" stroke-linecap="round" stroke-linejoin="round"/>
<path d="M115.267 160.619C114.539 159.193 113.042 157.79 112.553 156.321" stroke="#3D32C0" stroke-linecap="round" stroke-linejoin="round"/>
<path d="M123.636 162.202C123.636 160.742 123.715 159.327 123.359 157.904C123.24 157.429 123.363 156.298 122.957 156.095" stroke="#3D32C0" stroke-linecap="round" stroke-linejoin="round"/>
<path d="M122.731 171.024C121.855 170.294 120.695 169.343 120.695 168.083" stroke="#3D32C0" stroke-linecap="round" stroke-linejoin="round"/>
<path d="M117.528 171.929C116.741 171.929 113.48 171.654 113.004 172.607" stroke="#3D32C0" stroke-linecap="round" stroke-linejoin="round"/>
<path d="M124.541 175.322C123.441 177.099 121.92 179.815 119.791 180.524" stroke="#3D32C0" stroke-linecap="round" stroke-linejoin="round"/>
<path d="M128.839 171.929C128.566 170.536 127.84 169.477 127.256 168.31" stroke="#3D32C0" stroke-linecap="round" stroke-linejoin="round"/>
<path d="M133.588 170.572C133.588 169.441 133.588 168.31 133.588 167.179" stroke="#3D32C0" stroke-linecap="round" stroke-linejoin="round"/>
<path d="M138.564 173.964C139.24 173.007 140.237 171.436 140.6 170.345" stroke="#3D32C0" stroke-linecap="round" stroke-linejoin="round"/>
<path d="M140.375 166.5C141.458 166.236 142.427 165.81 143.316 165.143" stroke="#3D32C0" stroke-linecap="round" stroke-linejoin="round"/>
<path d="M145.578 166.726C146.536 166.061 147.655 165.63 148.393 164.691C148.751 164.235 149.094 163.745 149.65 163.56" stroke="#3D32C0" stroke-linecap="round" stroke-linejoin="round"/>
<path d="M145.352 160.393C146.588 159.47 148.037 157.919 149.423 157.226" stroke="#3D32C0" stroke-linecap="round" stroke-linejoin="round"/>
<path d="M144.445 180.75C145.066 178.92 145.826 177.44 146.795 175.799C147.076 175.325 147.284 174.544 147.725 174.191C148.212 173.801 149.172 173.333 149.422 172.833" stroke="#3D32C0" stroke-linecap="round" stroke-linejoin="round"/>
<path d="M143.314 100.677C144.547 99.7611 146.378 98.4493 147.838 97.9624" stroke="#3D32C0" stroke-linecap="round" stroke-linejoin="round"/>
<path d="M154.174 184.822C153.054 183.67 152.153 182.328 151.007 181.203C150.452 180.658 149.739 180.387 149.197 179.846" stroke="#3D32C0" stroke-linecap="round" stroke-linejoin="round"/>
<path d="M158.019 181.429C156.991 180.034 156.061 178.417 155.305 176.905" stroke="#3D32C0" stroke-linecap="round" stroke-linejoin="round"/>
<path d="M160.959 176C160.959 174.869 160.959 173.738 160.959 172.607" stroke="#3D32C0" stroke-linecap="round" stroke-linejoin="round"/>
<path d="M168.876 168.309C168.231 167.361 167.382 166.76 166.74 165.934C166.424 165.529 166.46 165.091 165.936 164.917" stroke="#3D32C0" stroke-linecap="round" stroke-linejoin="round"/>
<path d="M162.09 166.274C160.415 165.985 159.987 165.197 158.697 164.515C158.33 164.32 157.749 164.152 157.566 163.786" stroke="#3D32C0" stroke-linecap="round" stroke-linejoin="round"/>
<path d="M165.935 158.583C164.648 158.11 163.714 157.263 162.894 156.208C162.327 155.479 161.865 154.135 160.959 153.833" stroke="#3D32C0" stroke-linecap="round" stroke-linejoin="round"/>
<path d="M170.911 151.797C170.879 150.151 170.43 148.599 169.893 147.047C169.641 146.317 169.102 145.342 169.102 144.559" stroke="#3D32C0" stroke-linecap="round" stroke-linejoin="round"/>
<path d="M174.305 152.928C175.549 150.724 177.306 148.672 178.364 146.381C178.589 145.893 178.793 145.029 179.281 144.785" stroke="#3D32C0" stroke-linecap="round" stroke-linejoin="round"/>
<path d="M178.15 155.417C179.414 155.36 181.32 155.076 182.448 154.512" stroke="#3D32C0" stroke-linecap="round" stroke-linejoin="round"/>
<path d="M171.59 165.369C171.893 163.245 172.564 161.437 173.399 159.488" stroke="#3D32C0" stroke-linecap="round" stroke-linejoin="round"/>
<path d="M171.137 158.131C171.137 157.226 171.137 156.321 171.137 155.417" stroke="#3D32C0" stroke-linecap="round" stroke-linejoin="round"/>
<path d="M175.887 165.821C177.78 164.748 179.958 163.107 182.22 163.107" stroke="#3D32C0" stroke-linecap="round" stroke-linejoin="round"/>
<path d="M179.055 172.381C180.945 171.608 183.054 169.893 185.162 169.893" stroke="#3D32C0" stroke-linecap="round" stroke-linejoin="round"/>
<path d="M173.852 175.322C173.925 173.587 174.441 171.97 174.983 170.345" stroke="#3D32C0" stroke-linecap="round" stroke-linejoin="round"/>
<path d="M169.102 182.56C169.102 180.449 169.102 178.338 169.102 176.227" stroke="#3D32C0" stroke-linecap="round" stroke-linejoin="round"/>
<path d="M166.388 176C166.388 174.563 166.792 172.058 166.162 170.798" stroke="#3D32C0" stroke-linecap="round" stroke-linejoin="round"/>
<path d="M173.174 182.56C174.266 181.784 175.453 181.181 176.554 180.424C176.864 180.211 177.328 180.133 177.472 179.846" stroke="#3D32C0" stroke-linecap="round" stroke-linejoin="round"/>
<path d="M174.982 187.763C176.326 187.763 177.479 187.649 178.778 187.36C179.244 187.257 179.706 187.084 180.185 187.084" stroke="#3D32C0" stroke-linecap="round" stroke-linejoin="round"/>
<path d="M167.971 193.191C168.259 192.112 169.025 190.201 170.233 189.798" stroke="#3D32C0" stroke-linecap="round" stroke-linejoin="round"/>
<path d="M164.352 189.798C164.352 187.536 164.352 185.274 164.352 183.012" stroke="#3D32C0" stroke-linecap="round" stroke-linejoin="round"/>
<path d="M160.279 190.025C160.279 189.044 160.279 188.064 160.279 187.084" stroke="#3D32C0" stroke-linecap="round" stroke-linejoin="round"/>
<path d="M154.851 193.87C154.834 192.883 154.616 189.455 153.494 188.894" stroke="#3D32C0" stroke-linecap="round" stroke-linejoin="round"/>
<path d="M148.066 189.12C148.066 187.084 148.066 185.048 148.066 183.012" stroke="#3D32C0" stroke-linecap="round" stroke-linejoin="round"/>
<path d="M166.84 198.394C169.101 198.143 171.355 198.168 173.626 198.168C174.051 198.168 174.783 198.34 174.983 197.941" stroke="#3D32C0" stroke-linecap="round" stroke-linejoin="round"/>
<path d="M160.732 198.846C160.805 197.126 161.332 195.689 161.863 194.096" stroke="#3D32C0" stroke-linecap="round" stroke-linejoin="round"/>
<path d="M163.447 199.525C164.653 199.548 165.919 199.595 167.066 199.977" stroke="#3D32C0" stroke-linecap="round" stroke-linejoin="round"/>
<path d="M158.697 203.823C160.072 204.875 161.641 205.635 162.869 206.864C163.186 207.181 163.529 207.709 163.9 207.894" stroke="#3D32C0" stroke-linecap="round" stroke-linejoin="round"/>
<path d="M151.91 203.144C153 202.641 154.13 202.487 155.077 202.013" stroke="#3D32C0" stroke-linecap="round" stroke-linejoin="round"/>
<path d="M155.305 199.751C155.393 198.25 156.229 197.431 156.662 196.132" stroke="#3D32C0" stroke-linecap="round" stroke-linejoin="round"/>
<path d="M128.839 186.858C127.802 186.726 122.705 186.805 122.053 185.5" stroke="#3D32C0" stroke-linecap="round" stroke-linejoin="round"/>
<path d="M129.291 182.108C128.227 181.88 127.644 181.537 126.803 180.977" stroke="#3D32C0" stroke-linecap="round" stroke-linejoin="round"/>
<path d="M134.267 180.072C133.498 178.818 132.419 177.506 131.779 176.227" stroke="#3D32C0" stroke-linecap="round" stroke-linejoin="round"/>
<path d="M138.113 186.631C138.113 184.822 138.113 183.012 138.113 181.203" stroke="#3D32C0" stroke-linecap="round" stroke-linejoin="round"/>
<path d="M139.695 189.798C140.076 189.052 140.761 187.456 141.505 187.084" stroke="#3D32C0" stroke-linecap="round" stroke-linejoin="round"/>
<path d="M146.481 194.775C145.203 193.424 144.601 191.537 143.314 190.251" stroke="#3D32C0" stroke-linecap="round" stroke-linejoin="round"/>
<path d="M148.971 199.751C149.246 198.255 150.135 196.97 150.78 195.68" stroke="#3D32C0" stroke-linecap="round" stroke-linejoin="round"/>
<path d="M137.66 204.501C137.695 202.282 138.156 200.342 138.741 198.218C138.944 197.481 139.244 196.68 139.244 195.906" stroke="#3D32C0" stroke-linecap="round" stroke-linejoin="round"/>
<path d="M136.303 197.263C135.792 195.399 135.391 193.474 134.72 191.658C134.549 191.194 134.268 190.748 134.268 190.251" stroke="#3D32C0" stroke-linecap="round" stroke-linejoin="round"/>
<path d="M131.779 197.489C130.322 197.489 127.555 197.409 126.803 195.906" stroke="#3D32C0" stroke-linecap="round" stroke-linejoin="round"/>
<path d="M133.814 186.179C133.4 185.5 133.023 184.709 132.457 184.144" stroke="#3D32C0" stroke-linecap="round" stroke-linejoin="round"/>
<path d="M143.314 202.239C143.682 201.636 143.978 200.887 144.672 200.656" stroke="#3D32C0" stroke-linecap="round" stroke-linejoin="round"/>
<path d="M147.613 204.275C148.971 205.101 151.497 206.068 152.137 207.668" stroke="#3D32C0" stroke-linecap="round" stroke-linejoin="round"/>
<path d="M139.018 211.061C141.656 211.061 144.338 210.834 146.934 210.834" stroke="#3D32C0" stroke-linecap="round" stroke-linejoin="round"/>
<path d="M140.375 208.799C141.499 208.096 143.05 206.989 144.447 206.989" stroke="#3D32C0" stroke-linecap="round" stroke-linejoin="round"/>
<path d="M127.256 204.501C125.694 203.62 124.115 202.917 122.958 201.51C122.459 200.903 121.834 199.868 121.148 199.525" stroke="#3D32C0" stroke-linecap="round" stroke-linejoin="round"/>
<path d="M131.778 215.132C130.569 213.956 129.196 213.016 127.883 211.966C127.395 211.576 126.86 210.864 126.35 210.608" stroke="#3D32C0" stroke-linecap="round" stroke-linejoin="round"/>
<path d="M127.933 221.014C127.494 220.68 127.093 220.281 126.576 220.109" stroke="#3D32C0" stroke-linecap="round" stroke-linejoin="round"/>
<path d="M126.576 220.109C125.701 218.184 124.08 217.16 122.643 215.723C122.199 215.279 121.6 214.897 121.6 214.228" stroke="#3D32C0" stroke-linecap="round" stroke-linejoin="round"/>
<path d="M130.874 208.573C130.289 207.785 129.602 207.017 129.291 206.084" stroke="#3D32C0" stroke-linecap="round" stroke-linejoin="round"/>
<path d="M133.137 205.406C132.66 204.171 132.254 203.527 131.554 202.516C131.333 202.197 131.027 201.865 130.875 201.561" stroke="#3D32C0" stroke-linecap="round" stroke-linejoin="round"/>
<path d="M135.398 219.204C135.398 216.867 135.398 214.529 135.398 212.192" stroke="#3D32C0" stroke-linecap="round" stroke-linejoin="round"/>
<path d="M136.982 218.073C138.349 217.492 139.738 216.84 140.828 215.811C141.251 215.411 141.635 215.27 142.185 215.132" stroke="#3D32C0" stroke-linecap="round" stroke-linejoin="round"/>
<path d="M139.695 225.085C140.857 224.108 142.753 221.918 144.445 221.918" stroke="#3D32C0" stroke-linecap="round" stroke-linejoin="round"/>
<path d="M142.863 228.704C144.335 227.268 146.851 224.407 149.197 224.407" stroke="#3D32C0" stroke-linecap="round" stroke-linejoin="round"/>
<path d="M136.076 232.776C136.103 230.882 136.108 228.317 137.207 226.668" stroke="#3D32C0" stroke-linecap="round" stroke-linejoin="round"/>
<path d="M132.459 232.323C132.459 230.349 132.867 227.892 132.232 225.99" stroke="#3D32C0" stroke-linecap="round" stroke-linejoin="round"/>
<path d="M129.292 233.002C127.751 232.035 126.593 230.408 124.994 229.609" stroke="#3D32C0" stroke-linecap="round" stroke-linejoin="round"/>
<path d="M131.101 223.049C131.047 221.82 130.648 220.659 130.648 219.43" stroke="#3D32C0" stroke-linecap="round" stroke-linejoin="round"/>
<path d="M138.34 239.109C139.112 237.907 140.259 235.529 141.733 235.038" stroke="#3D32C0" stroke-linecap="round" stroke-linejoin="round"/>
<path d="M139.244 247.026C140.939 244.508 143.151 242.619 145.804 241.145" stroke="#3D32C0" stroke-linecap="round" stroke-linejoin="round"/>
<path d="M133.588 247.252C133.588 245.387 133.604 243.532 133.764 241.673C133.807 241.173 133.773 240.866 134.04 240.466" stroke="#3D32C0" stroke-linecap="round" stroke-linejoin="round"/>
<path d="M129.292 240.919C128.934 239.637 128.395 238.835 127.759 237.752C127.6 237.482 127.389 237.566 127.256 237.3" stroke="#3D32C0" stroke-linecap="round" stroke-linejoin="round"/>
<path d="M124.994 242.728C123.563 241.386 121.925 240.313 120.344 239.16C119.89 238.828 119.467 238.431 118.887 238.431" stroke="#3D32C0" stroke-linecap="round" stroke-linejoin="round"/>
<path d="M127.256 252.229C125.905 250.619 124.273 249.232 122.971 247.604C122.536 247.061 122.047 246.345 121.375 246.122" stroke="#3D32C0" stroke-linecap="round" stroke-linejoin="round"/>
<path d="M123.862 256.753C121.064 254.731 118.703 252.261 115.945 250.193" stroke="#3D32C0" stroke-linecap="round" stroke-linejoin="round"/>
<path d="M129.744 262.86C128.99 262.86 128.236 262.86 127.482 262.86" stroke="#3D32C0" stroke-linecap="round" stroke-linejoin="round"/>
<path d="M134.494 259.015C133.832 258.224 133.021 257.564 132.458 256.703C132.247 256.381 132.103 256.01 131.779 255.848" stroke="#3D32C0" stroke-linecap="round" stroke-linejoin="round"/>
<path d="M137.207 254.491C137.901 253.306 138.588 251.931 139.017 250.646" stroke="#3D32C0" stroke-linecap="round" stroke-linejoin="round"/>
<path d="M139.471 261.05C140.992 258.829 143.213 255.421 146.03 254.717" stroke="#3D32C0" stroke-linecap="round" stroke-linejoin="round"/>
<path d="M140.826 266.253C142.409 264.958 143.993 263.765 145.803 262.86" stroke="#3D32C0" stroke-linecap="round" stroke-linejoin="round"/>
</svg>
