<svg width="247" height="168" viewBox="0 0 247 168" fill="none" xmlns="http://www.w3.org/2000/svg">
<g filter="url(#filter0_d)">
<path d="M25.8218 1C23.8136 4.59793 23.4188 8.65604 21.7613 12.3394C20.3666 15.4388 19.1232 18.6748 17.9714 21.8741C15.3686 29.1043 13.5965 36.5516 10.2414 43.5303C8.64984 46.8407 8.03927 51.2747 7.41404 54.8697C6.8229 58.2688 5.61551 61.6522 4.97772 65.0963C4.31016 68.7011 2.5414 72.0206 2.5414 75.7439C2.5414 79.7464 2 83.6561 2 87.6247C2 100.448 2.39388 113.248 6.33124 125.523C7.52667 129.25 8.27344 133.872 9.27344 140.372C10.2414 146.096 9.49734 144.372 10.2414 147.721C10.7544 150.029 13.2779 147.311 15.7457 147.691C17.0642 147.893 18.5325 147.721 19.8663 147.721C22.1369 147.721 24.1687 149.114 26.3632 149.345C31.1049 149.844 35.5407 151.51 40.4397 151.51C46.146 151.51 52.4602 151.859 57.885 149.886C61.4523 148.589 65.1693 148.176 68.4724 146.096C70.9206 144.555 71.2998 145.307 71.2998 142.006C71.2998 132.757 69.6756 123.605 69.6756 114.454C69.6756 111.793 69.482 109.152 69.0395 106.574C71.0043 106.574 76.9128 106.458 78.8793 106.574C79.9655 106.638 80.9981 107.477 82.3683 107.085C86.7163 109.803 87.6714 113.815 90.2482 117.823C92.4828 121.299 94.9614 124.453 96.7451 128.23C99.9713 135.062 99.2491 143.491 100.565 150.728C100.978 152.998 101.37 155.088 102.189 157.135C102.285 157.375 106.895 153.87 107.573 153.676C109.621 153.091 111.157 151.264 113.108 150.428C122.029 146.604 131.146 143.663 140.87 142.818C150 142.024 156.778 141 166 141C166.79 139.735 165.959 133.757 165.383 132.441C165.985 133.946 164.718 130.922 165.383 132.441C162.564 125.392 159.7 118.023 157.623 110.604C156.874 107.93 155.615 105.205 154.375 102.724C152.969 99.912 152.436 96.9948 151.156 94.1516C148.856 89.0411 149.397 83.2652 148.6 77.8794C147.073 67.5755 147.637 56.7959 147.637 46.3576C147.637 37.9661 148.539 29.1497 146.284 21.0319C145.541 18.3571 145.2 15.3937 144.96 12.6402C144.894 11.8758 144.786 9.11384 144.118 8.57965C143.008 7.69163 140.755 12.7652 139.516 12.9109C137.057 13.2001 133.671 14.5391 131.395 15.4976C130.134 16.0286 128.342 16.1142 126.943 16.5804C124.549 17.3784 122.223 17.0252 119.785 17.5128C112.494 18.971 104.031 18.7942 96.7451 17.7534C89.1501 16.6684 81.2776 16.4451 73.7655 14.4148C63.4889 11.6373 53.7393 7.66971 43.6574 4.51911C40.6201 3.56998 37.3621 2.6242 34.2129 2.6242C31.7876 2.6242 28.1094 1 25.8218 1Z" fill="#6D4CF2"/>
<path d="M69.6756 114.454C69.6756 123.605 71.2998 132.757 71.2998 142.006C71.2998 145.307 70.9206 144.555 68.4724 146.096C65.1693 148.176 61.4523 148.589 57.885 149.886C52.4602 151.859 46.146 151.51 40.4397 151.51C35.5407 151.51 31.1049 149.844 26.3632 149.345C24.1687 149.114 22.1369 147.721 19.8663 147.721C18.5325 147.721 17.0642 147.893 15.7457 147.691C13.2779 147.311 10.7544 150.029 10.2414 147.721C9.49734 144.372 10.2414 146.096 9.27344 140.372C8.27344 133.872 7.52667 129.25 6.33124 125.523C2.39388 113.248 2 100.448 2 87.6247C2 83.6561 2.5414 79.7464 2.5414 75.7439C2.5414 72.0206 4.31016 68.7011 4.97772 65.0963C5.61551 61.6522 6.8229 58.2688 7.41404 54.8697C8.03927 51.2747 8.64984 46.8407 10.2414 43.5303C13.5965 36.5516 15.3686 29.1043 17.9714 21.8741C19.1232 18.6748 20.3666 15.4388 21.7613 12.3394C23.4188 8.65604 23.8136 4.59793 25.8218 1C28.1094 1 31.7876 2.6242 34.2129 2.6242C37.3621 2.6242 40.6201 3.56998 43.6574 4.51911C53.7393 7.66971 63.4889 11.6373 73.7655 14.4148C81.2776 16.4451 89.1501 16.6684 96.7451 17.7534C104.031 18.7942 112.494 18.971 119.785 17.5128C122.223 17.0252 124.549 17.3784 126.943 16.5804C128.342 16.1142 130.134 16.0286 131.395 15.4976C133.671 14.5391 137.057 13.2001 139.516 12.9109C140.755 12.7652 143.008 7.69163 144.118 8.57965C144.786 9.11384 144.894 11.8758 144.96 12.6402C145.2 15.3937 145.541 18.3571 146.284 21.0319C148.539 29.1497 147.637 37.9661 147.637 46.3576C147.637 56.7959 147.073 67.5755 148.6 77.8794C149.397 83.2652 148.856 89.0411 151.156 94.1516C152.436 96.9948 152.969 99.912 154.375 102.724C155.615 105.205 156.874 107.93 157.623 110.604C159.7 118.023 162.564 125.392 165.383 132.441M69.6756 114.454C69.6756 106.592 67.9864 98.9076 63.1787 92.4973M69.6756 114.454C69.6756 111.793 69.482 109.152 69.0395 106.574C71.0043 106.574 76.9128 106.458 78.8793 106.574C79.9655 106.638 80.9981 107.477 82.3683 107.085M82.3683 107.085C83.3071 106.817 85.0386 102.172 85.3761 101.16M82.3683 107.085C86.7163 109.803 87.6714 113.815 90.2482 117.823C92.4828 121.299 94.9614 124.453 96.7451 128.23C99.9713 135.062 99.2491 143.491 100.565 150.728C100.978 152.998 101.37 155.088 102.189 157.135C102.285 157.375 106.895 153.87 107.573 153.676C109.621 153.091 111.157 151.264 113.108 150.428C122.029 146.604 131.146 143.663 140.87 142.818C150 142.024 156.778 141 166 141C166.79 139.735 165.959 133.757 165.383 132.441M165.383 132.441C164.718 130.922 165.985 133.946 165.383 132.441ZM19.8652 17.7835C24.402 20.0982 28.8938 22.0271 33.4003 24.2804C38.0817 26.621 43.0739 30.4117 48.289 31.3186C51.0773 31.8035 53.8816 32.8622 56.6807 33.4842C60.1032 34.2448 63.6395 34.3612 67.0877 34.9881C73.245 36.1076 80.0036 36.7815 86.2474 37.244C93.0843 37.7504 100.142 37.2741 107.001 37.2741C113.733 37.2741 120.703 36.9083 127.184 34.9881C131.565 33.6901 136.11 32.2197 140.027 29.935C141.647 28.99 145.222 26.9441 146.012 25.3632" stroke="#3D32C0" stroke-linecap="round" stroke-linejoin="round"/>
</g>
<path d="M40.5 28.5L6 59L7.5 52.5L36 25.5L40.5 28.5Z" fill="#6BB9E5"/>
<path d="M59.5 34L2 86.5V95.5L66 35.5L59.5 34Z" fill="#6BB9E5"/>
<path d="M119 37L147.5 69V62L126 35.5L119 37Z" fill="#6BB9E5"/>
<path d="M140 30L147.5 40.5V34.5L143 28.5L140 30Z" fill="#6BB9E5"/>
<path d="M40.5 28.5L6 59L7.5 52.5L36 25.5L40.5 28.5Z" stroke="#3D32C0"/>
<path d="M59.5 34L2 86.5V95.5L66 35.5L59.5 34Z" stroke="#3D32C0"/>
<path d="M119 37L147.5 69V62L126 35.5L119 37Z" stroke="#3D32C0"/>
<path d="M140 30L147.5 40.5V34.5L143 28.5L140 30Z" stroke="#3D32C0"/>
<path d="M53.5 33L2 78.5L3.5 69L47 31L53.5 33Z" fill="#FBB198"/>
<path d="M130.5 34.5L147.5 55V47.5L136 32L130.5 34.5Z" fill="#FBB198"/>
<path d="M2 86.5V95.5M53.5 33L2 78.5L3.5 69L47 31L53.5 33ZM40.5 28.5L6 59L7.5 52.5L36 25.5L40.5 28.5ZM119 37L147.5 69V62L126 35.5L119 37ZM130.5 34.5L147.5 55V47.5L136 32L130.5 34.5ZM140 30L147.5 40.5V34.5L143 28.5L140 30Z" stroke="#3D32C0" stroke-width="0.5"/>
<path d="M169.672 20.0235C169.158 22.9339 168.225 25.7301 167.561 28.6008C167.297 29.7399 166.356 33.4846 167.383 34.5117C168.401 35.5294 170.503 34.3426 171.138 33.4673C172.043 32.2204 172.262 30.2084 170.983 29.2341C170.415 28.8015 168.502 28.0231 169.216 28.0231C171.609 28.0231 173.151 28.3419 174.027 25.5788C175.19 21.9124 172.42 18.4236 168.672 18.4236" stroke="#3D32C0" stroke-linecap="round" stroke-linejoin="round"/>
<path d="M182.27 25.2232C179.836 25.1773 177.836 24.5741 176.27 26.9231C175.459 28.1399 174.697 28.8445 174.903 30.4229C175.142 32.2556 177.293 32.9607 178.514 31.6229C179.71 30.3127 180.389 28.7152 181.314 27.2231C181.717 26.5732 182.647 24.5919 182.647 25.3565C182.647 26.5566 181.914 27.9396 181.77 29.1786C181.603 30.6075 181.409 31.9621 182.469 33.0228" stroke="#3D32C0" stroke-linecap="round" stroke-linejoin="round"/>
<path d="M190.47 27.623C189.599 27.623 187.47 27.8726 187.47 29.223C187.47 29.6803 188.082 29.8902 188.37 30.134C188.977 30.6471 189.52 31.4706 189.759 32.2228C190.035 33.0896 190.811 35.0863 189.37 35.2116C188.433 35.2931 186.534 34.9492 186.07 34.0227" stroke="#3D32C0" stroke-linecap="round" stroke-linejoin="round"/>
<path d="M195.87 29.2229C195.477 31.6582 194.433 33.7327 193.67 36.0226" stroke="#3D32C0" stroke-linecap="round" stroke-linejoin="round"/>
<path d="M202.87 32.0228C200.767 32.0228 198.849 31.5167 198.515 34.0671C198.4 34.9405 198.134 37.2152 198.915 37.8225C199.492 38.2714 200.186 38.2225 200.87 38.2225" stroke="#3D32C0" stroke-linecap="round" stroke-linejoin="round"/>
<path d="M208.868 35.2228C207.166 35.2228 205.967 35.0603 205.269 36.8671C204.497 38.8643 205.886 40.6193 207.968 39.4003C209.056 38.7639 209.806 38.1054 210.024 36.8227C210.056 36.6367 210.311 35.3538 210.246 35.7116C209.98 37.1735 208.842 40.3959 210.068 41.6224" stroke="#3D32C0" stroke-linecap="round" stroke-linejoin="round"/>
<path d="M215.269 38.2224C214.895 39.637 214.43 41.0208 213.98 42.4111C213.84 42.8445 213.385 43.5447 213.469 44.0221C213.54 44.4199 216.285 45.422 216.869 45.422" stroke="#3D32C0" stroke-linecap="round" stroke-linejoin="round"/>
<path d="M222.068 41.2224C221.573 42.7367 221.081 44.2124 220.424 45.6666C220.195 46.1732 219.234 47.0447 219.268 47.6221C219.284 47.8798 222.357 48.6809 222.868 49.022" stroke="#3D32C0" stroke-linecap="round" stroke-linejoin="round"/>
<path d="M226.068 43.6223C226.17 45.9543 227.6 47.2165 228.268 49.222" stroke="#3D32C0" stroke-linecap="round" stroke-linejoin="round"/>
<path d="M232.068 47.022C229.701 48.4528 227.605 50.285 225.668 52.2217" stroke="#3D32C0" stroke-linecap="round" stroke-linejoin="round"/>
<path d="M171.271 44.8221C171.004 46.3372 167.26 55.9293 168.716 56.3771C170.263 56.8531 173.143 55.2318 174.027 54.0216C174.881 52.8508 174.144 51.1199 173.115 50.4218C172.732 50.1616 172.462 49.8218 171.982 49.8218C171.713 49.8218 171.304 49.8196 171.116 49.5774C171.072 49.5213 172.967 49.3596 173.16 49.2996C173.986 49.0433 174.822 48.2329 175.026 47.3775C175.376 45.9161 175.613 44.7655 174.227 43.9777C173.321 43.463 172.301 43.2222 171.271 43.2222" stroke="#3D32C0" stroke-linecap="round" stroke-linejoin="round"/>
<path d="M180.471 47.2219C179.347 50.5291 177.561 53.5507 176.471 56.8214" stroke="#3D32C0" stroke-linecap="round" stroke-linejoin="round"/>
<path d="M184.67 49.822C184.601 53.9617 181.943 57.603 180.67 61.4214" stroke="#3D32C0" stroke-linecap="round" stroke-linejoin="round"/>
<path d="M188.87 52.8218C187.519 53.8254 185.998 54.5575 184.681 55.6105C184.447 55.7985 183.178 56.4142 183.27 56.466C184.373 57.0863 185.57 58.9406 185.848 60.0881C186.031 60.8428 186.133 61.7458 186.47 62.4213" stroke="#3D32C0" stroke-linecap="round" stroke-linejoin="round"/>
<path d="M191.071 57.6214C192.586 57.6558 193.907 58.1635 195.27 58.7769C195.881 59.0516 196.091 58.7153 196.07 58.1769C195.992 56.1388 193.854 56.0215 192.371 56.0215C190.691 56.0215 190.471 58.1023 190.471 59.4324C190.471 62.0182 190.933 64.2211 193.871 64.2211" stroke="#3D32C0" stroke-linecap="round" stroke-linejoin="round"/>
<path d="M214.469 62.6214C213.747 61.6681 211.809 60.399 210.781 61.7214C210.379 62.2376 210.801 62.9527 211.169 63.3213C211.873 64.0252 212.4 64.5781 212.769 65.5212C213.029 66.1855 214.035 69.9688 212.625 70.021C210.675 70.0932 208.926 69.3901 208.27 67.4211" stroke="#3D32C0" stroke-linecap="round" stroke-linejoin="round"/>
<path d="M218.068 64.2212C217.516 66.0924 216.921 68.0957 215.913 69.7765C215.638 70.2351 215.233 70.7283 215.068 71.2208" stroke="#3D32C0" stroke-linecap="round" stroke-linejoin="round"/>
<path d="M222.269 66.6211C221.804 67.7816 221.093 68.9864 220.869 70.2209C220.807 70.5586 220.65 71.596 220.369 71.8208C220.219 71.9407 219.547 73.3871 219.469 73.6207" stroke="#3D32C0" stroke-linecap="round" stroke-linejoin="round"/>
<path d="M217.268 68.2209C218.159 68.8829 219.072 69.5677 220.067 70.0653C220.432 70.2475 220.892 70.4707 221.067 70.8208" stroke="#3D32C0" stroke-linecap="round" stroke-linejoin="round"/>
<path d="M226.468 68.6208C224.656 68.6208 224.259 68.7604 223.068 70.0208C222.105 71.0404 222.033 74.009 223.679 74.4206C225.752 74.9387 226.771 73.627 227.557 71.8318C227.98 70.8638 228.244 69.6128 227.068 69.2208" stroke="#3D32C0" stroke-linecap="round" stroke-linejoin="round"/>
<path d="M230.668 71.2209C229.598 72.8751 228.943 74.6707 228.068 76.4207C227.861 76.836 227.454 77.8277 227.068 78.0206" stroke="#3D32C0" stroke-linecap="round" stroke-linejoin="round"/>
<path d="M230.867 71.8208C231.913 72.0504 233.139 72.7965 233.067 74.0207C233.031 74.6335 231.496 74.8206 231.067 74.8206C230.77 74.8206 230.265 74.7215 229.989 74.8318C229.888 74.8723 230.235 75.2183 230.267 75.2651C230.488 75.5838 230.714 75.9081 230.867 76.265C231.392 77.4904 231.467 78.5031 231.467 79.8204" stroke="#3D32C0" stroke-linecap="round" stroke-linejoin="round"/>
<path d="M238.268 75.6206C237.88 76.6833 237.257 77.5321 236.757 78.5316C236.447 79.1503 236.402 79.8599 236.168 80.5092C236.005 80.9629 235.668 81.5596 235.668 82.0203" stroke="#3D32C0" stroke-linecap="round" stroke-linejoin="round"/>
<path d="M235.467 74.8206C236.971 75.114 237.621 75.5892 238.822 76.4205C239.31 76.7581 239.705 77.1503 240.167 77.5093C240.485 77.7571 240.882 77.4515 241.067 77.8204" stroke="#3D32C0" stroke-linecap="round" stroke-linejoin="round"/>
<path d="M246.467 80.0203C245.399 79.6035 243.592 78.4361 242.767 79.9203C242.007 81.2885 244.319 83.4718 245.167 84.3201C246.86 86.0129 245.082 86.62 243.512 86.62C242.813 86.62 241.851 86.3794 241.468 85.7089C241.278 85.3773 240.515 84.1436 240.268 84.0201" stroke="#3D32C0" stroke-linecap="round" stroke-linejoin="round"/>
<defs>
<filter id="filter0_d" x="0.728525" y="0.5" width="171.324" height="166.832" filterUnits="userSpaceOnUse" color-interpolation-filters="sRGB">
<feFlood flood-opacity="0" result="BackgroundImageFix"/>
<feColorMatrix in="SourceAlpha" type="matrix" values="0 0 0 0 0 0 0 0 0 0 0 0 0 0 0 0 0 0 127 0"/>
<feOffset dx="2.22853" dy="6.68558"/>
<feGaussianBlur stdDeviation="1.5"/>
<feColorMatrix type="matrix" values="0 0 0 0 0 0 0 0 0 0 0 0 0 0 0 0 0 0 0.25 0"/>
<feBlend mode="normal" in2="BackgroundImageFix" result="effect1_dropShadow"/>
<feBlend mode="normal" in="SourceGraphic" in2="effect1_dropShadow" result="shape"/>
</filter>
</defs>
</svg>
