<svg width="233" height="406" viewBox="0 0 233 406" fill="none" xmlns="http://www.w3.org/2000/svg">
<g filter="url(#filter0_d)">
<path d="M83.2881 231.19C81.6283 232.85 80.7797 235.281 79.0531 237.007C77.1188 238.942 74.7894 241.354 73.7942 243.942C73.094 245.762 71.5804 248.513 70.2572 249.992C69.0341 251.359 68.561 253.27 67.2787 254.553C66.0331 255.798 64.3196 256.231 63.5556 257.95C60.7021 264.37 58.1419 270.28 55.8301 276.985C50.5487 292.3 48.1096 308.515 45.7776 324.548C44.3695 334.228 43.4805 344.46 44.3349 354.286C44.6836 358.296 46.5286 360.729 47.6392 364.339C48.4204 366.877 49.6482 370.297 51.8278 372.297C50.743 369.042 50.1523 367.077 50.1523 363.92C50.1523 361.082 51.1705 362.019 52.6655 360.15C54.627 357.698 59.2737 358.563 61.8802 357.404C63.4959 356.686 66.1612 357.218 67.9303 357.218C70.6402 357.218 73.0315 356.38 75.7023 356.38C82.5331 356.38 89.1253 354.705 96.0399 354.705H107.954C112.121 354.705 114.683 356.208 118.472 357.218C124.029 358.7 131.129 361.535 135.784 364.757C140.191 367.808 145.203 370.227 149.42 373.507C152.782 376.122 155.703 375.912 155.703 380.674C155.703 384.798 153.767 387.694 150.699 389.72C156.982 387.824 178.294 383.68 180.699 380.674C185.099 375.174 190.016 367.774 192.199 365.591C196.199 361.591 198.199 359.312 202.699 356.38C207.463 353.277 214.085 351.091 219.37 348.091C224.019 345.453 225.746 343.091 225.699 337.591C224.397 334.091 224.397 330.747 224.397 326.642C224.397 324.535 224.808 322 224.35 319.94C223.936 318.075 222.721 316.327 222.721 314.495C222.721 310.63 221.019 306.449 221.93 302.348C222.73 298.748 222.978 294.562 220.394 291.691C218.95 290.086 219.485 287.955 219.37 286.013C219.314 285.052 217.224 282.098 216.485 281.359C213.439 278.313 213.389 270.712 212.483 266.746C211.531 262.584 209.322 259.433 208.434 255.437C207.927 253.157 206.805 252.24 206.805 249.573C206.805 247.327 205.383 245.327 204.478 243.29C202.724 239.345 204.457 234.706 203.035 230.725C199.565 230.725 195.986 236.127 192.982 237.729C188.72 240.003 185.337 242.921 182.739 247.003C181.85 248.4 182.201 249.49 180.421 249.49H161.474C160.007 249.49 158.721 249.679 157.575 248.647C156.485 247.666 155.38 246.441 154.076 245.696C150.928 243.898 147.577 241.771 144.676 239.626C142.056 237.69 138.767 236.686 135.782 235.453C127.944 232.216 118.537 229.511 109.985 229.383C101.284 229.254 91.8613 229.706 83.2881 231.19Z" fill="#FBB198"/>
<path d="M83.2881 231.19C86.4651 228.013 85.3359 220.845 85.3359 216.484C101.091 216.484 116.79 215.148 132.434 214.808C155.455 214.308 179.485 215.646 202.616 215.646C202.616 220.2 201.485 226.384 203.035 230.725M83.2881 231.19C81.6283 232.85 80.7797 235.281 79.0531 237.007C77.1188 238.942 74.7894 241.354 73.7942 243.942C73.094 245.762 71.5804 248.513 70.2572 249.992C69.0341 251.359 68.561 253.27 67.2787 254.553C66.0331 255.798 64.3196 256.231 63.5556 257.95C60.7021 264.37 58.1419 270.28 55.8301 276.985C50.5487 292.3 48.1096 308.515 45.7776 324.548C44.3695 334.228 43.4805 344.46 44.3349 354.286C44.6836 358.296 46.5286 360.729 47.6392 364.339C48.4204 366.877 49.6482 370.297 51.8278 372.297M83.2881 231.19C91.8613 229.706 101.284 229.254 109.985 229.383C118.537 229.511 127.944 232.216 135.782 235.453C138.767 236.686 142.056 237.69 144.676 239.626C147.577 241.771 150.928 243.898 154.076 245.696C155.38 246.441 156.485 247.666 157.575 248.647C158.721 249.679 160.007 249.49 161.474 249.49H180.421C182.201 249.49 181.85 248.4 182.739 247.003C185.337 242.921 188.72 240.003 192.982 237.729C195.986 236.127 199.565 230.725 203.035 230.725M51.8278 372.297C50.743 369.042 50.1523 367.077 50.1523 363.92C50.1523 361.082 51.1705 362.019 52.6655 360.15C54.627 357.698 59.2737 358.563 61.8802 357.404C63.4959 356.686 66.1612 357.218 67.9303 357.218C70.6402 357.218 73.0315 356.38 75.7023 356.38C82.5331 356.38 89.1253 354.705 96.0399 354.705H107.954C112.121 354.705 114.683 356.208 118.472 357.218C124.029 358.7 131.129 361.535 135.784 364.757C140.191 367.808 145.203 370.227 149.42 373.507C152.782 376.122 155.703 375.912 155.703 380.674M51.8278 372.297C55.2526 382.571 62.6636 384.375 72.9565 388.585C86.7479 394.227 99.7281 394.077 114.469 394.077C125.251 394.077 155.703 397.031 155.703 380.674M155.703 380.674C155.703 384.798 153.767 387.694 150.699 389.72C156.982 387.824 178.294 383.68 180.699 380.674C185.099 375.174 190.016 367.774 192.199 365.591C196.199 361.591 198.199 359.312 202.699 356.38C207.463 353.277 214.085 351.091 219.37 348.091C224.019 345.453 225.746 343.091 225.699 337.591C224.397 334.091 224.397 330.747 224.397 326.642C224.397 324.535 224.808 322 224.35 319.94C223.936 318.075 222.721 316.327 222.721 314.495C222.721 310.63 221.019 306.449 221.93 302.348C222.73 298.748 222.978 294.562 220.394 291.691C218.95 290.086 219.485 287.955 219.37 286.013C219.314 285.052 217.224 282.098 216.485 281.359C213.439 278.313 213.389 270.712 212.483 266.746C211.531 262.584 209.322 259.433 208.434 255.437C207.927 253.157 206.805 252.24 206.805 249.573C206.805 247.327 205.383 245.327 204.478 243.29C202.724 239.345 204.457 234.706 203.035 230.725" stroke="#3D32C0" stroke-linecap="round" stroke-linejoin="round"/>
<path d="M131.339 12.7354C130.347 13.0188 129.182 13.5259 127.971 14.2041C129.101 20.3053 131.898 26.3204 130.827 32.7472C129.875 38.4589 124.804 32.4994 124.218 29.8618C123.128 24.9543 125.17 20.3454 125.717 15.6375C125.799 14.9365 125.847 14.2333 125.847 13.5266C125.847 9.49995 122.254 11.8953 120.069 13.1994C119.718 13.4092 119.403 13.5907 119.146 13.7127C115.075 15.641 109.275 17.8743 104.579 16.8308C102.793 16.434 106.164 13.1065 106.766 12.875C109.727 11.7363 112.296 10.2858 115.376 9.33803C116.504 8.99082 120.179 8.18699 123.21 8.01859C123.054 6.06569 125.445 7.59373 126.685 7.66262C126.941 7.67682 127.232 7.69123 127.546 7.71088C127.645 4.93656 128.147 3.64508 130.687 1.61254C132.091 0.489925 134.178 0.876135 132.968 3.05525C132.197 4.44285 131.077 5.34394 129.991 6.34309C129.506 6.79019 129.027 7.25693 128.589 7.79568C129.914 7.93473 131.347 8.22929 132.083 8.96572C132.225 9.10718 132.342 9.2613 132.436 9.42386C133.152 10.6635 132.536 12.3934 131.339 12.7354Z" fill="#D37E61"/>
<path d="M74.3278 117.355C69.1579 118.504 65.437 120.753 59.668 120.753C62.4931 129.228 67.2743 137.154 68.9293 146.256C69.347 148.554 71.2609 150.156 71.3958 152.585C71.4854 154.197 71.9311 157.513 72.4197 159.101C73.7746 163.504 74.3896 167.88 75.6309 172.225C75.6772 172.387 85.3794 176.084 86.4745 176.693C90.7328 179.058 94.8421 180.266 99.5055 181.114C104.896 182.094 110.081 183.826 115.794 182.557C121.967 181.185 129.203 179.392 135.48 179.392C141.357 179.392 146.813 176.879 152.839 176.879C157.906 176.879 163.218 175.203 168.151 175.203C173.211 175.203 177.863 174.641 182.81 174.366C186.603 174.155 192.042 173.703 195.748 172.644C198.7 171.8 204.591 171.776 204.591 168.502C204.591 163.877 205.428 159.151 205.428 154.726C205.428 153.432 205.627 152.018 205.984 150.538C206.028 150.356 206.075 150.173 206.123 149.989C208.051 142.714 213.64 134.052 218.413 130.34C222.34 127.285 224.019 120.351 225.952 116.099C227.774 112.091 226.306 105.916 224.51 102.323C223.372 100.049 223.271 97.2009 221.717 95.2027C220.748 93.9565 219.291 92.4122 218.878 90.9676C218.404 89.3089 217.708 87.2301 216.97 85.5691C215.645 82.5884 215.552 83.3574 213.992 84.9175C212.612 86.2976 211.07 87.5755 209.5 88.8271C209.483 88.8408 209.466 88.8545 209.448 88.8682C209.168 89.0914 208.887 89.3138 208.606 89.5358C208.334 89.7508 208.061 89.9654 207.79 90.18C205.585 91.9217 203.419 93.6658 201.659 95.6215C197.718 100 193.21 105.314 187.837 108.001C183.696 110.072 178.852 106.123 176.947 102.789C174.825 99.076 171.015 98.2227 167.918 95.4354C158.814 87.2416 144.749 87.2432 133.168 87.2445L132.734 87.2445C125.093 87.2445 114.891 86.4592 108.906 91.2469L108.679 91.4289C108.678 91.4292 108.678 91.4295 108.678 91.4298C107.526 92.3514 106.24 93.3804 104.904 94.3949C103.096 95.7685 101.196 97.1157 99.4124 98.1346C94.8978 100.714 92.4262 106.835 88.1499 109.211C83.486 111.802 79.8804 116.121 74.3278 117.355Z" fill="#D37E61"/>
<path d="M74.3278 117.355C69.1579 118.504 65.437 120.753 59.668 120.753C62.4931 129.228 67.2743 137.154 68.9293 146.256C69.347 148.554 71.2609 150.156 71.3958 152.585C71.4854 154.197 71.9311 157.513 72.4197 159.101C73.7746 163.504 74.3896 167.88 75.6309 172.225C75.6772 172.387 85.3794 176.084 86.4745 176.693C90.7328 179.058 94.8421 180.266 99.5055 181.114C104.896 182.094 110.081 183.826 115.794 182.557C121.967 181.185 129.203 179.392 135.48 179.392C141.357 179.392 146.813 176.879 152.839 176.879C157.906 176.879 163.218 175.203 168.151 175.203C173.211 175.203 177.863 174.641 182.81 174.366C186.603 174.155 192.042 173.703 195.748 172.644C198.7 171.8 204.591 171.776 204.591 168.502C204.591 163.877 205.428 159.151 205.428 154.726C205.428 153.432 205.627 152.018 205.984 150.538C206.028 150.356 206.075 150.173 206.123 149.989C208.051 142.714 213.64 134.052 218.413 130.34C222.34 127.285 224.019 120.351 225.952 116.099C227.774 112.091 226.306 105.916 224.51 102.323C223.372 100.049 223.271 97.2009 221.717 95.2027C220.748 93.9565 219.291 92.4122 218.878 90.9676C218.404 89.3089 217.708 87.2301 216.97 85.5691C215.645 82.5884 215.552 83.3574 213.992 84.9175C212.612 86.2976 211.07 87.5755 209.5 88.8271C209.483 88.8408 209.466 88.8545 209.448 88.8682C209.168 89.0914 208.887 89.3138 208.606 89.5358C208.334 89.7508 208.061 89.9654 207.79 90.18C205.585 91.9217 203.419 93.6658 201.659 95.6215C197.718 100 193.21 105.314 187.837 108.001C183.696 110.072 178.852 106.123 176.947 102.789C174.825 99.076 171.015 98.2227 167.918 95.4354C158.814 87.2416 144.749 87.2432 133.168 87.2445L132.734 87.2445C125.093 87.2445 114.891 86.4592 108.906 91.2469C108.906 75.4478 109.931 56.8103 109.931 40.7519C109.931 36.7565 111.652 33.415 114.306 30.4668C115.912 28.6813 118.84 26.8608 119.146 24.4167C119.552 21.1654 122.518 17.9215 125.717 15.6375C125.799 14.9365 125.847 14.2333 125.847 13.5266C125.847 9.49995 122.254 11.8953 120.069 13.1994C119.301 14.1075 118.648 14.9788 118.308 15.5743C117.064 17.7508 113.959 18.8055 112.63 21.0659C109.511 26.368 104.904 34.3445 104.904 40.7985V94.3949C103.096 95.7685 101.196 97.1157 99.4124 98.1346C94.8978 100.714 92.4262 106.835 88.1499 109.211C83.486 111.802 79.8804 116.121 74.3278 117.355Z" fill="#D37E61"/>
<path d="M213.992 84.9175C210.537 79.1131 204.38 73.0036 202.078 66.6742C200.018 61.0078 198.686 55.2656 197.052 49.5478C195.502 44.1238 194.361 37.1169 189.327 33.6314C183.793 29.8008 180.029 24.0345 174.62 20.2282C167.46 15.1891 156.035 8.50032 147.209 8.50032C143.351 8.50032 139.985 5.98721 135.9 5.98721C133.875 5.98721 131.877 5.76621 129.991 6.34309C129.506 6.79019 129.027 7.25693 128.589 7.79568C129.914 7.93473 131.347 8.22929 132.083 8.96572C132.225 9.10718 132.342 9.2613 132.436 9.42386C133.708 9.34885 134.913 9.25839 135.481 9.38457C139.286 10.2301 143.258 10.2571 147.162 10.9669C150.512 11.576 154.318 12.8475 157.028 15.0158C159.466 16.9657 163.701 16.3332 166.243 18.3666C169.638 21.0827 172.803 21.9009 175.737 25.6733C177.673 28.1627 179.938 32.6311 183.276 33.5849C189.893 35.4754 189.7 46.4085 191.84 51.2232C193.487 54.9292 192.894 59.6555 194.958 63.3699C196.922 66.9051 198.433 71.2604 201.659 73.8412C205.91 77.2419 207.225 84.2773 209.5 88.8271C211.07 87.5755 212.612 86.2976 213.992 84.9175Z" fill="#D37E61"/>
<path d="M99.4124 98.1346C94.8978 100.714 92.4262 106.835 88.1499 109.211C83.486 111.802 79.8804 116.121 74.3278 117.355C69.1579 118.504 65.437 120.753 59.668 120.753C62.4931 129.228 67.2743 137.154 68.9293 146.256C69.347 148.554 71.2609 150.156 71.3958 152.585C71.4854 154.197 71.9311 157.513 72.4197 159.101C73.7746 163.504 74.3896 167.88 75.6309 172.225C75.6772 172.387 85.3794 176.084 86.4745 176.693C90.7328 179.058 94.8421 180.266 99.5055 181.114C104.896 182.094 110.081 183.826 115.794 182.557C121.967 181.185 129.203 179.392 135.48 179.392C141.357 179.392 146.813 176.879 152.839 176.879C157.906 176.879 163.218 175.203 168.151 175.203C173.211 175.203 177.863 174.641 182.81 174.366C186.603 174.155 192.042 173.703 195.748 172.644C198.7 171.8 204.591 171.776 204.591 168.502C204.591 163.877 205.428 159.151 205.428 154.726M99.4124 98.1346C101.196 97.1157 103.096 95.7685 104.904 94.3949M99.4124 98.1346C102.513 96.3631 105.967 93.5992 108.678 91.4298M108.906 91.2469C114.891 86.4592 125.093 87.2445 132.734 87.2445M108.906 91.2469C108.906 75.4478 109.931 56.8103 109.931 40.7519C109.931 36.7565 111.652 33.415 114.306 30.4668C115.912 28.6813 118.84 26.8608 119.146 24.4167C119.552 21.1654 122.518 17.9215 125.717 15.6375M108.906 91.2469L108.679 91.4289M108.906 91.2469C108.831 91.307 108.755 91.3678 108.679 91.4289M132.734 87.2445L133.168 87.2445M132.734 87.2445C132.878 87.2445 133.023 87.2445 133.168 87.2445M213.992 84.9175C215.552 83.3574 215.645 82.5884 216.97 85.5691C217.708 87.2301 218.404 89.3089 218.878 90.9676C219.291 92.4122 220.748 93.9565 221.717 95.2027C223.271 97.2009 223.372 100.049 224.51 102.323C226.306 105.916 227.774 112.091 225.952 116.099C224.019 120.351 222.34 127.285 218.413 130.34C213.64 134.052 208.051 142.714 206.123 149.989M213.992 84.9175C210.537 79.1131 204.38 73.0036 202.078 66.6742C200.018 61.0078 198.686 55.2656 197.052 49.5478C195.502 44.1238 194.361 37.1169 189.327 33.6314C183.793 29.8008 180.029 24.0345 174.62 20.2282C167.46 15.1891 156.035 8.50032 147.209 8.50032C143.351 8.50032 139.985 5.98721 135.9 5.98721C133.875 5.98721 131.877 5.76621 129.991 6.34309M213.992 84.9175C212.612 86.2976 211.07 87.5755 209.5 88.8271M213.992 84.9175C212.596 86.3127 211.036 87.6035 209.448 88.8682M205.428 154.726C205.428 153.432 205.627 152.018 205.984 150.538M205.428 154.726C205.428 153.273 205.678 151.668 206.123 149.989M94.0137 123.266C95.9688 127.866 97.5121 133.148 99.6914 137.507C101.338 140.8 103.243 145.054 106.579 146.908C110.85 149.28 116.397 151.886 119.796 155.285C123.799 159.288 128.21 158.403 132.92 160.544C137.816 162.769 146.877 160.72 151.815 160.171C158.175 159.465 161.768 154.198 166.475 150.538C171.266 146.812 174.706 142.352 176.062 136.25C177.054 131.786 179.459 126.095 179.459 121.59M189.514 117.402C189.514 131.179 196.902 141.456 205.984 150.538M205.984 150.538C206.028 150.356 206.075 150.173 206.123 149.989M104.904 94.3949V40.7985C104.904 34.3445 109.511 26.368 112.63 21.0659C113.959 18.8055 117.064 17.7508 118.308 15.5743C118.648 14.9788 119.301 14.1075 120.069 13.1994M104.904 94.3949C106.24 93.3804 107.526 92.3514 108.678 91.4298M125.717 15.6375C126.466 15.1031 127.227 14.6212 127.971 14.2041M125.717 15.6375C125.799 14.9365 125.847 14.2333 125.847 13.5266C125.847 9.49995 122.254 11.8953 120.069 13.1994M125.717 15.6375C125.17 20.3454 123.128 24.9543 124.218 29.8618C124.804 32.4994 129.875 38.4589 130.827 32.7472C131.898 26.3204 129.101 20.3053 127.971 14.2041M127.971 14.2041C129.182 13.5259 130.347 13.0188 131.339 12.7354C132.536 12.3934 133.152 10.6635 132.436 9.42386M127.971 14.2041C127.698 12.7291 127.523 11.249 127.523 9.75688C127.523 8.98928 127.525 8.31493 127.546 7.71088M132.436 9.42386C132.342 9.2613 132.225 9.10718 132.083 8.96572C131.347 8.22929 129.914 7.93473 128.589 7.79568M132.436 9.42386C129.899 9.57341 127.096 9.66154 128.546 7.84878C128.561 7.831 128.575 7.8133 128.589 7.79568M132.436 9.42386C133.708 9.34885 134.913 9.25839 135.481 9.38457C139.286 10.2301 143.258 10.2571 147.162 10.9669C150.512 11.576 154.318 12.8475 157.028 15.0158C159.466 16.9657 163.701 16.3332 166.243 18.3666C169.638 21.0827 172.803 21.9009 175.737 25.6733C177.673 28.1627 179.938 32.6311 183.276 33.5849C189.893 35.4754 189.7 46.4085 191.84 51.2232C193.487 54.9292 192.894 59.6555 194.958 63.3699C196.922 66.9051 198.433 71.2604 201.659 73.8412C205.91 77.2419 207.225 84.2773 209.5 88.8271M128.589 7.79568C128.228 7.7578 127.875 7.73146 127.546 7.71088M128.589 7.79568C129.027 7.25693 129.506 6.79019 129.991 6.34309M127.546 7.71088C127.232 7.69123 126.941 7.67682 126.685 7.66262C125.445 7.59373 123.054 6.06569 123.21 8.01859M127.546 7.71088C127.645 4.93656 128.147 3.64508 130.687 1.61254C132.091 0.489925 134.178 0.876135 132.968 3.05525C132.197 4.44285 131.077 5.34394 129.991 6.34309M123.21 8.01859C123.229 8.25114 123.284 8.53304 123.381 8.87264C123.719 10.0572 127.768 9.1178 127.336 8.68648C126.702 8.05232 125.078 7.91484 123.21 8.01859ZM123.21 8.01859C120.179 8.18699 116.504 8.99082 115.376 9.33803C112.296 10.2858 109.727 11.7363 106.766 12.875C106.164 13.1065 102.793 16.434 104.579 16.8308C109.275 17.8743 115.075 15.641 119.146 13.7127C119.403 13.5907 119.718 13.4092 120.069 13.1994M209.5 88.8271C209.483 88.8408 209.466 88.8545 209.448 88.8682M133.168 87.2445C144.749 87.2432 158.814 87.2416 167.918 95.4354C171.015 98.2227 174.825 99.076 176.947 102.789C178.852 106.123 183.696 110.072 187.837 108.001C193.21 105.314 197.718 100 201.659 95.6215C203.419 93.6658 205.585 91.9217 207.79 90.18C208.061 89.9654 208.334 89.7508 208.606 89.5358C208.887 89.3138 209.168 89.0914 209.448 88.8682M108.679 91.4289C108.678 91.4292 108.678 91.4295 108.678 91.4298M120.069 13.1994C121.446 11.5727 123.192 9.82772 124.171 9.33801C125.918 8.4648 127.325 7.47115 129.198 6.63876C129.46 6.5223 129.725 6.42471 129.991 6.34309" stroke="#3D32C0" stroke-linecap="round" stroke-linejoin="round"/>
<path d="M129.723 298.991C129.723 303.711 129.058 308.268 129.039 313C129.668 313.237 130.232 313.719 130.922 313.873C131.706 314.047 132.689 313.892 133.491 313.892C135.993 313.892 134.862 312.738 134.862 310.809C134.862 307.236 134.177 303.659 134.177 300.018C134.177 297.578 135.46 298.477 137.088 298.477C138.385 298.477 140.354 297.411 141.028 296.231C142.931 292.9 143.425 289.927 143.425 286.145C143.425 284.407 143.109 282.604 141.028 282.719C139.643 282.796 139.031 285.837 138.972 286.83C138.914 287.817 138.145 290.433 137.526 291.207C136.588 292.38 134.862 293.103 134.862 290.769C134.862 282.871 134.587 275.099 134.177 267.305C134.1 265.851 133.886 262.028 132.806 260.948C132.325 260.467 130.669 260.724 130.408 261.31C130.021 262.181 129.829 263.043 129.457 263.879C128.81 265.334 129.381 268.107 129.381 269.702V276.23C129.381 278.118 129.531 280.054 129.019 281.844C128.509 283.63 125.898 281.92 125.594 280.854C125.408 280.204 124.977 271.444 123.634 272.519C121.233 274.439 122.187 279.957 122.187 282.719C122.187 287.164 124.761 288.312 128.163 290.256C130.777 291.749 129.723 296.402 129.723 298.991Z" fill="#DBFCC4"/>
<path d="M108.249 297.036C110.205 297.799 111.035 298.872 113.216 298.387C115.523 297.874 115.56 296.793 115.119 294.809C114.562 292.301 114.591 289.585 113.901 287.102C113.551 285.841 113.424 283.946 113.387 282.648C113.352 281.421 113.045 280.305 113.045 279.052V276.654C113.045 275.162 113.26 275.669 114.415 275.797C116.579 276.038 117.811 276.068 119.211 274.008C120.488 272.13 122.294 270.565 122.294 267.995V262.019C122.294 259.984 122.719 257.417 122.275 255.415C121.793 253.247 119.074 253.068 118.183 255.073C116.819 258.142 117.498 262.318 117.498 265.692C117.498 267.152 116.533 268.693 115.519 269.708C114.251 270.976 112.36 269.757 112.36 268.261C112.36 263.907 112.017 259.348 112.017 254.902V252.085C112.017 250.945 111.332 249.974 111.332 248.907C111.332 247.057 108.257 245.462 107.887 248.051C107.716 249.247 107.221 250.109 107.221 251.4V261.924C107.221 265.865 107.564 269.757 107.564 273.742C107.564 274.632 108.089 278.202 107.488 278.804C106.327 279.965 103.625 277.016 103.187 276.14C102.707 275.179 102.123 273.87 102.083 272.791C102.048 271.854 102.221 271.006 101.74 270.164C100.586 268.144 99 269.946 99 271.515C99 275.132 99.1308 278.623 102.578 280.593C103.862 281.327 105.504 281.343 106.612 282.23C107.653 283.062 107.906 285.267 107.906 286.759C107.906 290.244 108.249 293.534 108.249 297.036Z" fill="#DBFCC4"/>
<path d="M129.723 298.991C129.723 303.711 129.058 308.268 129.039 313C129.668 313.237 130.232 313.719 130.922 313.873C131.706 314.047 132.689 313.892 133.491 313.892C135.993 313.892 134.862 312.738 134.862 310.809C134.862 307.236 134.177 303.659 134.177 300.018C134.177 297.578 135.46 298.477 137.088 298.477C138.385 298.477 140.354 297.411 141.028 296.231C142.931 292.9 143.425 289.927 143.425 286.145C143.425 284.407 143.109 282.604 141.028 282.719C139.643 282.796 139.031 285.837 138.972 286.83C138.914 287.817 138.145 290.433 137.526 291.207C136.588 292.38 134.862 293.103 134.862 290.769C134.862 282.871 134.587 275.099 134.177 267.305C134.1 265.851 133.886 262.028 132.806 260.948C132.325 260.467 130.669 260.724 130.408 261.31C130.021 262.181 129.829 263.043 129.457 263.879C128.81 265.334 129.381 268.107 129.381 269.702V276.23C129.381 278.118 129.531 280.054 129.019 281.844C128.509 283.63 125.898 281.92 125.594 280.854C125.408 280.204 124.977 271.444 123.634 272.519C121.233 274.439 122.187 279.957 122.187 282.719C122.187 287.164 124.761 288.312 128.163 290.256C130.777 291.749 129.723 296.402 129.723 298.991Z" stroke="#3D32C0" stroke-linecap="round" stroke-linejoin="round"/>
<path d="M108.249 297.036C110.205 297.799 111.035 298.872 113.216 298.387C115.523 297.874 115.56 296.793 115.119 294.809C114.562 292.301 114.591 289.585 113.901 287.102C113.551 285.841 113.424 283.946 113.387 282.648C113.352 281.421 113.045 280.305 113.045 279.052V276.654C113.045 275.162 113.26 275.669 114.415 275.797C116.579 276.038 117.811 276.068 119.211 274.008C120.488 272.13 122.294 270.565 122.294 267.995V262.019C122.294 259.984 122.719 257.417 122.275 255.415C121.793 253.247 119.074 253.068 118.183 255.073C116.819 258.142 117.498 262.318 117.498 265.692C117.498 267.152 116.533 268.693 115.519 269.708C114.251 270.976 112.36 269.757 112.36 268.261C112.36 263.907 112.017 259.348 112.017 254.902V252.085C112.017 250.945 111.332 249.974 111.332 248.907C111.332 247.057 108.257 245.462 107.887 248.051C107.716 249.247 107.221 250.109 107.221 251.4V261.924C107.221 265.865 107.564 269.757 107.564 273.742C107.564 274.632 108.089 278.202 107.488 278.804C106.327 279.965 103.625 277.016 103.187 276.14C102.707 275.179 102.123 273.87 102.083 272.791C102.048 271.854 102.221 271.006 101.74 270.164C100.586 268.144 99 269.946 99 271.515C99 275.132 99.1308 278.623 102.578 280.593C103.862 281.327 105.504 281.343 106.612 282.23C107.653 283.062 107.906 285.267 107.906 286.759C107.906 290.244 108.249 293.534 108.249 297.036Z" stroke="#3D32C0" stroke-linecap="round" stroke-linejoin="round"/>
<path d="M195.701 296.991C195.701 301.711 196.366 306.268 196.385 311C195.756 311.237 195.192 311.719 194.502 311.873C193.718 312.047 192.735 311.892 191.933 311.892C189.431 311.892 190.562 310.738 190.562 308.809C190.562 305.236 191.247 301.659 191.247 298.018C191.247 295.578 189.964 296.477 188.336 296.477C187.039 296.477 185.07 295.411 184.396 294.231C182.493 290.9 181.998 287.928 181.998 284.145C181.998 282.407 182.315 280.604 184.396 280.72C185.781 280.796 186.393 283.837 186.452 284.83C186.51 285.817 187.279 288.433 187.898 289.207C188.836 290.38 190.562 291.103 190.562 288.77C190.562 280.871 190.837 273.099 191.247 265.305C191.324 263.851 191.538 260.028 192.618 258.948C193.099 258.467 194.755 258.724 195.015 259.31C195.403 260.181 195.595 261.043 195.967 261.879C196.614 263.334 196.043 266.107 196.043 267.703V274.23C196.043 276.118 195.893 278.055 196.405 279.844C196.915 281.63 199.526 279.92 199.83 278.855C200.016 278.204 200.447 269.444 201.79 270.519C204.191 272.44 203.237 277.957 203.237 280.72C203.237 285.165 200.663 286.312 197.261 288.256C194.647 289.749 195.701 294.402 195.701 296.991Z" fill="#DBFCC4"/>
<path d="M217.175 295.036C215.219 295.799 214.389 296.872 212.208 296.387C209.901 295.874 209.864 294.793 210.305 292.809C210.862 290.301 210.833 287.585 211.523 285.102C211.873 283.841 212 281.946 212.037 280.649C212.072 279.421 212.379 278.305 212.379 277.052V274.654C212.379 273.162 212.164 273.669 211.009 273.797C208.845 274.038 207.613 274.068 206.213 272.009C204.936 270.13 203.13 268.565 203.13 265.995V260.019C203.13 257.984 202.705 255.417 203.149 253.416C203.631 251.248 206.35 251.068 207.241 253.073C208.605 256.142 207.926 260.318 207.926 263.692C207.926 265.153 208.891 266.693 209.905 267.708C211.173 268.976 212 269.196 212.5 267.196C213.5 274.654 214.5 281.196 218 283.196C218 286.681 217.175 291.534 217.175 295.036Z" fill="#DBFCC4"/>
<path d="M195.701 296.991C195.701 301.711 196.366 306.268 196.385 311C195.756 311.237 195.192 311.719 194.502 311.873C193.718 312.047 192.735 311.892 191.933 311.892C189.431 311.892 190.562 310.738 190.562 308.809C190.562 305.236 191.247 301.659 191.247 298.018C191.247 295.578 189.964 296.477 188.336 296.477C187.039 296.477 185.07 295.411 184.396 294.231C182.493 290.9 181.998 287.928 181.998 284.145C181.998 282.407 182.315 280.604 184.396 280.72C185.781 280.796 186.393 283.837 186.452 284.83C186.51 285.817 187.279 288.433 187.898 289.207C188.836 290.38 190.562 291.103 190.562 288.77C190.562 280.871 190.837 273.099 191.247 265.305C191.324 263.851 191.538 260.028 192.618 258.948C193.099 258.467 194.755 258.724 195.015 259.31C195.403 260.181 195.595 261.043 195.967 261.879C196.614 263.334 196.043 266.107 196.043 267.703V274.23C196.043 276.118 195.893 278.055 196.405 279.844C196.915 281.63 199.526 279.92 199.83 278.855C200.016 278.204 200.447 269.444 201.79 270.519C204.191 272.44 203.237 277.957 203.237 280.72C203.237 285.165 200.663 286.312 197.261 288.256C194.647 289.749 195.701 294.402 195.701 296.991Z" stroke="#3D32C0" stroke-linecap="round" stroke-linejoin="round"/>
<path d="M217.175 295.036C215.219 295.799 214.389 296.872 212.208 296.387C209.901 295.874 209.864 294.793 210.305 292.809C210.862 290.301 210.833 287.585 211.523 285.102C211.873 283.841 212 281.946 212.037 280.649C212.072 279.421 212.379 278.305 212.379 277.052V274.654C212.379 273.162 212.164 273.669 211.009 273.797C208.845 274.038 207.613 274.068 206.213 272.009C204.936 270.13 203.13 268.565 203.13 265.995V260.019C203.13 257.984 202.705 255.417 203.149 253.416C203.631 251.248 206.35 251.068 207.241 253.073C208.605 256.142 207.926 260.318 207.926 263.692C207.926 265.153 208.891 266.693 209.905 267.708C211.173 268.976 212 269.196 212.5 267.196C213.5 274.654 214.5 281.196 218 283.196C218 286.681 217.175 291.534 217.175 295.036Z" stroke="#3D32C0" stroke-linecap="round" stroke-linejoin="round"/>
<path d="M85.6366 217.089C85.6366 221.45 86.7659 228.618 83.5889 231.795C92.1621 230.311 101.585 229.858 110.286 229.988C118.838 230.116 128.245 232.821 136.083 236.058C139.068 237.291 142.357 238.295 144.977 240.231C147.878 242.376 151.229 244.503 154.377 246.301C155.681 247.046 156.786 248.271 157.875 249.252C159.022 250.283 160.308 250.095 161.774 250.095H180.722C182.501 250.095 182.151 249.005 183.04 247.608C185.638 243.526 189.02 240.608 193.283 238.334C196.287 236.732 199.866 231.33 203.336 231.33C201.786 226.989 202.917 220.805 202.917 216.251C179.786 216.251 155.756 214.913 132.734 215.413C117.091 215.753 101.392 217.089 85.6366 217.089Z" fill="#D37E61"/>
<path d="M52.1285 372.902C51.0438 369.647 50.4531 367.682 50.4531 364.525C50.4531 361.687 51.4713 362.624 52.9662 360.755C54.9278 358.303 59.5744 359.168 62.181 358.009C63.7967 357.291 66.462 357.823 68.2311 357.823C70.941 357.823 73.3323 356.985 76.0031 356.985C82.8339 356.985 89.4261 355.31 96.3407 355.31H108.255C112.422 355.31 114.984 356.813 118.773 357.823C124.33 359.305 131.43 362.139 136.085 365.362C140.492 368.413 145.504 370.832 149.721 374.112C153.083 376.727 156.004 376.517 156.004 381.279C156.004 397.636 125.552 394.682 114.77 394.682C100.029 394.682 87.0487 394.832 73.2573 389.19C62.9644 384.98 55.5534 383.176 52.1285 372.902Z" fill="#D37E61"/>
<path d="M83.5889 231.795C86.7659 228.618 85.6366 221.45 85.6366 217.089C101.392 217.089 117.091 215.753 132.734 215.413C155.756 214.913 179.786 216.251 202.917 216.251C202.917 220.805 201.786 226.989 203.336 231.33M83.5889 231.795C81.9291 233.455 81.0805 235.886 79.3539 237.612C77.4196 239.547 75.0901 241.959 74.0949 244.547C73.3948 246.367 71.8812 249.118 70.558 250.597C69.3349 251.964 68.8618 253.875 67.5795 255.158C66.3339 256.403 64.6204 256.836 63.8563 258.555C61.0029 264.975 58.4427 270.885 56.1308 277.59C50.8495 292.905 48.4104 309.12 46.0784 325.153C44.6703 334.833 43.7813 345.065 44.6357 354.891C44.9844 358.901 46.8294 361.334 47.94 364.943C48.7212 367.482 49.949 370.902 52.1285 372.902M83.5889 231.795C92.1621 230.311 101.585 229.858 110.286 229.988C118.838 230.116 128.245 232.821 136.083 236.058C139.068 237.291 142.357 238.295 144.977 240.231C147.878 242.376 151.229 244.503 154.377 246.301C155.681 247.046 156.786 248.271 157.875 249.252C159.022 250.283 160.308 250.095 161.774 250.095H180.722C182.501 250.095 182.151 249.005 183.04 247.608C185.638 243.526 189.02 240.608 193.283 238.334C196.287 236.732 199.866 231.33 203.336 231.33M52.1285 372.902C51.0438 369.647 50.4531 367.682 50.4531 364.525C50.4531 361.687 51.4713 362.624 52.9662 360.755C54.9278 358.303 59.5744 359.168 62.181 358.009C63.7967 357.291 66.462 357.823 68.2311 357.823C70.941 357.823 73.3323 356.985 76.0031 356.985C82.8339 356.985 89.4261 355.31 96.3407 355.31H108.255C112.422 355.31 114.984 356.813 118.773 357.823C124.33 359.305 131.43 362.139 136.085 365.362C140.492 368.413 145.504 370.832 149.721 374.112C153.083 376.727 156.004 376.517 156.004 381.279C156.004 397.636 125.552 394.682 114.77 394.682C100.029 394.682 87.0487 394.832 73.2573 389.19C62.9644 384.98 55.5534 383.176 52.1285 372.902ZM151 390.325C157.283 388.429 178.595 384.285 181 381.279C185.4 375.779 190.317 368.379 192.5 366.196C196.5 362.196 198.5 359.917 203 356.985C207.763 353.882 214.385 351.696 219.671 348.696C224.32 346.058 226.047 343.696 226 338.196C224.697 334.696 224.697 331.351 224.697 327.247C224.697 325.14 225.109 322.605 224.651 320.545C224.236 318.68 223.022 316.932 223.022 315.1C223.022 311.235 221.32 307.054 222.231 302.953C223.031 299.353 223.279 295.167 220.695 292.296C219.251 290.691 219.785 288.56 219.671 286.618C219.615 285.657 217.525 282.703 216.786 281.964C213.739 278.918 213.69 271.317 212.783 267.351C211.832 263.189 209.622 260.038 208.734 256.042C208.228 253.762 207.106 252.845 207.106 250.178C207.106 247.932 205.684 245.932 204.779 243.895C203.025 239.95 204.758 235.311 203.336 231.33" stroke="#3D32C0" stroke-linecap="round" stroke-linejoin="round"/>
<path d="M98.5 252.5C98.5 254.708 97.5574 256.835 96.0797 258.349C94.6031 259.861 92.6238 260.733 90.5552 260.503C86.2304 260.023 82.5 256.868 82.5 252.5C82.5 248.132 86.2304 244.977 90.5552 244.497C92.6238 244.267 94.6031 245.139 96.0797 246.651C97.5574 248.165 98.5 250.292 98.5 252.5Z" fill="#F5FF96" stroke="#3D32C0"/>
</g>
<path d="M16.3197 282.339C17.6475 283.751 19.1272 285.315 20.945 286.091C22.1206 286.593 23.0133 286.446 22.7355 285.013C22.3172 282.855 21.0949 280.889 19.535 279.36C19.263 279.093 18.9604 278.848 18.7357 278.537C18.7214 278.517 19.5994 279.302 19.7975 279.476C22.3874 281.748 25.178 283.806 27.7177 286.121C30.1564 288.345 32.356 290.57 33.2208 293.816C33.6639 295.479 31.5944 294.471 31.1562 293.654C29.6149 290.779 29.0486 286.936 28.4962 283.763C27.9341 280.536 27.5298 277.036 25.4431 274.37C25.0747 273.899 23.9684 272.438 23.1791 272.675C21.9225 273.051 24.3142 276.943 24.7291 277.305C26.4899 278.84 30.2211 278.65 30.5554 275.949C30.7503 274.375 30.3811 272.742 30.0468 271.213C29.7104 269.674 29.3857 267.894 28.5377 266.538C28.4526 266.402 26.3902 264.207 26.4675 265.273C26.6404 267.654 28.165 270.051 30.3144 271.057C32.2219 271.95 33.8035 271.301 34.5118 269.474" stroke="#3D32C0" stroke-width="0.875365" stroke-linecap="round" stroke-linejoin="round"/>
<path d="M40.5296 264.159C40.8492 262.262 41.3238 260.323 41.3828 258.397C41.4623 255.801 40.9155 253.26 40.3162 250.75C39.6951 248.148 38.9159 245.561 38.096 243.015C37.6383 241.593 36.7694 240.13 35.6567 239.107C35.3231 238.8 33.7887 237.452 33.7742 238.684C33.7388 241.698 36.9533 244.739 38.7452 246.809C41.3394 249.807 43.8845 252.783 46.018 256.141C46.0746 256.23 46.9024 257.329 46.6901 256.72C46.1923 255.293 45.0453 254.01 44.3106 252.686C43.4798 251.188 42.6699 249.734 42.0187 248.148C41.7736 247.551 41.1815 246.297 41.5302 245.649C42.0091 244.761 43.5875 245.197 44.1428 245.615C45.352 246.524 46.0835 247.79 47.2238 248.734C47.7646 249.182 48.6415 249.437 49.3241 249.232C50.1328 248.99 49.9218 247.971 49.7365 247.353C49.527 246.654 49.3982 245.841 49.0669 245.191C48.6728 244.417 48.1211 243.713 47.7521 242.92C47.3243 242 46.0364 239.743 47.5413 239.231C47.89 239.112 49.2782 238.774 48.2176 239.028C47.7892 239.131 47.1153 239.296 46.9375 239.737C46.7712 240.149 47.1318 241.265 47.262 241.699C47.7915 243.466 48.926 244.996 50.8888 245.338C52.2124 245.569 51.4383 243.265 51.2418 242.609C50.8844 241.417 50.2661 239.905 49.4778 238.976C49.1296 238.565 47.6359 238.061 48.5627 239.131C49.51 240.224 51.4337 242.189 53.0321 242.073C53.5272 242.037 54.0594 242.199 53.989 241.504C53.8525 240.159 53.5024 238.744 52.7551 237.604C52.099 236.602 51.0594 235.89 50.3472 234.921C50.2897 234.843 51.4331 236.007 51.7869 236.289C53.1959 237.415 57.2039 240.368 55.9996 236.349C55.5442 234.829 54.769 234.322 53.8817 233.087C53.5862 232.676 52.1118 231.95 52.3098 232.416C53.0066 234.056 56.0543 235.004 57.83 234.934C59.6452 234.862 56.0728 230.33 55.6478 229.821C55.4369 229.569 54.6996 228.921 54.4281 228.811C54.1485 228.698 54.8889 229.587 55.5543 229.654C56.4489 229.745 58.9478 233.024 59.9514 231.957C60.4321 231.446 59.9798 230.069 59.8955 229.492" stroke="#3D32C0" stroke-width="0.875365" stroke-linecap="round" stroke-linejoin="round"/>
<path d="M53.3398 211.89C54.1297 214.526 55.2495 216.961 56.4571 219.433C57.5721 221.716 58.9307 223.881 60.4312 225.93C60.7296 226.337 61.1528 226.648 61.432 227.045" stroke="#3D32C0" stroke-width="0.875365" stroke-linecap="round" stroke-linejoin="round"/>
<path d="M63.8124 229.27C63.9592 229.76 64.0161 230.409 64.6397 230.397C65.0452 230.389 65.3509 230.347 65.4389 229.885C65.59 229.093 65.1252 228.583 64.352 228.619" stroke="#3D32C0" stroke-width="0.875365" stroke-linecap="round" stroke-linejoin="round"/>
<defs>
<filter id="filter0_d" x="42.7285" y="0.5" width="189.788" height="404.575" filterUnits="userSpaceOnUse" color-interpolation-filters="sRGB">
<feFlood flood-opacity="0" result="BackgroundImageFix"/>
<feColorMatrix in="SourceAlpha" type="matrix" values="0 0 0 0 0 0 0 0 0 0 0 0 0 0 0 0 0 0 127 0"/>
<feOffset dx="2.22853" dy="6.68558"/>
<feGaussianBlur stdDeviation="1.5"/>
<feColorMatrix type="matrix" values="0 0 0 0 0 0 0 0 0 0 0 0 0 0 0 0 0 0 0.25 0"/>
<feBlend mode="normal" in2="BackgroundImageFix" result="effect1_dropShadow"/>
<feBlend mode="normal" in="SourceGraphic" in2="effect1_dropShadow" result="shape"/>
</filter>
</defs>
</svg>
