<svg width="191" height="202" viewBox="0 0 191 202" fill="none" xmlns="http://www.w3.org/2000/svg">
<g filter="url(#filter0_i)">
<path fill-rule="evenodd" clip-rule="evenodd" d="M55.9779 33.2485C65.4479 30.411 73.9729 42.5783 83.8589 42.5939C92.3086 42.6073 99.2812 30.4429 107.223 33.3295C115.581 36.3677 115.198 49.1279 120.812 56.0258C124.996 61.1671 133.854 62.3593 135.962 68.6438C138.239 75.4285 127.312 84.2212 132.066 89.5705C142.804 101.654 172.248 96.0749 174.559 112.075C176.468 125.297 147.88 117.764 137.32 125.948C131.249 130.653 132.162 140.218 129.136 147.277C124.669 157.697 126.216 179.834 115.044 177.911C99.547 175.245 102.642 144.338 87.4964 140.113C76.0528 136.921 72.1185 161.908 60.2599 162.629C51.6352 163.153 48.2679 150.248 43.9607 142.757C40.0683 135.988 36.1384 128.661 36.2378 120.853C36.336 113.148 47.4064 106.621 44.5121 99.4805C39.5142 87.1498 17.3895 84.9696 16.3183 71.7076C15.5194 61.8158 33.8315 62.3578 40.9558 55.4491C47.4253 49.1754 47.3452 35.8351 55.9779 33.2485Z" fill="#DBFCC4"/>
</g>
<path fill-rule="evenodd" clip-rule="evenodd" d="M55.9779 33.2485C65.4479 30.411 73.9729 42.5783 83.8589 42.5939C92.3086 42.6073 99.2812 30.4429 107.223 33.3295C115.581 36.3677 115.198 49.1279 120.812 56.0258C124.996 61.1671 133.854 62.3593 135.962 68.6438C138.239 75.4285 127.312 84.2212 132.066 89.5705C142.804 101.654 172.248 96.0749 174.559 112.075C176.468 125.297 147.88 117.764 137.32 125.948C131.249 130.653 132.162 140.218 129.136 147.277C124.669 157.697 126.216 179.834 115.044 177.911C99.547 175.245 102.642 144.338 87.4964 140.113C76.0528 136.921 72.1185 161.908 60.2599 162.629C51.6352 163.153 48.2679 150.248 43.9607 142.757C40.0683 135.988 36.1384 128.661 36.2378 120.853C36.336 113.148 47.4064 106.621 44.5121 99.4805C39.5142 87.1498 17.3895 84.9696 16.3183 71.7076C15.5194 61.8158 33.8315 62.3578 40.9558 55.4491C47.4253 49.1754 47.3452 35.8351 55.9779 33.2485Z" stroke="#3D32C0" stroke-width="0.253334"/>
<path d="M55.4966 111.789C56.2557 111.343 56.1672 108.326 56.1672 107.592H59.8556C60.1738 107.592 60.9996 107.881 61.259 108.088C61.7853 108.509 61.7918 108.754 62.1531 109.206C62.6347 109.808 61.8535 112.062 63.2087 112.062C64.6474 112.062 65.1088 112.829 65.1088 114.186C65.1088 115.336 65.2679 116.61 64.4878 117.477C64.0533 117.96 63.3812 117.974 62.7741 118.321C62.4765 118.491 62.6499 119.673 62.6499 119.998C62.6499 121.495 62.8815 122.262 64.0408 123.19C65.0118 123.966 64.9535 125.073 64.8867 126.34L64.8853 126.369C64.7747 128.469 62.8325 129.498 60.9733 129.498C59.3896 129.498 56.6127 129.396 55.7698 127.71C54.3923 124.955 54.826 121.794 54.826 118.768C54.826 118.191 55.0259 117.029 54.1554 116.98C53.5837 116.948 52.8876 117.131 52.4168 116.707C51.8954 116.238 51.9579 114.027 52.3671 113.515C53.2491 112.413 54.271 112.51 55.4966 111.789Z" fill="#FE966C"/>
<path d="M67.1206 118.942V107.515C67.5375 107.034 68.3769 106.267 68.6854 106.25C69.5602 106.202 70.2183 106.504 71.0326 106.685C72.0854 106.919 73.2121 107.659 74.0007 108.535C74.526 109.119 73.893 112.576 74.3981 112.72C75.0252 112.9 76.0197 112.286 76.7328 112.286H78.8564C83.2422 112.286 83.6625 116.194 83.6625 119.613C83.6625 121.611 83.439 123.653 83.439 125.586C83.439 127.424 82.9686 129.498 80.8683 129.498C79.361 129.498 78.213 129.369 77.4531 127.933C76.5984 126.319 76.5093 124.158 76.5093 122.333C76.5093 121.96 76.711 115.708 74.9942 117.253C74.5152 117.684 74.0503 118.822 74.0503 119.451C74.0503 120.871 73.8268 122.226 73.8268 123.637C73.8268 124.976 73.5558 126.179 73.1065 127.437C72.9402 127.902 72.2052 129.115 71.6908 129.262C69.603 129.859 68.1929 128.212 67.5677 126.493C66.7255 124.177 67.1206 121.413 67.1206 118.942Z" fill="#FE966C"/>
<path d="M106.352 111.826C108.133 111.43 107.633 109.647 107.585 108.039C108.885 108.037 110.17 107.368 111.381 107.368C111.934 107.368 112.791 107.207 113.281 107.48C114.018 107.889 114.064 107.58 114.064 108.597C114.064 109.605 113.179 111.392 114.846 111.392C115.547 111.392 116.11 111.347 116.746 111.665C117.411 111.997 117.103 112.452 117.467 112.907C117.936 113.494 117.771 115.848 117.467 116.533C117.085 117.392 115.405 118.026 115.405 118.657C115.405 121.357 118.496 122.685 117.082 125.798C116.399 127.298 115.612 128.899 113.964 129.498C112.931 129.874 110.705 129.841 109.817 129.051C108.618 127.986 107.456 127.261 106.96 125.648C106.714 124.847 106.687 123.404 106.687 122.581V120.01C106.687 119.376 106.722 118.731 106.687 118.098C106.64 117.248 105.844 117.427 105.234 117.427C103.344 117.427 103.781 115.725 103.781 114.298C103.781 112.917 105.258 112.069 106.352 111.826Z" fill="#FE966C"/>
<path d="M56.1672 107.592C56.1672 108.326 56.2557 111.343 55.4966 111.789C54.271 112.51 53.2491 112.413 52.3671 113.515C51.9579 114.027 51.8954 116.238 52.4168 116.707C52.8876 117.131 53.5837 116.948 54.1554 116.98C55.0259 117.029 54.826 118.191 54.826 118.768C54.826 121.794 54.3923 124.955 55.7698 127.71C56.6127 129.396 59.3896 129.498 60.9733 129.498C62.8325 129.498 64.7747 128.469 64.8853 126.369L64.8867 126.34C64.9535 125.073 65.0118 123.966 64.0408 123.19C62.8815 122.262 62.6499 121.495 62.6499 119.998C62.6499 119.673 62.4765 118.491 62.7741 118.321C63.3812 117.974 64.0533 117.96 64.4878 117.477C65.2679 116.61 65.1088 115.336 65.1088 114.186C65.1088 112.829 64.6474 112.062 63.2087 112.062C61.8535 112.062 62.6347 109.808 62.1531 109.206C61.7918 108.754 61.7853 108.509 61.259 108.088C60.9996 107.881 60.1738 107.592 59.8556 107.592H56.1672Z" fill="#FE966C"/>
<path fill-rule="evenodd" clip-rule="evenodd" d="M88.1131 114.284C88.0432 114.79 88.1367 115.192 88.8039 115.192H90.7164C91.0509 115.192 91.4004 115.178 91.7565 115.164C93.0028 115.114 94.3304 115.061 95.3858 115.589C96.5351 116.164 97.3366 117.874 95.3983 117.874C94.9974 117.874 94.5656 117.848 94.1238 117.82C93.1867 117.763 92.2042 117.702 91.3746 117.887C90.4198 118.099 89.6431 118.637 88.868 119.173C88.481 119.441 88.0944 119.709 87.6862 119.936C86.257 120.73 86.3015 122.69 86.3354 124.181C86.3403 124.396 86.345 124.601 86.345 124.791C86.345 130.205 92.2084 130.535 96.3545 130.392C97.7945 130.343 100.814 128.536 101.322 127.139C101.961 125.383 102.44 123.97 102.44 122.072C102.44 120.79 102.254 119.52 102.068 118.254C102.038 118.053 102.009 117.852 101.98 117.651C101.964 117.537 101.947 117.41 101.93 117.275C101.787 116.181 101.566 114.492 100.763 113.851C100.591 113.712 100.476 113.507 100.357 113.293C100.188 112.99 100.011 112.672 99.6455 112.509L97.7454 111.665C96.7066 111.203 95.2541 111.279 93.9564 111.347C93.5179 111.37 93.097 111.392 92.7158 111.392C92.4193 111.392 92.1086 111.378 91.7918 111.365C90.7697 111.321 89.6838 111.274 88.8039 111.665C87.4802 112.253 86.887 113.449 88.1131 114.284ZM94.927 122.504C95.0776 122.533 95.2602 122.569 95.5101 122.569C95.5101 123.535 95.3929 123.921 94.2806 123.674C93.8335 123.574 93.8714 122.99 94.1191 122.742C94.4504 122.411 94.6239 122.445 94.927 122.504Z" fill="#FE966C"/>
<path d="M96.8513 76.2961C99.7758 77.4102 103.781 77.0727 103.781 73.1169C103.781 71.5013 103.238 70.4129 101.769 69.6396C100.407 68.9225 98.9363 68.4723 97.4101 68.4723C95.931 68.4723 94.5316 68.311 93.1629 68.9194C92.2625 69.3195 90.6884 70.0402 89.9713 70.7573C89.1723 71.5563 88.7053 72.9363 88.5804 74.0607C88.515 74.6493 88.1333 75.1197 88.1333 75.7373C88.1333 76.6364 87.9097 77.5779 87.9097 78.5191C87.9097 80.723 88.0367 82.8775 89.9216 84.3435C91.9434 85.916 94.2406 87.2495 96.8637 87.2495C99.108 87.2495 101.854 87.506 103.446 85.5606C104.415 84.3753 105.007 81.9034 104.278 80.444C103.202 78.2926 100.689 78.7551 98.5278 78.7551C97.7174 78.7551 95.3349 79.1404 95.0754 77.9727C95.0178 77.7136 94.925 76.5335 95.1126 76.3458C95.3464 76.112 96.52 76.2961 96.8513 76.2961Z" fill="#FE966C"/>
<path d="M106.016 64.4486C106.016 67.6039 106.24 70.7729 106.24 73.9614C106.24 75.8122 106.311 77.6171 106.737 79.4257C107.076 80.8672 106.936 82.4244 107.146 83.8965C107.293 84.9232 108.254 85.7267 109.047 86.2312C109.44 86.4815 111.386 86.5612 111.654 86.1318C112.173 85.3028 112.813 84.5392 112.934 83.4494C113.052 82.3877 112.776 81.317 113.219 80.3198C114.349 77.7782 115.364 82.4232 115.728 82.8905C116.925 84.4292 117.565 85.97 119.429 86.9018C121.881 88.128 122.335 84.5704 122.335 83.052C122.335 81.9888 121.748 81.0191 121.118 80.2081C120.581 79.5186 119.703 79.1151 119.255 78.308C118.723 77.3514 119.209 76.741 120.099 76.2465C120.982 75.7559 121.319 74.7714 121.776 73.949C122.303 73.0007 122.847 70.3977 122.111 69.4782C121.11 68.2273 119.027 68.1354 117.64 68.8697C116.265 69.598 115.4 72.0032 114.685 73.2908C114.383 73.8346 113.18 74.9549 112.499 74.9549C111.834 74.9549 111.891 73.5457 112.164 73.0548C112.804 71.9026 112.946 69.3544 112.946 68.0252C112.946 66.2697 112.625 65.5333 111.332 64.4983C111.086 64.3021 109.151 64.2251 108.823 64.2251L106.016 64.4486Z" fill="#FE966C"/>
<path d="M68.2383 68.9193V75.1784C68.2383 76.1176 68.348 76.9729 68.4495 77.8857C68.5262 78.5764 68.3687 79.298 68.4743 79.9845C68.5544 80.505 68.909 80.908 68.909 81.4375C68.909 83.8419 70.5139 85.6658 72.5973 86.4671C74.2894 87.1179 76.2713 87.1791 77.1302 85.4612C77.3504 85.0208 77.8372 83.8964 78.4093 83.8964C79.4731 83.8964 79.1538 84.2961 79.6885 84.9645C80.6245 86.1345 81.2412 86.5789 82.8801 86.5789C85.0368 86.5789 84.5567 76.4196 84.5567 74.8431C84.5567 73.4236 84.5357 70.6541 83.3272 69.7141C82.6945 69.2221 80.2951 68.4579 79.5891 69.0932C78.1835 70.3583 78.6192 71.6239 78.5211 73.3901C78.428 75.0656 77.7553 76.7805 77.391 78.4197C77.2724 78.9534 76.277 79.7128 75.8883 78.9786C75.6825 78.5898 75.6151 77.2978 75.6151 76.855C75.6151 75.2892 75.168 73.9988 75.168 72.496C75.168 71.354 74.0397 70.037 72.8209 70.037C71.3716 70.037 69.7164 68.9193 68.2383 68.9193Z" fill="#FE966C"/>
<path d="M62.6499 69.59C63.9377 69.59 66.1089 69.9512 66.4624 68.3605C66.7654 66.9971 66.7852 65.7258 65.8788 64.5604C64.6435 62.9722 62.4187 63.3309 60.638 63.3309C59.1367 63.3309 55.9739 62.8354 55.7202 65.1192C55.6437 65.807 55.7512 68.3516 55.1489 68.6958C54.119 69.2843 52.1435 69.2023 52.1435 70.8194C52.1435 72.0765 52.4347 73.5256 53.9319 73.6137C55.2598 73.6918 54.9388 76.18 55.2234 77.1406C55.5938 78.3906 55.2731 80.2334 55.2731 81.5493C55.2731 83.0859 56.123 84.086 56.8379 85.337C57.4725 86.4477 59.5943 86.1318 60.638 86.1318C62.4588 86.1318 62.3266 83.8169 62.6995 82.6049C63.0994 81.3052 62.8734 79.6822 62.8734 78.308C62.8734 76.9681 62.336 75.1784 64.1029 75.1784C65.3327 75.1784 65.562 72.1548 64.6617 72.0489C63.2508 71.8829 62.6499 70.9638 62.6499 69.59Z" fill="#FE966C"/>
<path d="M88.1131 114.284C88.0442 114.637 88.1614 113.934 88.1131 114.284ZM88.1131 114.284C88.0432 114.79 88.1367 115.192 88.8039 115.192H90.7164C91.0509 115.192 91.4004 115.178 91.7565 115.164C93.0028 115.114 94.3304 115.061 95.3858 115.589C96.5351 116.164 97.3366 117.874 95.3983 117.874C94.9974 117.874 94.5656 117.848 94.1238 117.82C93.1867 117.763 92.2042 117.702 91.3746 117.887C90.4198 118.099 89.6431 118.637 88.868 119.173C88.481 119.441 88.0944 119.709 87.6862 119.936C86.257 120.73 86.3015 122.69 86.3354 124.181C86.3403 124.396 86.345 124.601 86.345 124.791C86.345 130.205 92.2084 130.535 96.3545 130.392C97.7945 130.343 100.814 128.536 101.322 127.139C101.961 125.383 102.44 123.97 102.44 122.072C102.44 120.79 102.254 119.52 102.068 118.254C102.038 118.053 102.009 117.852 101.98 117.651C101.964 117.537 101.947 117.41 101.93 117.275C101.787 116.181 101.566 114.492 100.763 113.851C100.591 113.712 100.476 113.507 100.357 113.293C100.188 112.99 100.011 112.672 99.6455 112.509L97.7454 111.665C96.7066 111.203 95.2541 111.279 93.9564 111.347C93.5179 111.37 93.097 111.392 92.7158 111.392C92.4193 111.392 92.1086 111.378 91.7918 111.365C90.7697 111.321 89.6838 111.274 88.8039 111.665C87.4802 112.253 86.887 113.449 88.1131 114.284ZM88.1131 114.284C87.6862 114.298 88.1265 114.293 88.1333 114.298M107.585 108.039C107.588 108.262 107.582 107.964 107.585 108.039ZM107.585 108.039C107.633 109.647 108.133 111.43 106.352 111.826C105.258 112.069 103.781 112.917 103.781 114.298C103.781 115.725 103.344 117.427 105.234 117.427C105.844 117.427 106.64 117.248 106.687 118.098C106.722 118.731 106.687 119.376 106.687 120.01V122.581C106.687 123.404 106.714 124.847 106.96 125.648C107.456 127.261 108.618 127.986 109.817 129.051C110.705 129.841 112.931 129.874 113.964 129.498C115.612 128.899 116.399 127.298 117.082 125.798C118.496 122.685 115.405 121.357 115.405 118.657C115.405 118.026 117.085 117.392 117.467 116.533C117.771 115.848 117.936 113.494 117.467 112.907C117.103 112.452 117.411 111.997 116.746 111.665C116.11 111.347 115.547 111.392 114.846 111.392C113.179 111.392 114.064 109.605 114.064 108.597C114.064 107.58 114.018 107.889 113.281 107.48C112.791 107.207 111.934 107.368 111.381 107.368C110.17 107.368 108.885 108.037 107.585 108.039ZM62.6499 69.59C63.9377 69.59 66.1089 69.9512 66.4624 68.3605C66.7654 66.9971 66.7852 65.7258 65.8788 64.5604C64.6435 62.9722 62.4187 63.3309 60.638 63.3309C59.1367 63.3309 55.9739 62.8354 55.7202 65.1192C55.6437 65.807 55.7512 68.3516 55.1489 68.6958C54.119 69.2843 52.1435 69.2023 52.1435 70.8194C52.1435 72.0765 52.4347 73.5256 53.9319 73.6137C55.2598 73.6918 54.9388 76.18 55.2234 77.1406C55.5938 78.3906 55.2731 80.2334 55.2731 81.5493C55.2731 83.0859 56.123 84.086 56.8379 85.337C57.4725 86.4477 59.5943 86.1318 60.638 86.1318C62.4588 86.1318 62.3266 83.8169 62.6995 82.6049C63.0994 81.3052 62.8734 79.6822 62.8734 78.308C62.8734 76.9681 62.336 75.1784 64.1029 75.1784C65.3327 75.1784 65.562 72.1548 64.6617 72.0489C63.2508 71.8829 62.6499 70.9638 62.6499 69.59ZM68.2383 68.9193V75.1784C68.2383 76.1176 68.348 76.9729 68.4495 77.8857C68.5262 78.5764 68.3687 79.298 68.4743 79.9845C68.5544 80.505 68.909 80.908 68.909 81.4375C68.909 83.8419 70.5139 85.6658 72.5973 86.4671C74.2894 87.1179 76.2713 87.1791 77.1302 85.4612C77.3504 85.0208 77.8372 83.8964 78.4093 83.8964C79.4731 83.8964 79.1538 84.2961 79.6885 84.9645C80.6245 86.1345 81.2412 86.5789 82.8801 86.5789C85.0368 86.5789 84.5567 76.4196 84.5567 74.8431C84.5567 73.4236 84.5357 70.6541 83.3272 69.7141C82.6945 69.2221 80.2951 68.4579 79.5891 69.0932C78.1835 70.3583 78.6192 71.6239 78.5211 73.3901C78.428 75.0656 77.7553 76.7805 77.391 78.4197C77.2724 78.9534 76.277 79.7128 75.8883 78.9786C75.6825 78.5898 75.6151 77.2978 75.6151 76.855C75.6151 75.2892 75.168 73.9988 75.168 72.496C75.168 71.354 74.0397 70.037 72.8209 70.037C71.3716 70.037 69.7164 68.9193 68.2383 68.9193ZM96.8513 76.2961C99.7758 77.4102 103.781 77.0727 103.781 73.1169C103.781 71.5013 103.238 70.4129 101.769 69.6396C100.407 68.9225 98.9363 68.4723 97.4101 68.4723C95.931 68.4723 94.5316 68.311 93.1629 68.9194C92.2625 69.3195 90.6884 70.0402 89.9713 70.7573C89.1723 71.5563 88.7053 72.9363 88.5804 74.0607C88.515 74.6493 88.1333 75.1197 88.1333 75.7373C88.1333 76.6364 87.9097 77.5779 87.9097 78.5191C87.9097 80.723 88.0367 82.8775 89.9216 84.3435C91.9434 85.916 94.2406 87.2495 96.8637 87.2495C99.108 87.2495 101.854 87.506 103.446 85.5606C104.415 84.3753 105.007 81.9034 104.278 80.444C103.202 78.2926 100.689 78.7551 98.5278 78.7551C97.7174 78.7551 95.3349 79.1404 95.0754 77.9727C95.0178 77.7136 94.925 76.5335 95.1126 76.3458C95.3464 76.112 96.52 76.2961 96.8513 76.2961ZM106.016 64.4486C106.016 67.6039 106.24 70.7729 106.24 73.9614C106.24 75.8122 106.311 77.6171 106.737 79.4257C107.076 80.8672 106.936 82.4244 107.146 83.8965C107.293 84.9232 108.254 85.7267 109.047 86.2312C109.44 86.4815 111.386 86.5612 111.655 86.1318C112.173 85.3028 112.813 84.5392 112.934 83.4494C113.052 82.3877 112.776 81.317 113.219 80.3198C114.349 77.7782 115.364 82.4232 115.728 82.8905C116.925 84.4292 117.565 85.97 119.429 86.9018C121.881 88.128 122.335 84.5704 122.335 83.052C122.335 81.9888 121.748 81.0191 121.118 80.2081C120.581 79.5186 119.703 79.1151 119.255 78.308C118.723 77.3514 119.209 76.741 120.099 76.2465C120.982 75.7559 121.319 74.7714 121.776 73.949C122.303 73.0007 122.847 70.3977 122.111 69.4782C121.11 68.2273 119.027 68.1354 117.64 68.8697C116.265 69.598 115.4 72.0032 114.685 73.2908C114.383 73.8346 113.18 74.9549 112.499 74.9549C111.834 74.9549 111.891 73.5457 112.164 73.0548C112.804 71.9026 112.946 69.3544 112.946 68.0252C112.946 66.2697 112.625 65.5333 111.332 64.4983C111.086 64.3021 109.151 64.2251 108.823 64.2251L106.016 64.4486ZM56.1672 107.592C56.1672 108.326 56.2557 111.343 55.4966 111.789C54.271 112.51 53.2491 112.413 52.3671 113.515C51.9579 114.027 51.8954 116.238 52.4168 116.707C52.8876 117.131 53.5837 116.948 54.1554 116.98C55.0259 117.029 54.826 118.191 54.826 118.768C54.826 121.794 54.3923 124.955 55.7698 127.71C56.6127 129.396 59.3896 129.498 60.9733 129.498C62.8325 129.498 64.7747 128.469 64.8853 126.369L64.8867 126.34C64.9535 125.073 65.0118 123.966 64.0408 123.19C62.8815 122.262 62.6499 121.495 62.6499 119.998C62.6499 119.673 62.4765 118.491 62.7741 118.321C63.3812 117.974 64.0533 117.96 64.4878 117.477C65.2679 116.61 65.1088 115.336 65.1088 114.186C65.1088 112.829 64.6474 112.062 63.2087 112.062C61.8535 112.062 62.6347 109.808 62.1531 109.206C61.7918 108.754 61.7853 108.509 61.259 108.088C60.9996 107.881 60.1738 107.592 59.8556 107.592H56.1672ZM67.1206 107.515V118.942C67.1206 121.413 66.7255 124.177 67.5677 126.493C68.1929 128.212 69.603 129.859 71.6908 129.262C72.2052 129.115 72.9402 127.902 73.1065 127.437C73.5558 126.179 73.8268 124.976 73.8268 123.637C73.8268 122.226 74.0503 120.871 74.0503 119.451C74.0503 118.822 74.5152 117.684 74.9942 117.253C76.711 115.708 76.5093 121.96 76.5093 122.333C76.5093 124.158 76.5984 126.319 77.4531 127.933C78.213 129.369 79.361 129.498 80.8683 129.498C82.9686 129.498 83.439 127.424 83.439 125.586C83.439 123.653 83.6625 121.611 83.6625 119.613C83.6625 116.194 83.2422 112.286 78.8564 112.286H76.7328C76.0197 112.286 75.0252 112.9 74.3981 112.72C73.893 112.576 74.526 109.119 74.0007 108.535C73.2121 107.659 72.0854 106.919 71.0326 106.685C70.2183 106.504 69.5602 106.202 68.6854 106.25C68.3769 106.267 67.5375 107.034 67.1206 107.515ZM95.5101 122.569C95.5101 123.535 95.3929 123.921 94.2806 123.674C93.8335 123.574 93.8714 122.99 94.1191 122.742C94.4504 122.411 94.6239 122.445 94.927 122.504C95.0776 122.533 95.2602 122.569 95.5101 122.569Z" stroke="#3D32C0" stroke-width="0.55604" stroke-linecap="round" stroke-linejoin="round"/>
<defs>
<filter id="filter0_i" x="0.828125" y="0.828857" width="190.613" height="201.582" filterUnits="userSpaceOnUse" color-interpolation-filters="sRGB">
<feFlood flood-opacity="0" result="BackgroundImageFix"/>
<feBlend mode="normal" in="SourceGraphic" in2="BackgroundImageFix" result="shape"/>
<feColorMatrix in="SourceAlpha" type="matrix" values="0 0 0 0 0 0 0 0 0 0 0 0 0 0 0 0 0 0 127 0" result="hardAlpha"/>
<feOffset dx="2.22416" dy="3.71745"/>
<feGaussianBlur stdDeviation="0.619574"/>
<feComposite in2="hardAlpha" operator="arithmetic" k2="-1" k3="1"/>
<feColorMatrix type="matrix" values="0 0 0 0 0 0 0 0 0 0 0 0 0 0 0 0 0 0 0.25 0"/>
<feBlend mode="normal" in2="shape" result="effect1_innerShadow"/>
</filter>
</defs>
</svg>
