<svg width="397" height="58" viewBox="0 0 397 58" fill="none" xmlns="http://www.w3.org/2000/svg">
<path d="M1 11.8362C1 20.7993 1 29.7623 1 38.7254" stroke="#3D32C0" stroke-width="2" stroke-linecap="round" stroke-linejoin="round"/>
<path d="M14.6895 11.8362C14.6895 19.8215 14.6895 27.8068 14.6895 35.792" stroke="#3D32C0" stroke-width="2" stroke-linecap="round" stroke-linejoin="round"/>
<path d="M2.46484 26.0141C7.57161 25.3521 12.1228 27.4808 17.1317 27.4808" stroke="#3D32C0" stroke-width="2" stroke-linecap="round" stroke-linejoin="round"/>
<path d="M23.4898 21.6142C19.1597 25.6649 27.0757 30.0992 30.0627 26.2587C33.0383 22.4329 27.9288 20.1215 24.9565 22.1031" stroke="#3D32C0" stroke-width="2" stroke-linecap="round" stroke-linejoin="round"/>
<path d="M38.1543 20.1475C38.1686 20.8747 39.6545 30.2121 40.8704 29.3278C42.3941 28.2197 44.1278 20.6907 46.2211 20.6907C47.2936 20.6907 48.0884 25.5572 49.0186 26.3945C49.7633 27.0647 51.9032 19.2645 52.3323 18.1919" stroke="#3D32C0" stroke-width="2" stroke-linecap="round" stroke-linejoin="round"/>
<path d="M83.1341 16.7251C83.1341 19.8384 82.7732 24.1398 83.6502 27.2092C83.8531 27.9193 89.7894 25.7408 90.1959 24.9277C92.3439 20.6317 88.2033 16.7251 84.1119 16.7251" stroke="#3D32C0" stroke-width="2" stroke-linecap="round" stroke-linejoin="round"/>
<path d="M98.7795 17.2141C95.5743 20.6196 95.7536 27.7479 102.202 25.9056C104.892 25.137 104.917 22.8893 103.668 21.0166C102.793 19.7029 100.831 18.8733 100.246 17.703" stroke="#3D32C0" stroke-width="2" stroke-linecap="round" stroke-linejoin="round"/>
<path d="M135.445 19.1697C135.445 22.429 135.445 25.6883 135.445 28.9476" stroke="#3D32C0" stroke-width="2" stroke-linecap="round" stroke-linejoin="round"/>
<path d="M159.402 19.6586C156.662 19.6586 155.304 19.5396 153.508 21.6957C152.021 23.4801 151.043 26.0703 151.634 28.4315C152.277 31.0041 156.721 28.7522 157.69 27.6982C159.328 25.9179 159.89 23.8483 159.89 21.4784C159.89 17.5936 161.058 29.1634 161.846 32.9674C163.064 38.8498 165.537 45.7646 165.268 51.817C165.122 55.1156 160.479 51.0931 159.89 50.0787C157.888 46.6299 158.174 42.979 160.488 39.7033C164.675 33.7767 174.876 30.4791 174.041 22.1302C173.893 20.6489 172.177 19.8676 171.407 21.4784C170.2 24.0006 170 28.7076 173.362 29.5723C178.901 30.9966 181.728 17.4233 182.488 13.7919C183.306 9.88498 183.357 6.13225 183.357 2.16702C183.357 -3.62959 182.838 13.7534 182.868 19.5499C182.887 23.058 182.146 29.6919 184.824 32.3699" stroke="#3D32C0" stroke-width="2" stroke-linecap="round" stroke-linejoin="round"/>
<path d="M177.98 13.3028C181.183 13.3028 186.306 12.3322 189.225 13.7917" stroke="#3D32C0" stroke-width="2" stroke-linecap="round" stroke-linejoin="round"/>
<path d="M228.823 4.01392C228.684 11.0788 227.407 17.9266 227.954 25.0364C228.171 27.8621 228.188 33.3467 231.566 34.081C234.518 34.7227 236.497 32.6104 237.351 29.9254C238.34 26.8192 235.28 23.7821 232.625 22.7006C229.816 21.556 238.31 22.5757 239.361 22.4833C241.395 22.3045 246.456 20.9927 245.907 17.9746C245.499 15.7325 242.029 18.159 241.561 19.0067C240.628 20.6992 240.302 23.1056 240.638 25.0092C241.129 27.7924 243.646 27.9684 245.934 28.4587" stroke="#3D32C0" stroke-width="2" stroke-linecap="round" stroke-linejoin="round"/>
<path d="M252.78 21.6143C252.062 22.4019 247.285 29.9255 251.069 29.9255C253.626 29.9255 253.309 27.5713 254.002 25.7699C254.17 25.3344 254.994 21.5729 255.116 21.8315C256.464 24.6966 254.197 29.5244 258.647 30.4144" stroke="#3D32C0" stroke-width="2" stroke-linecap="round" stroke-linejoin="round"/>
<path d="M266.959 23.0808C263.571 23.1596 260.604 24.0091 260.604 27.7525C260.604 31.6016 266.486 32.3541 268.915 29.9253" stroke="#3D32C0" stroke-width="2" stroke-linecap="round" stroke-linejoin="round"/>
<path d="M273.802 7.92505C273.802 15.5754 273.802 23.2257 273.802 30.876C273.802 31.9171 273.802 32.9583 273.802 33.9995C273.802 35.8464 273.727 30.3028 273.829 28.4586C273.93 26.652 277.254 19.4165 280.158 22.3203C281.776 23.9387 281.624 29.1823 281.624 31.392" stroke="#3D32C0" stroke-width="2" stroke-linecap="round" stroke-linejoin="round"/>
<path d="M314.381 20.6365C314.381 25.29 314.381 29.9436 314.381 34.5971C314.381 36.7729 314.381 35.3533 314.381 33.9996C314.381 30.04 315.056 25.0365 319.759 25.0365" stroke="#3D32C0" stroke-width="2" stroke-linecap="round" stroke-linejoin="round"/>
<path d="M326.604 29.9253C328.573 29.5503 334.254 29.1172 334.427 26.0142C334.563 23.5685 330.038 23.0808 328.315 23.0808C324.893 23.0808 323.616 27.4273 324.948 30.3871C326.292 33.3755 330.208 33.3476 332.96 33.3476" stroke="#3D32C0" stroke-width="2" stroke-linecap="round" stroke-linejoin="round"/>
<path d="M345.181 24.5476C341.875 25.8038 337.848 29.7595 337.848 33.5921C337.848 35.1395 340.653 34.9308 341.677 34.76C343.668 34.4283 344.154 31.2073 344.692 29.6538C345.194 28.2054 345.67 27.1946 345.67 25.634C345.67 24.7284 345.67 23.5905 345.67 25.3352C345.67 28.2566 343.823 33.0581 347.626 34.3255" stroke="#3D32C0" stroke-width="2" stroke-linecap="round" stroke-linejoin="round"/>
<path d="M359.361 25.0364C356.868 26.4606 355.312 28.4178 354.988 31.3378C354.859 32.491 354.556 33.8366 355.965 33.8366C361.492 33.8366 361.532 23.6321 362.783 19.6586C363.269 18.1133 363.272 16.6115 363.272 15.0141C363.272 12.8116 363.091 18.6372 363.027 19.224C362.593 23.2169 362.783 27.2724 362.783 31.2834C362.783 32.899 362.401 35.1759 364.249 35.7921" stroke="#3D32C0" stroke-width="2" stroke-linecap="round" stroke-linejoin="round"/>
<path d="M368.648 27.4809C368.648 28.7603 367.683 33.7794 369.626 33.8366C372.127 33.9101 373.043 32.4327 373.645 30.1427C374.011 28.7539 374.026 24.4152 374.026 25.8513C374.026 31.2653 374.026 36.6794 374.026 42.0934C374.026 45.9599 375.087 51.7051 373.292 55.2936C371.759 58.3609 371.581 52.7384 371.581 51.8985C371.581 45.2339 373.762 39.4128 377.665 33.9724C378.979 32.1415 381.382 30.3688 382.337 28.4587" stroke="#3D32C0" stroke-width="2" stroke-linecap="round" stroke-linejoin="round"/>
<path d="M387.715 12.3252C389.711 11.6465 394.531 9.29153 395.537 12.8141C396.083 14.7259 396.443 16.5794 394.831 18.1919C393.912 19.1112 392.645 19.6187 391.626 20.4191C390.458 21.3368 389.814 22.7842 388.72 23.787C387.723 24.7009 388.204 27.1733 388.204 28.4587" stroke="#3D32C0" stroke-width="2" stroke-linecap="round" stroke-linejoin="round"/>
<path d="M389.674 33.3477C390.11 35.2841 390.705 36.5713 392.607 35.3032" stroke="#3D32C0" stroke-width="2" stroke-linecap="round" stroke-linejoin="round"/>
</svg>
