<svg width="294" height="329" viewBox="0 0 294 329" fill="none" xmlns="http://www.w3.org/2000/svg">
<path d="M2.69456 97.0521C2.31604 102.219 1.9158 107.358 1.59939 112.419C6.03107 113.284 9.35156 114.242 13.8315 114.242C19.3516 115.419 26.9329 116.222 32.7618 116.222C37.3384 116.222 42.0725 116.984 46.623 117.489C53.1626 118.216 60.0145 117.648 66.583 117.648C85.3634 117.648 104.132 118.24 122.82 116.222C133.427 115.077 144.014 113.326 154.304 110.519C163.753 107.942 172.496 104.02 181.67 100.698C189.433 97.886 197.631 96.0366 204.996 92.2226C213.478 87.8303 220.22 82.4992 227.603 76.66L228.006 76.3417C233.008 72.3866 238.089 68.2317 243.53 64.8963C247.306 62.582 248.35 59.0931 251.213 56.0252C253.021 54.0888 254.27 52.0833 256.605 50.8024C253.96 43.964 250.721 37.3241 248.015 30.5037C245.39 31.4799 243.371 35.1827 241.461 37.1441C236.649 42.0869 232.237 46.5383 226.413 50.3067C218.995 55.107 212.801 61.6437 205.389 66.5287C197.873 71.4822 190.614 76.7422 183.19 81.8258C171.854 89.5887 156.298 93.4336 143.133 96.4114C134.293 98.4109 125.166 100.91 116.097 101.392C107.223 101.863 98.2636 101.534 89.38 101.534C60.3614 101.534 31.6855 97.0964 2.69456 97.0521Z" fill="#75D4A7"/>
<path d="M1 128.919C1 134.551 1.26848 140.047 1.80195 145.449H59.4941C76.2483 145.449 93.2426 146.301 109.909 144.419C128.307 142.342 145.435 138.726 163.175 133.37C178.349 128.789 193.692 124.891 208.6 119.469C220.229 115.241 230.973 108.313 241.946 102.678C250.335 98.3696 264.188 90.2208 270.881 83.5276C269.043 79.6467 267.131 75.7974 265.281 71.9189C259.852 78.4189 253.549 85.3286 250.501 86.8363C244.67 89.7194 239.162 92.6526 233.748 96.2619C229.902 98.8261 225.54 101.986 221.115 103.39C207.187 107.812 193.74 114.081 179.769 118.361C166.726 122.356 153.271 123.488 139.849 125.489C126.183 127.527 112.906 131.905 99.0577 131.905H55.8901C46.4551 131.905 37.0792 131.363 27.6926 131.192C18.7056 131.029 9.95272 128.919 1 128.919Z" fill="#75D4A7"/>
<path fill-rule="evenodd" clip-rule="evenodd" d="M141.536 200.273L141.516 200.262C140.111 199.465 138.704 198.672 137.296 197.879L137.137 197.79C138.605 198.616 140.072 199.443 141.536 200.273ZM136.356 197.35L135.332 196.773C135.674 196.965 136.015 197.157 136.356 197.35Z" fill="#75D4A7"/>
<path d="M165.865 215.195C168.256 216.85 169.68 218.047 172.268 217.472C174.38 217.002 176.838 216.922 178.992 216.796C180.142 216.728 183.63 216.257 184.613 215.373C184.665 215.325 184.717 215.277 184.767 215.227C187.22 212.813 187.317 207.588 188.739 204.629C190.733 200.483 192.888 196.412 195.185 192.42C188.766 194.54 181.752 196.227 177.433 196.736C171.642 197.417 166.643 198.914 160.681 198.914L141.593 200.305L141.536 200.273C149.804 204.959 157.999 209.749 165.865 215.195Z" fill="#75D4A7"/>
<path d="M281.206 110.217C280.483 107.146 279.49 104.055 278.369 101.018C276.589 101.861 271.985 104.86 270.144 105.529C266.414 106.885 261.899 110.677 259.055 113.371C255.205 117.018 250.829 121.048 246.065 123.43C233.106 129.91 220.884 138.077 206.858 142.043C187.046 147.647 167.448 153.534 147.176 157.251C137.765 158.976 128.619 161.499 118.978 161.805C109.609 162.103 100.195 161.845 90.8204 161.845C75.4432 161.845 60.4469 160.107 45.1578 158.637C37.7959 157.929 30.3748 157.811 23.0988 156.538C16.9515 155.462 10.3364 154.419 4.09671 154.419C4.34551 155.884 3.80623 159.463 4.09524 160.919C7.09827 160.919 11.3516 162.367 15.0641 162.367C17.8516 162.367 19.765 163.855 22.2502 164.145C31.8119 165.263 40.8013 167.975 50.1407 170.051C60.6256 172.381 67.2224 175.04 77.8516 176.419C90.8214 178.102 90.6671 175.708 101.852 182.419C112.054 182.419 136.789 186.472 146.781 184.3C156.971 182.085 167.549 182.655 177.79 180.38C187.618 178.196 203.494 168.325 213.861 165.144C216.924 161.301 220.095 157.558 223.352 153.919C227.736 149.018 233.804 144.438 238.757 140.061C244.861 134.668 252.038 131.922 258.928 127.788C261.959 125.97 265.29 123.972 267.857 121.527C268.791 120.638 269.671 119.361 270.881 118.823C271.748 118.438 272.529 117.964 273.122 117.222C275.206 114.618 278.68 112.66 281.444 111.278C281.369 110.925 281.289 110.571 281.206 110.217Z" fill="#75D4A7"/>
<path d="M1.61719 45.1836C5.0246 61.4634 3.98605 79.4215 2.69456 97.0521M1 128.919C1 152.547 5.72623 173.798 14.9221 195.664C17.0245 200.663 20.0464 204.861 22.6062 209.609C25.4154 214.82 27.2108 220.448 29.7923 225.76C32.9528 232.264 35.0502 239.433 38.7571 245.611M1 128.919C9.95272 128.919 18.7056 131.029 27.6926 131.192C37.0792 131.363 46.4551 131.905 55.8901 131.905H99.0577C112.906 131.905 126.183 127.527 139.849 125.489C153.271 123.488 166.726 122.356 179.769 118.361C193.74 114.081 207.187 107.812 221.115 103.39C225.54 101.986 229.902 98.8261 233.748 96.2619C239.162 92.6526 244.67 89.7194 250.501 86.8363C253.549 85.3286 259.852 78.4189 265.281 71.9189C267.131 75.7974 269.043 79.6467 270.881 83.5276M1 128.919C1 118.738 1.89567 107.958 2.69456 97.0521M1 128.919C1 134.551 1.26848 140.047 1.80195 145.449M241.746 1C241.746 10.7179 243.644 18.8281 247.011 27.8944C247.335 28.7676 247.671 29.6371 248.015 30.5037M273.906 90.15C268.758 78.3286 262.275 67.1026 258.075 54.8244C257.613 53.4743 257.12 52.1346 256.605 50.8024M273.906 90.15C272.937 87.9251 271.921 85.7213 270.881 83.5276M273.906 90.15C276.617 96.3757 279.59 103.349 281.206 110.217M292.974 196.945C290.906 195.911 290.68 184.952 290.377 182.217C289.639 175.576 288.838 168.881 287.993 162.224C286.941 153.941 285.991 145.363 285.325 137.037C284.723 129.511 283.083 122.407 282.088 114.945C281.879 113.382 281.579 111.802 281.206 110.217M2.25781 97.0517C2.4034 97.0517 2.54899 97.0518 2.69456 97.0521M248.15 30.4561C248.104 30.4711 248.059 30.487 248.015 30.5037M61.8086 75.2801C67.3296 76.0815 72.7534 77.0092 78.1729 78.3395C84.8663 79.9824 91.5258 80.3627 98.3082 81.3989C114.203 83.8272 129.512 86.3474 145.124 81.0432C154.944 77.7068 164.842 71.8967 173.548 66.2797C175.382 65.0966 180.912 61.9297 180.912 59.2715M125.844 49.0259C127.081 51.9381 129.846 53.6149 132.887 51.5872M101.852 182.419C90.6671 175.708 90.8214 178.102 77.8516 176.419C67.2224 175.04 60.6256 172.381 50.1407 170.051C40.8013 167.975 31.8119 165.263 22.2502 164.145C19.765 163.855 17.8516 162.367 15.0641 162.367C11.3516 162.367 7.09827 160.919 4.09524 160.919C3.80623 159.463 4.34551 155.884 4.09671 154.419M101.852 182.419C112.054 182.419 136.789 186.472 146.781 184.3C156.971 182.085 167.549 182.655 177.79 180.38C187.618 178.196 203.494 168.325 213.861 165.144C216.924 161.301 220.095 157.558 223.352 153.919M101.852 182.419C106.923 185.462 130.208 193.887 135.332 196.773M223.352 153.919C227.736 149.018 233.804 144.438 238.757 140.061C244.861 134.668 252.038 131.922 258.928 127.788C261.959 125.97 265.29 123.972 267.857 121.527C268.791 120.638 269.671 119.361 270.881 118.823C271.748 118.438 272.529 117.964 273.122 117.222C275.206 114.618 278.68 112.66 281.444 111.278C281.369 110.925 281.289 110.571 281.206 110.217M223.352 153.919C212.799 165.712 203.141 178.593 195.185 192.42M169.387 217.436C172.891 220.219 173.78 223.604 176.288 227.041C178.173 229.624 179.764 232.422 181.589 235.045C188.337 244.746 193.332 255.588 198.842 265.96C202.223 272.322 205.426 278.77 208.59 285.241C211.641 291.482 213.117 298.115 215.491 304.558C217.271 309.389 218.356 315.374 220.614 319.891M184.756 214.875C184.759 214.992 184.763 215.109 184.767 215.227M233.422 327.575C230.987 322.704 229.185 317.027 226.236 312.349C220.32 302.966 216.05 292.952 211.615 282.751C206.227 270.36 198.636 259.056 193.4 246.571C189.4 237.031 185.152 225.637 184.767 215.227M200.796 194.415C200.672 194.752 200.246 195.494 200.612 195.828C200.755 195.959 201.297 195.97 201.136 196.077C200.837 196.277 201.068 196.672 201.267 196.771M207.865 192.765C207.865 192.499 207.652 191.378 208.101 191.352C208.32 191.339 208.555 191.406 208.572 191.116C208.598 190.67 208.659 189.894 209.043 189.702M214.935 178.863C214.935 179.732 214.844 180.356 215.354 181.036C215.565 181.318 215.414 182.296 215.301 182.581C214.837 183.756 214.683 183.543 215.171 184.518M218.469 178.863C218.469 178.176 218.442 177.481 218.469 176.794C218.485 176.36 219.017 176.323 218.927 175.917C218.675 174.783 217.946 173.679 219.411 173.679M223.652 172.736C224.718 172.736 225.537 172.345 225.537 173.561C225.537 174.208 225.137 175.046 225.315 175.669C225.486 176.268 226.44 176.661 226.716 177.213M225.539 167.081C225.539 166.761 225.706 165.057 225.382 165.144C224.037 165.506 223.085 164.149 223.183 162.945C223.293 161.581 226.301 161.454 227.188 161.897M230.958 157.185C229.859 157.212 229.78 157.242 229.78 158.232C229.78 158.682 229.214 157.437 229.073 157.185C228.709 156.533 227.849 156.098 227.424 156.949M232.371 165.432C233.606 165.463 233.503 165.8 233.772 166.741C233.928 167.287 234.679 167.081 235.199 167.081M236.377 160.012C236.444 157.312 238.215 159.8 237.791 160.012M237.791 152.001V150.116M196.319 209.73C196.153 210.583 195.877 211.129 196.791 211.485C197.591 211.796 197.847 211.93 198.087 212.794C198.222 213.282 197.999 214.458 198.44 214.679M203.388 207.846C201.971 207.704 202.165 206.565 202.21 205.437C202.241 204.679 203.234 205.059 203.624 205.254M206.451 200.305C206.899 199.252 206.922 199.249 207.865 199.114C208.383 199.04 208.572 198.653 208.572 198.185M246.509 154.828C246.509 153.553 246.147 152.008 247.203 151.084C247.624 150.716 248.158 150.738 248.158 150.116M243.21 146.581C245.81 144.956 243.034 144.34 242.738 144.932M253.107 142.811C253.127 141.829 253.118 141.115 254.037 140.599C254.295 140.453 254.908 140.474 254.286 140.455C253.566 140.432 253.216 139.512 254.05 139.512M189.015 213.029C189.015 214.065 188.998 214.217 189.434 214.914C189.621 215.214 189.869 215.459 189.67 215.857C189.346 216.505 188.843 216.634 189.068 217.506C189.234 218.154 189.65 218.594 190.193 218.92M163.095 222.926C162.939 222.085 163.004 221.105 162.401 220.452C162.085 220.109 161.928 219.562 161.917 219.104C161.893 218.083 161.987 217.978 160.975 217.978M153.67 217.978C152.169 218.954 152.728 219.125 152.728 220.465C152.728 221.241 151.75 221.513 151.078 221.513M145.187 219.156C145.187 217.162 145.422 214.876 145.422 213.03C145.422 212.593 144.188 212.779 143.904 212.414C143.601 212.026 143.773 211.145 143.773 210.673M137.176 207.845C136.636 207.845 134.339 207.485 134.597 208.644C134.647 208.871 135.488 209.068 135.356 209.141C134.723 209.493 133.827 208.983 133.222 209.364C132.813 209.621 132.606 210.244 132.464 210.67L132.463 210.673M125.629 209.259C125.629 208.545 125.27 207.424 125.433 206.746C125.579 206.137 126.053 205.792 126.284 205.254C126.391 205.004 125.976 204.855 125.891 204.665C125.521 203.831 126.69 202.782 126.336 201.719M115.497 196.064C115.004 197.901 113.089 197.412 111.648 198.276C111.068 198.624 111.255 199.196 111.255 199.834M116.204 202.19C115.934 202.255 113.192 203.534 114.424 204.259C114.726 204.436 116.085 204.07 116.191 204.442C116.303 204.834 115.976 205.583 116.558 205.712C117.056 205.822 117.868 205.697 118.09 205.254M126.573 194.179C126.035 194.179 124.427 193.89 123.876 194.205C123.572 194.379 123.586 195.067 123.457 195.357C123.203 195.93 123.067 196.477 122.803 197.006M111.491 192.294C110.332 192.294 109.037 191.861 108.533 193.014C108.103 193.997 107.596 194.415 106.543 194.415M100.417 184.282C98.8402 184.282 96.5897 183.591 96.6466 185.696C96.6643 186.349 99.0036 185.569 99.0036 186.167C99.0036 186.71 98.7679 187.249 98.7679 187.817M103.009 189.23C102.922 190.998 101.751 190.957 100.417 191.587C99.4547 192.041 99.4742 192.758 99.4742 193.707C99.4742 194.236 99.2998 195.114 99.5266 195.593C99.803 196.176 100.417 196.28 100.417 197.006M82.7441 180.041C83.1919 180.041 85.3434 179.654 85.5586 180.408C85.7038 180.916 85.6212 181.835 85.2837 182.214C83.741 183.95 85.8132 183.829 86.2786 185.225M90.0491 184.518C90.0491 185.07 90.2938 186.274 89.9182 186.757C89.7515 186.971 89.1845 187.249 89.1196 187.477C88.9188 188.179 89.7239 188.507 90.0491 188.995M73.0833 179.334C72.7669 179.571 70.7454 180.434 70.727 180.748C70.7086 181.061 70.7444 181.377 70.727 181.69C70.6883 182.387 69.7688 182.429 69.5488 182.868M76.1464 183.34C76.0574 183.796 75.6997 184.667 76.0417 185.107C76.278 185.411 76.382 185.539 76.382 185.932C76.382 186.643 76.323 187.051 76.8533 187.581M166.158 228.817C165.946 229.509 165.599 230.143 166.158 230.702C166.424 230.968 166.629 231.147 166.629 231.54C166.629 232.16 166.518 232.774 166.865 233.294M169.457 229.053C169.36 229.769 168.803 231.602 169.483 232.234C170.087 232.794 170.884 233.071 171.46 233.648C171.992 234.179 171.56 235.179 172.521 235.179M177.234 237.064C176.93 237.861 176.718 238.567 176.763 239.42C176.781 239.759 177.125 240.006 176.946 240.363C176.672 240.912 176.084 241.707 176.999 242.012M191.842 230.231C191.842 229.877 191.546 227.882 191.973 227.639C192.435 227.375 192.328 227.071 192.077 226.696M195.848 221.512C195.848 222.464 195.38 224.117 196.411 224.575C196.899 224.792 196.791 225.367 196.791 225.806C196.791 227.309 197.262 228.56 197.262 229.995M194.2 237.064C194.2 236.791 194.253 234.89 194.147 235.231C193.903 236.027 193.728 236.887 193.728 237.719C193.728 238.425 194.009 240.268 194.671 240.599M256.916 50.6392C256.81 50.6921 256.707 50.7466 256.605 50.8024M1.80195 145.449H59.4941C76.2483 145.449 93.2426 146.301 109.909 144.419C128.307 142.342 145.435 138.726 163.175 133.37C178.349 128.789 193.692 124.891 208.6 119.469C220.229 115.241 230.973 108.313 241.946 102.678C250.335 98.3696 264.188 90.2208 270.881 83.5276M1.80195 145.449C2.17101 149.186 3.47514 150.759 4.09671 154.419M4.09671 154.419C10.3364 154.419 16.9515 155.462 23.0988 156.538C30.3748 157.811 37.7959 157.929 45.1578 158.637C60.4469 160.107 75.4432 161.845 90.8204 161.845C100.195 161.845 109.609 162.103 118.978 161.805C128.619 161.499 137.765 158.976 147.176 157.251C167.448 153.534 187.046 147.647 206.858 142.043C220.884 138.077 233.106 129.91 246.065 123.43C250.829 121.048 255.205 117.018 259.055 113.371C261.899 110.677 266.414 106.885 270.144 105.529C271.985 104.86 276.589 101.861 278.369 101.018C279.49 104.055 280.483 107.146 281.206 110.217M141.593 200.305L160.681 198.914C166.643 198.914 171.642 197.417 177.433 196.736C181.752 196.227 188.766 194.54 195.185 192.42M141.593 200.305C141.574 200.294 141.555 200.284 141.536 200.273M141.593 200.305L141.536 200.273M195.187 192.419L195.185 192.42M2.69456 97.0521C2.31604 102.219 1.9158 107.358 1.59939 112.419C6.03107 113.284 9.35156 114.242 13.8315 114.242C19.3516 115.419 26.9329 116.222 32.7618 116.222C37.3384 116.222 42.0725 116.984 46.623 117.489C53.1626 118.216 60.0145 117.648 66.583 117.648C85.3634 117.648 104.132 118.24 122.82 116.222C133.427 115.077 144.014 113.326 154.304 110.519C163.753 107.942 172.496 104.02 181.67 100.698C189.433 97.886 197.631 96.0366 204.996 92.2226C213.478 87.8303 220.22 82.4992 227.603 76.66L228.006 76.3417C233.008 72.3866 238.089 68.2317 243.53 64.8963C247.306 62.582 248.35 59.0931 251.213 56.0252C253.021 54.0888 254.27 52.0833 256.605 50.8024M2.69456 97.0521C31.6855 97.0964 60.3614 101.534 89.38 101.534C98.2636 101.534 107.223 101.863 116.097 101.392C125.166 100.91 134.293 98.4109 143.133 96.4114C156.298 93.4336 171.854 89.5887 183.19 81.8258C190.614 76.7422 197.873 71.4822 205.389 66.5287C212.801 61.6437 218.995 55.107 226.413 50.3067C232.237 46.5383 236.649 42.0869 241.461 37.1441C243.371 35.1827 245.39 31.4799 248.015 30.5037M256.605 50.8024C253.96 43.964 250.721 37.3241 248.015 30.5037M195.185 192.42C192.888 196.412 190.733 200.483 188.739 204.629C187.317 207.588 187.22 212.813 184.767 215.227M141.536 200.273L141.516 200.262M141.536 200.273C140.072 199.443 138.605 198.616 137.137 197.79M141.536 200.273C141.529 200.269 141.523 200.265 141.516 200.262M141.536 200.273C149.804 204.959 157.999 209.749 165.865 215.195C168.256 216.85 169.68 218.047 172.268 217.472C174.38 217.002 176.838 216.922 178.992 216.796C180.142 216.728 183.63 216.257 184.613 215.373C184.665 215.325 184.717 215.277 184.767 215.227M141.516 200.262C140.111 199.465 138.704 198.672 137.296 197.879M137.296 197.879L137.137 197.79M137.296 197.879C137.243 197.849 137.19 197.819 137.137 197.79M137.137 197.79C136.877 197.643 136.617 197.496 136.356 197.35M137.137 197.79L136.356 197.35M136.356 197.35L135.332 196.773M136.356 197.35C136.015 197.157 135.674 196.965 135.332 196.773" stroke="#3B51C3" stroke-linecap="round" stroke-linejoin="round"/>
</svg>
