<svg width="264" height="277" viewBox="0 0 264 277" fill="none" xmlns="http://www.w3.org/2000/svg">
<g filter="url(#filter0_d)">
<path d="M144.219 46.7794C141.515 40.983 138.739 35.249 136.025 29.4596C125.052 34.411 112.662 40.2477 101.658 45.2132C94.6609 48.3707 74.8969 57.0142 67.8525 60.1929L67.1207 60.5232C70.3685 61.2132 73.3042 62.4988 74.9191 64.7395C77.626 68.4954 78.8947 70.1506 81.6089 71.6454C82.965 72.3923 84.2769 73.346 85.5817 74.3244L85.5869 74.3283C104.63 65.7352 125.181 55.3702 144.219 46.7794Z" fill="white"/>
<path fill-rule="evenodd" clip-rule="evenodd" d="M111.962 93.1414C111.957 93.1374 111.952 93.1334 111.947 93.1294C111.928 93.1146 111.909 93.0999 111.891 93.0852C111.914 93.1039 111.938 93.1226 111.962 93.1414Z" fill="white"/>
<path fill-rule="evenodd" clip-rule="evenodd" d="M146.092 124.14C143.829 122.139 140.998 119.568 138.06 116.818C137.936 116.871 137.813 116.926 137.688 116.982C138.694 117.842 139.709 118.695 140.726 119.55C142.518 121.058 144.318 122.571 146.092 124.14Z" fill="white"/>
<path d="M127.439 11.6896C126.004 8.50995 125.813 6.74501 123.018 5.20397C119.638 3.92708 115.928 7.43058 113.377 8.58169L84.4203 21.6484C81.2737 23.0683 76.6449 24.8336 75.226 28.2848C72.6907 34.4511 63.7262 36.4095 58.2136 38.4214C54.6503 39.7219 50.9839 40.2189 47.4915 41.7948C44.3198 43.226 40.3244 43.7898 36.9584 44.6683C33.001 45.7011 29.2931 47.8739 25.2215 48.6102C22.5151 49.0996 18.8336 49.7514 16.3017 50.8939C11.911 52.8751 6.61631 53.4569 3.01044 57.8864C8.39813 58.9582 14.8622 66.6843 22.5099 65.7544C27.7309 65.1195 32.8464 63.729 38.0757 63.0698C40.6581 62.7443 43.0756 62.0036 45.619 61.656C47.5958 61.3858 50.1292 61.1691 52.0083 60.6247C52.2369 60.5216 52.7256 60.4011 53.4124 60.2853C54.3503 60.101 55.3283 59.9889 56.3256 59.9493C59.3422 59.7238 63.4327 59.7396 67.1207 60.5232L67.8525 60.1929C74.8969 57.0142 94.6609 48.3707 101.658 45.2132C112.662 40.2477 125.052 34.411 136.025 29.4596C134.904 27.0686 133.793 24.6682 132.702 22.2501C131.071 18.6375 129.042 15.242 127.439 11.6896Z" fill="white"/>
<path d="M146.938 52.6971C146.043 50.7143 145.135 48.7433 144.219 46.7794C125.181 55.3702 104.63 65.7352 85.5869 74.3283C85.7715 74.4667 85.9561 74.6057 86.1405 74.7446C87.116 75.4793 88.0906 76.2132 89.0798 76.8701C91.132 78.233 93.3023 79.3891 95.3283 80.7946C97.3055 82.1662 99.0103 84.0728 101.058 85.2848C102.685 86.2474 104.287 87.3247 105.864 88.4625C105.902 88.4898 105.94 88.5172 105.978 88.5446C114.552 84.6757 124.004 80.9005 132.551 77.0441C139.021 74.1242 146.957 71.5694 153.364 68.678C151.256 63.3592 149.311 57.9568 146.938 52.6971Z" fill="white"/>
<path d="M171.819 108.081C169.13 104.58 162.408 88.3384 160.451 84.3827C156.235 86.2848 151.054 88.0593 147.049 90.4301C139.337 94.9959 132.8 99.5715 124.545 103.297C127.893 107.078 133.127 112.201 138.06 116.818C144.311 114.114 149.251 114.924 156.004 113.338C160.936 112.179 167.21 110.161 171.819 108.081Z" fill="white"/>
<path d="M199.038 181.448C198.795 182.048 198.385 182.565 197.752 182.946C195.954 184.026 195.064 185.651 193.03 186.569L173.924 195.19C163.961 199.686 153.714 205.601 143.077 207.866C135.043 209.577 126.998 212.386 119.523 215.758C112.584 218.89 104.739 221.408 98.7929 226.108C95.9066 228.389 92.6121 230.282 90.2214 232.961C89.6485 233.602 89.3109 234.08 89.1763 234.41C90.0326 234.653 90.8575 234.664 91.5875 234.334L101.324 229.941C113.996 224.223 126.125 217.754 138.841 212.016C145.269 209.116 152.906 209.152 159.298 206.268C166.155 203.174 174.51 201.717 180.802 197.449C183.676 195.5 185.996 193.551 188.446 191.235C190.541 189.256 193.551 188.167 195.491 186.205C196.585 185.098 198.584 183.565 199.985 182.933C201.792 182.118 203.287 180.448 205.192 179.588L182.331 126.721C182.023 126.04 181.644 125.381 181.226 124.732C177.926 126.254 175.169 128.46 171.851 129.957C167.362 131.982 162.377 134.953 157.561 136.018C160.427 138.687 162.906 142.085 165.2 145.23C167.088 147.818 169.22 151.089 172.311 152.413C176.718 154.303 181.138 157.286 184.321 160.897C185.921 162.713 187.956 164.103 189.827 165.626C191.005 166.586 193.948 168.11 194.637 169.426C195.317 170.723 196.969 171.286 197.555 172.586C198.27 174.17 200.442 178.339 199.038 181.448Z" fill="white"/>
<path d="M78.7203 139.422C78.6072 143.975 80.0128 148.454 80.0175 153.016C80.0188 154.269 80.153 155.515 80.3452 156.758C80.3506 156.793 80.356 156.827 80.3615 156.862C80.4988 157.736 80.6638 158.608 80.8305 159.479C80.8416 159.537 80.8527 159.595 80.8638 159.653C81.1096 160.938 81.3551 162.22 81.5171 163.506C81.6611 164.648 81.2327 166.142 82.4864 166.634C85.0504 167.639 87.7419 167.455 90.2879 168.365C92.0541 168.996 94.2672 168.997 96.113 169.329C97.704 169.616 99.6633 169.506 101.26 169.771C105.108 170.408 108.38 169.274 112.102 169.605C115.717 169.925 119.407 169.799 123.064 170.131C127.277 170.514 131.831 171.549 136.081 170.863C138.197 170.522 140.4 170.241 142.64 170.024C142.673 170.02 142.707 170.017 142.74 170.014C147.636 169.544 152.699 169.382 157.387 169.568C168.263 170.001 179.581 164.762 190.097 168.738C191.607 169.309 193.241 169.657 194.263 170.866C195.184 171.954 197.207 172.919 197.794 174.22C198.603 176.012 199.805 179.045 199.133 181.184C199.105 181.273 199.073 181.362 199.038 181.448C200.442 178.339 198.27 174.17 197.555 172.586C196.969 171.286 195.317 170.723 194.637 169.426C193.948 168.11 191.005 166.586 189.827 165.626C187.956 164.103 185.921 162.713 184.321 160.897C181.138 157.286 176.718 154.303 172.311 152.413C169.22 151.089 167.088 147.818 165.2 145.23C162.906 142.085 160.427 138.687 157.561 136.018C153.53 132.265 150.19 127.763 146.092 124.14C144.318 122.571 142.518 121.058 140.726 119.55C139.709 118.695 138.694 117.842 137.688 116.982C135.072 118.163 128.714 117.355 125.872 117.371C123.1 117.387 120.38 118.582 117.644 118.984C115.137 119.351 112.22 119.335 109.653 119.466C99.2806 119.995 88.3253 122.794 78.076 125.009C78.0527 128.432 78.4564 131.878 78.6419 135.336C78.715 136.696 78.7542 138.059 78.7203 139.422Z" fill="white"/>
<path d="M190.097 168.738C179.581 164.762 168.263 170.001 157.387 169.568C152.699 169.382 147.636 169.544 142.74 170.014C142.665 171.902 137.079 174.503 135.456 175.235C132.535 176.554 129.267 176.535 126.331 177.861L118.133 181.56C115.259 182.857 112.664 184.525 109.777 185.828C106.488 187.312 103.976 190.222 100.786 191.875C96.7864 193.946 92.9386 196.732 89.2378 199.297C84.5431 202.551 77.2681 204.256 72.0779 206.598C75.8303 213.17 78.4774 220.719 81.5926 227.622C82.4065 229.426 86.0068 233.51 89.1763 234.41C89.3109 234.08 89.6485 233.602 90.2214 232.961C92.6121 230.282 95.9066 228.389 98.7929 226.108C104.739 221.408 112.584 218.89 119.523 215.758C126.998 212.386 135.043 209.577 143.077 207.866C153.714 205.601 163.961 199.686 173.924 195.19L193.03 186.569C195.064 185.651 195.954 184.026 197.752 182.946C198.385 182.565 198.795 182.048 199.038 181.448C199.038 181.448 199.038 181.448 199.038 181.448C199.073 181.362 199.105 181.273 199.133 181.184C199.805 179.045 198.603 176.012 197.794 174.22C197.207 172.919 195.184 171.954 194.263 170.866C193.241 169.657 191.607 169.309 190.097 168.738Z" fill="white"/>
<path d="M82.4864 166.634C81.2327 166.142 81.6611 164.648 81.5171 163.506C81.3551 162.22 81.1096 160.938 80.8638 159.653C80.8527 159.595 80.8416 159.537 80.8305 159.479C80.6638 158.608 80.4988 157.736 80.3615 156.862C70.5203 161.303 63.7387 166.988 53.9096 171.601C54.8254 173.476 55.7799 175.329 56.7982 177.147C58.9763 181.035 60.9954 185.025 62.989 189.03L72.429 184.77C74.283 183.934 77.1095 183.222 78.5589 181.756C80.972 179.315 85.2917 177.474 88.4262 176.059L96.4865 172.422C98.5652 171.484 99.9793 171.819 101.26 169.771C99.6633 169.506 97.704 169.616 96.113 169.329C94.2672 168.997 92.0541 168.996 90.2879 168.365C87.7419 167.455 85.0504 167.639 82.4864 166.634Z" fill="white"/>
<path d="M78.076 125.009C78.1062 120.573 76.7663 115.344 75.8376 110.983C72.2944 112.582 68.2661 117.099 64.9053 119.039C61.1774 121.191 57.3229 122.931 53.3828 124.708L53.3241 124.735C50.7537 125.895 48.6892 127.658 46.2006 128.917C43.5915 130.237 39.7339 130.812 37.0684 132.015C38.8347 137.135 42.1074 141.81 43.4949 147.053C43.9695 148.846 44.5619 150.574 45.2238 152.271C53.435 148.557 61.2223 144.056 69.4594 140.34C70.7264 139.768 78.0121 136.633 78.6419 135.336C78.4564 131.878 78.0527 128.432 78.076 125.009Z" fill="white"/>
<path d="M44.306 85.541C43.7278 85.2953 43.1376 85.0579 42.5317 84.8288C42.2911 84.7378 42.0532 84.6403 41.8177 84.537C35.1653 87.5388 26.9906 90.5775 20.9009 94.5895C22.5282 97.995 24.1425 101.41 25.7002 104.862C27.2013 107.822 28.6055 110.785 29.9294 113.765C36.7538 110.685 43.3112 106.865 50.098 103.803L63.7779 95.5289C60.3969 93.3352 56.5505 92.2541 53.1755 90.2248C50.2239 88.45 47.4767 86.8951 44.3883 85.576C44.3609 85.5643 44.3334 85.5526 44.306 85.541Z" fill="white"/>
<path d="M52.0083 60.6247C50.1292 61.1691 47.5958 61.3858 45.619 61.656C45.7641 65.3465 44.0078 73.7943 44.6646 77.4264C45.1556 80.141 43.2561 83.0669 44.3883 85.576C47.4767 86.8951 50.2239 88.45 53.1755 90.2248C56.5505 92.2541 60.3969 93.3352 63.7779 95.5289C63.8432 93.8896 64.1743 91.9803 64.3932 90.2764C64.797 87.133 62.4074 84.4677 62.6576 81.4687C62.8975 78.5915 62.4461 75.1888 62.2242 72.2392C61.9686 68.8437 63.444 65.2362 65.0343 61.4646C62.3172 60.3367 59.2394 59.8335 56.3256 59.9493C55.1689 60.0357 54.1701 60.1576 53.4124 60.2853C52.9329 60.3796 52.4639 60.4927 52.0083 60.6247Z" fill="white"/>
<path d="M13.1421 66.2499C11.071 64.5639 5.53881 60.964 3.56155 59.1077L7.4662 67.7608C8.75008 70.606 10.5301 73.1787 12.0319 75.9272L20.578 72.0708C17.7978 70.5005 15.6112 68.2599 13.1421 66.2499Z" fill="white"/>
<path d="M156.152 75.3219C155.165 73.1332 154.25 70.913 153.364 68.678C146.957 71.5694 139.021 74.1242 132.551 77.0441C124.004 80.9005 114.552 84.6757 105.978 88.5446C107.967 89.9837 109.917 91.5169 111.828 93.0351L111.891 93.0852C111.914 93.1039 111.938 93.1226 111.962 93.1414L111.947 93.1294L111.891 93.0852L111.828 93.0351C109.917 91.5169 107.967 89.9837 105.978 88.5446C105.94 88.5172 105.902 88.4898 105.864 88.4625C104.287 87.3247 102.685 86.2474 101.058 85.2848C99.0103 84.0728 97.3055 82.1662 95.3283 80.7946C93.3023 79.3891 91.132 78.233 89.0798 76.8701C88.0906 76.2132 87.116 75.4793 86.1405 74.7446C85.9561 74.6057 85.7715 74.4667 85.5869 74.3283C81.6724 76.0947 77.233 75.1061 72.9606 76.132C72.8951 76.8543 72.8171 77.5671 72.7415 78.2573C72.7368 78.2997 72.7322 78.342 72.7276 78.3843C72.6582 79.0181 72.5918 79.632 72.54 80.2156C72.3149 82.7525 73.6252 85.6999 73.9544 88.3114C74.352 91.4658 74.526 95.1128 74.4713 98.2772C82.3175 97.332 90.2539 95.4548 98.2151 95.7716C103.099 95.9659 109.799 94.4806 114.665 95.2864C114.08 94.8255 113.491 94.3578 112.899 93.8866L112.645 93.6844C112.417 93.5038 112.19 93.3227 111.962 93.1414C111.938 93.1226 111.914 93.1039 111.891 93.0852L111.947 93.1294L111.962 93.1414C112.19 93.3227 112.417 93.5038 112.645 93.6844L112.899 93.8866C113.491 94.3578 114.08 94.8255 114.665 95.2864C119.511 99.1057 120.4 98.6169 124.545 103.297C132.8 99.5715 139.337 94.9959 147.049 90.4301C151.054 88.0593 156.235 86.2848 160.451 84.3827C157.111 77.634 159.284 82.2632 156.152 75.3219Z" fill="white"/>
<path d="M132.702 22.2501C131.071 18.6375 129.042 15.242 127.439 11.6896C126.004 8.50995 125.813 6.74501 123.018 5.20398C119.638 3.92708 115.928 7.43058 113.377 8.58169L84.4203 21.6484C81.2737 23.0683 76.6449 24.8336 75.226 28.2848C72.6907 34.4511 63.7262 36.4095 58.2136 38.4214C54.6503 39.7219 50.9839 40.2189 47.4915 41.7948C44.3198 43.226 40.3244 43.7898 36.9584 44.6683C33.001 45.7011 29.2931 47.8739 25.2215 48.6102C22.5151 49.0996 18.8336 49.7514 16.3017 50.8939C11.911 52.8751 6.61631 53.4569 3.01044 57.8864M132.702 22.2501C137.33 32.507 142.312 42.4451 146.938 52.6971M132.702 22.2501C133.793 24.6682 134.904 27.0686 136.025 29.4596M146.938 52.6971C150.309 60.167 152.814 67.9247 156.152 75.3219M146.938 52.6971C146.043 50.7143 145.135 48.7433 144.219 46.7795M146.938 52.6971C149.311 57.9568 151.256 63.3592 153.364 68.678M156.152 75.3219C159.284 82.2632 157.111 77.634 160.451 84.3827M156.152 75.3219C155.165 73.1332 154.25 70.913 153.364 68.678M160.451 84.3827C162.408 88.3384 169.13 104.58 171.819 108.081M160.451 84.3827C156.235 86.2848 151.054 88.0593 147.049 90.4301C139.337 94.9959 132.8 99.5715 124.545 103.297M171.819 108.081C173.024 109.649 173.166 111.985 174.469 113.463C175.663 114.818 176.246 116.543 176.987 118.187C178.069 120.585 179.858 122.61 181.226 124.732M171.819 108.081C167.21 110.161 160.936 112.179 156.004 113.338C149.251 114.924 144.311 114.114 138.06 116.818M3.01044 57.8864C8.39813 58.9582 14.8622 66.6843 22.5099 65.7544C27.7309 65.1195 32.8464 63.729 38.0757 63.0698C40.6581 62.7443 43.0756 62.0036 45.619 61.656M3.01044 57.8864L7.4662 67.7608M3.01044 57.8864L3.56155 59.1077M45.619 61.656C47.5958 61.3858 50.1292 61.1691 52.0083 60.6247M45.619 61.656C45.7641 65.3465 44.0078 73.7943 44.6646 77.4264C45.1556 80.141 43.2561 83.0669 44.3883 85.576M52.0083 60.6247C52.2369 60.5216 52.7256 60.4011 53.4124 60.2853M52.0083 60.6247C52.4639 60.4927 52.9329 60.3796 53.4124 60.2853M72.2275 67.9464C70.8683 64.9343 68.1953 62.7767 65.0343 61.4646M72.2275 67.9464C73.2191 70.144 73.2227 72.925 73.0048 75.6182M72.2275 67.9464C69.6999 62.3451 62.6292 59.6989 56.3256 59.9493M74.4713 98.2772C74.526 95.1128 74.352 91.4658 73.9544 88.3114C73.6252 85.6999 72.3149 82.7525 72.54 80.2156C72.5918 79.632 72.6582 79.0181 72.7276 78.3843C72.7322 78.342 72.7368 78.2997 72.7415 78.2573M74.4713 98.2772C82.3175 97.332 90.2539 95.4548 98.2151 95.7716C103.099 95.9659 109.799 94.4806 114.665 95.2864M74.4713 98.2772C74.4351 100.368 74.5586 102.52 74.8001 104.661M75.8376 110.983C76.7663 115.344 78.1062 120.573 78.076 125.009M75.8376 110.983C72.2944 112.582 68.2661 117.099 64.9053 119.039C61.1774 121.191 57.3229 122.931 53.3828 124.708L53.3241 124.735C50.7537 125.895 48.6892 127.658 46.2006 128.917C43.5915 130.237 39.7339 130.812 37.0684 132.015M75.8376 110.983C75.4055 108.954 75.0486 106.844 74.8071 104.723M75.8376 110.983C75.4013 108.934 75.0417 106.803 74.8001 104.661M78.076 125.009C88.3253 122.794 99.2806 119.995 109.653 119.466C112.22 119.335 115.137 119.351 117.644 118.984C120.38 118.582 123.1 117.387 125.872 117.371C128.714 117.355 135.072 118.163 137.688 116.982M78.076 125.009C78.0527 128.432 78.4564 131.878 78.6419 135.336M101.26 169.771C99.6633 169.506 97.704 169.616 96.1129 169.329C94.2672 168.997 92.0541 168.996 90.288 168.365C87.7419 167.455 85.0504 167.639 82.4864 166.634C81.2327 166.142 81.6611 164.648 81.5171 163.506C81.3551 162.22 81.1096 160.938 80.8638 159.653C80.8527 159.595 80.8416 159.537 80.8305 159.479M101.26 169.771C105.108 170.408 108.38 169.274 112.102 169.605C115.717 169.925 119.407 169.799 123.064 170.131C127.277 170.514 131.831 171.549 136.081 170.863C138.197 170.522 140.4 170.241 142.64 170.024M101.26 169.771C99.9793 171.819 98.5652 171.484 96.4865 172.422L88.4262 176.059C85.2917 177.474 80.972 179.315 78.5589 181.756C77.1095 183.222 74.283 183.934 72.429 184.77L62.989 189.03M157.387 169.568C168.263 170.001 179.581 164.762 190.097 168.738C191.607 169.309 193.241 169.657 194.263 170.866C195.184 171.954 197.207 172.919 197.794 174.22C198.603 176.012 199.805 179.045 199.133 181.184M157.387 169.568C152.699 169.382 147.636 169.544 142.74 170.014M157.387 169.568C152.666 169.38 147.566 169.547 142.64 170.024M197.752 182.946C195.954 184.026 195.064 185.651 193.03 186.569L173.924 195.19C163.961 199.686 153.714 205.601 143.077 207.866C135.043 209.577 126.998 212.386 119.523 215.758C112.584 218.89 104.739 221.408 98.7929 226.108C95.9066 228.389 92.6121 230.282 90.2214 232.961C89.6485 233.602 89.3109 234.08 89.1763 234.41M197.752 182.946C198.385 182.565 198.795 182.048 199.038 181.448M197.752 182.946C198.476 182.51 198.909 181.897 199.133 181.184M91.5875 234.334L101.324 229.941C113.996 224.223 126.125 217.754 138.841 212.016C145.269 209.116 152.906 209.152 159.298 206.268C166.155 203.174 174.51 201.717 180.802 197.449C183.676 195.5 185.996 193.551 188.446 191.235C190.541 189.256 193.551 188.167 195.491 186.205C196.585 185.098 198.584 183.565 199.985 182.933C201.792 182.118 203.287 180.448 205.192 179.588L182.331 126.721C182.023 126.04 181.644 125.381 181.226 124.732M91.5875 234.334C90.8575 234.664 90.0326 234.653 89.1763 234.41M91.5875 234.334C89.8172 235.133 88.8316 235.255 89.1763 234.41M3.56155 59.1077C5.53881 60.964 11.071 64.5639 13.1421 66.2499C15.6112 68.2599 17.7978 70.5005 20.578 72.0708M3.56155 59.1077L7.4662 67.7608M20.578 72.0708C24.2473 74.1433 27.1252 76.693 31.1113 78.263C32.9518 78.9879 34.6491 80.1073 36.3437 81.2555C36.4567 81.332 36.5696 81.4087 36.6826 81.4854C38.3257 82.6007 39.9751 83.7203 41.7587 84.511M20.578 72.0708L12.0319 75.9272M42.5317 84.8288C42.2911 84.7378 42.0532 84.6403 41.8177 84.537M42.5317 84.8288C42.271 84.7302 42.0135 84.624 41.7587 84.511M42.5317 84.8288C43.1376 85.0579 43.7278 85.2953 44.306 85.541M53.1755 90.2248C56.5505 92.2541 60.3969 93.3352 63.7779 95.5289M53.1755 90.2248C50.2239 88.45 47.4767 86.8951 44.3883 85.576M53.1755 90.2248C50.1977 88.4342 47.428 86.8676 44.306 85.541M63.7779 95.5289C67.7547 98.1093 71.6689 101.325 74.8071 104.723M63.7779 95.5289C63.8432 93.8896 64.1743 91.9803 64.3932 90.2764C64.797 87.133 62.4074 84.4677 62.6576 81.4687C62.8976 78.5915 62.4462 75.1888 62.2242 72.2392C61.9686 68.8437 63.444 65.2362 65.0343 61.4646M63.7779 95.5289L50.098 103.803C43.3112 106.865 36.7538 110.685 29.9294 113.765M74.8071 104.723C74.8048 104.703 74.8024 104.682 74.8001 104.661M7.4662 67.7608C9.09374 71.3676 11.5186 74.5364 13.1631 78.1807M7.4662 67.7608C8.75008 70.606 10.5301 73.1787 12.0319 75.9272M13.1631 78.1807C17.2129 87.1555 21.6479 95.8813 25.7002 104.862M13.1631 78.1807C12.8159 77.4112 12.4339 76.6629 12.0319 75.9272M13.1631 78.1807C15.6561 83.7055 18.2951 89.1359 20.9009 94.5895M25.7002 104.862C30.2171 113.769 33.8574 122.707 37.0684 132.015M25.7002 104.862C24.1425 101.41 22.5282 97.995 20.9009 94.5895M25.7002 104.862C27.2013 107.822 28.6055 110.785 29.9294 113.765M37.0684 132.015C38.8347 137.135 42.1074 141.81 43.4949 147.053C43.9695 148.846 44.5619 150.574 45.2238 152.271M37.0684 132.015C34.9245 125.8 32.5892 119.75 29.9294 113.765M48.6673 160.169C51.257 165.908 53.7396 171.687 56.7983 177.147M48.6673 160.169C47.4726 157.522 46.2626 154.934 45.2238 152.271M48.6673 160.169C50.3948 163.998 52.0746 167.843 53.9096 171.601M56.7983 177.147C62.191 186.774 66.6099 197.022 72.0779 206.598M56.7983 177.147C55.7799 175.329 54.8254 173.476 53.9096 171.601M56.7983 177.147C58.9763 181.035 60.9954 185.025 62.989 189.03M72.0779 206.598C75.8303 213.17 78.4774 220.719 81.5926 227.622C82.4065 229.426 86.0068 233.51 89.1763 234.41M72.0779 206.598C77.2681 204.256 84.5431 202.551 89.2378 199.297C92.9386 196.732 96.7864 193.946 100.786 191.875C103.976 190.222 106.488 187.312 109.777 185.828C112.664 184.525 115.259 182.857 118.133 181.56L126.331 177.861C129.267 176.535 132.535 176.554 135.456 175.235C137.079 174.503 142.665 171.902 142.74 170.014M72.0779 206.598C68.8183 200.89 65.9315 194.942 62.989 189.03M114.665 95.2864C119.511 99.1057 120.4 98.6169 124.545 103.297M114.665 95.2864C114.08 94.8255 113.491 94.3578 112.899 93.8866M124.545 103.297C127.437 106.563 134.406 114.177 137.688 116.982M124.545 103.297C127.893 107.078 133.127 112.201 138.06 116.818M146.092 124.14C150.19 127.763 153.53 132.265 157.561 136.018M146.092 124.14C143.829 122.139 140.998 119.568 138.06 116.818M146.092 124.14C144.318 122.571 142.518 121.058 140.726 119.55C139.709 118.695 138.694 117.842 137.688 116.982M157.561 136.018C160.427 138.687 162.906 142.085 165.2 145.23C167.088 147.818 169.22 151.089 172.311 152.413C176.718 154.303 181.138 157.286 184.321 160.897C185.921 162.713 187.956 164.103 189.827 165.626C191.005 166.586 193.948 168.11 194.637 169.426C195.317 170.723 196.969 171.286 197.555 172.586C198.27 174.17 200.442 178.339 199.038 181.448M157.561 136.018C162.377 134.953 167.362 131.982 171.851 129.957C175.169 128.46 177.926 126.254 181.226 124.732M199.038 181.448C199.038 181.448 199.038 181.448 199.038 181.448ZM199.038 181.448C199.073 181.362 199.105 181.273 199.133 181.184M65.0343 61.4646C70.0593 59.1971 63.3447 62.227 67.1207 60.5232M65.0343 61.4646L67.1207 60.5232M65.0343 61.4646C62.3172 60.3367 59.2394 59.8335 56.3256 59.9493M67.8525 60.1929C74.8969 57.0142 94.6609 48.3707 101.658 45.2132C112.662 40.2477 125.052 34.411 136.025 29.4596M67.8525 60.1929L67.1207 60.5232M67.8525 60.1929C67.5735 60.3188 67.3309 60.4283 67.1207 60.5232M136.025 29.4596C138.739 35.249 141.515 40.983 144.219 46.7795M85.5869 74.3283C104.63 65.7352 125.181 55.3702 144.219 46.7795M85.5869 74.3283C81.6724 76.0947 77.233 75.1061 72.9606 76.132M85.5869 74.3283L85.5817 74.3244M85.5869 74.3283C85.7715 74.4667 85.9561 74.6057 86.1405 74.7446M105.978 88.5446C114.552 84.6757 124.004 80.9005 132.551 77.0441C139.021 74.1242 146.957 71.5694 153.364 68.678M105.978 88.5446C107.967 89.9837 109.917 91.5169 111.828 93.0351M105.978 88.5446C105.94 88.5172 105.902 88.4898 105.864 88.4625M137.688 116.982C137.813 116.926 137.936 116.871 138.06 116.818M181.398 124.654C181.341 124.68 181.283 124.706 181.226 124.732M72.9606 76.132C72.9761 75.9612 72.9909 75.7899 73.0048 75.6182M72.9606 76.132C72.8951 76.8543 72.8171 77.5671 72.7415 78.2573M44.3883 85.576C44.3609 85.5643 44.3334 85.5526 44.306 85.541M20.9009 94.5895C26.9906 90.5775 35.1653 87.5388 41.8177 84.537M41.8177 84.537C41.798 84.5284 41.7784 84.5197 41.7587 84.511M45.1236 152.316C45.157 152.301 45.1904 152.286 45.2238 152.271M78.6852 135.181C78.6833 135.229 78.6685 135.281 78.6419 135.336M53.9096 171.601C63.7387 166.988 70.5203 161.303 80.3615 156.862M80.3615 156.862C80.356 156.827 80.3506 156.793 80.3452 156.758M80.3615 156.862C80.4988 157.736 80.6638 158.608 80.8305 159.479M142.74 170.014C142.707 170.017 142.673 170.02 142.64 170.024M78.6419 135.336C78.715 136.696 78.7542 138.059 78.7203 139.422C78.6072 143.975 80.0128 148.454 80.0175 153.016C80.0188 154.269 80.153 155.515 80.3452 156.758M78.6419 135.336C78.0121 136.633 70.7264 139.768 69.4594 140.34C61.2223 144.056 53.435 148.557 45.2238 152.271M67.1207 60.5232C70.3685 61.2132 73.3042 62.4988 74.9191 64.7395C77.626 68.4954 78.8947 70.1506 81.6089 71.6454C82.965 72.3923 84.2769 73.346 85.5817 74.3244M67.1207 60.5232C63.4327 59.7396 59.3422 59.7238 56.3256 59.9493M73.0048 75.6182C72.9322 76.5159 72.8349 77.4039 72.7415 78.2573M85.5817 74.3244C85.7681 74.4641 85.9543 74.6044 86.1405 74.7446M112.899 93.8866C112.814 93.8193 112.729 93.7519 112.645 93.6844M112.899 93.8866L112.645 93.6844M111.947 93.1294L111.962 93.1414M111.947 93.1294L111.891 93.0852M111.947 93.1294C111.928 93.1146 111.909 93.0999 111.891 93.0852M111.947 93.1294C111.952 93.1334 111.957 93.1374 111.962 93.1414M111.828 93.0351L111.891 93.0852M111.828 93.0351C111.849 93.0518 111.87 93.0685 111.891 93.0852M111.828 93.0351C109.88 91.488 107.892 89.9253 105.864 88.4625M112.645 93.6844C112.417 93.5038 112.19 93.3227 111.962 93.1414M53.4124 60.2853C54.3503 60.101 55.3283 59.9889 56.3256 59.9493M53.4124 60.2853C54.1701 60.1576 55.1689 60.0357 56.3256 59.9493M80.3452 156.758C80.4857 157.666 80.6572 158.573 80.8305 159.479M111.891 93.0852C111.914 93.1039 111.938 93.1226 111.962 93.1414M105.864 88.4625C104.287 87.3247 102.685 86.2474 101.058 85.2848C99.0103 84.0728 97.3055 82.1662 95.3283 80.7946C93.3023 79.3891 91.132 78.233 89.0798 76.8701C88.0906 76.2132 87.116 75.4793 86.1405 74.7446" stroke="#3D32C0" stroke-width="1.27715" stroke-linecap="round" stroke-linejoin="round"/>
<path d="M78.7203 139.422C78.7542 138.059 78.715 136.696 78.6419 135.336C78.0121 136.633 70.7264 139.768 69.4594 140.34C61.2223 144.056 53.435 148.557 45.2238 152.271C46.2626 154.934 47.4726 157.522 48.6673 160.169C50.3948 163.998 52.0746 167.843 53.9096 171.601C63.7387 166.988 70.5203 161.303 80.3615 156.862C80.1606 155.585 80.0188 154.304 80.0175 153.016C80.0128 148.454 78.6072 143.975 78.7203 139.422Z" fill="#6BB9E5"/>
<path d="M75.8376 110.983C75.4055 108.954 75.0486 106.844 74.8071 104.723C71.6689 101.325 67.7547 98.1093 63.7779 95.5289L50.098 103.803C43.3112 106.865 36.7538 110.685 29.9294 113.765C32.5892 119.75 34.9245 125.8 37.0684 132.015C39.7339 130.812 43.5915 130.237 46.2006 128.917C48.6892 127.658 50.7537 125.895 53.3241 124.735L53.3828 124.708C57.3229 122.931 61.1774 121.191 64.9053 119.039C68.2661 117.099 72.2944 112.582 75.8376 110.983Z" fill="#6BB9E5"/>
<path d="M31.1113 78.263C27.1252 76.693 24.2473 74.1433 20.578 72.0708L12.0319 75.9272C12.4339 76.6629 12.8159 77.4112 13.1631 78.1807C15.6561 83.7055 18.2951 89.1359 20.9009 94.5895C26.9906 90.5775 35.1653 87.5388 41.8177 84.537C41.798 84.5284 41.7784 84.5197 41.7587 84.511C39.9751 83.7203 38.3257 82.6007 36.6826 81.4854C36.5696 81.4087 36.4567 81.332 36.3437 81.2555C34.6491 80.1073 32.9518 78.9879 31.1113 78.263Z" fill="#6BB9E5"/>
<path d="M22.5099 65.7544C14.8622 66.6843 8.39813 58.9582 3.01044 57.8864L3.56155 59.1077C5.53881 60.964 11.071 64.5639 13.1421 66.2499C15.6112 68.2599 17.7978 70.5005 20.578 72.0708C24.2473 74.1433 27.1252 76.693 31.1113 78.263C32.9518 78.9879 34.6491 80.1073 36.3437 81.2555C36.4567 81.332 36.5696 81.4087 36.6826 81.4854C38.3257 82.6007 39.9751 83.7203 41.7587 84.511C41.7784 84.5197 41.798 84.5284 41.8177 84.537C42.0532 84.6403 42.2911 84.7378 42.5317 84.8288C43.1664 85.0687 43.7839 85.3179 44.3883 85.576C43.2561 83.0669 45.1556 80.141 44.6646 77.4264C44.0078 73.7943 45.7641 65.3465 45.619 61.656C43.0756 62.0036 40.6581 62.7443 38.0757 63.0698C32.8464 63.729 27.7309 65.1195 22.5099 65.7544Z" fill="#6BB9E5"/>
<path d="M72.2275 67.9464C70.8683 64.9343 68.1953 62.7767 65.0343 61.4646C63.444 65.2362 61.9686 68.8437 62.2242 72.2392C62.4461 75.1888 62.8975 78.5915 62.6576 81.4687C62.4074 84.4677 64.797 87.133 64.3932 90.2764C64.1743 91.9803 63.8432 93.8896 63.7779 95.5289C67.7547 98.1093 71.6689 101.325 74.8071 104.723C74.8048 104.703 74.8024 104.682 74.8001 104.661C74.5586 102.52 74.4351 100.368 74.4713 98.2772C74.526 95.1128 74.352 91.4658 73.9544 88.3114C73.6252 85.6999 72.3149 82.7525 72.54 80.2156C72.6514 78.9602 72.8307 77.5648 72.9606 76.132C72.9761 75.9612 72.9909 75.7899 73.0048 75.6182C73.2227 72.925 73.2191 70.144 72.2275 67.9464Z" fill="#6BB9E5"/>
<path d="M144.219 46.7794C141.515 40.983 138.739 35.249 136.025 29.4596C125.052 34.411 112.662 40.2477 101.658 45.2132C94.6609 48.3707 74.8969 57.0142 67.8525 60.1929L67.1207 60.5232C70.3685 61.2132 73.3042 62.4988 74.9191 64.7395C77.626 68.4954 78.8947 70.1506 81.6089 71.6454C82.965 72.3923 84.2769 73.346 85.5817 74.3244L85.5869 74.3283C104.63 65.7352 125.181 55.3702 144.219 46.7794Z" fill="#6BB9E5"/>
<path d="M65.0343 61.4646C68.1953 62.7767 70.8683 64.9343 72.2275 67.9464C73.2191 70.144 73.2227 72.925 73.0048 75.6182C72.9909 75.7899 72.9761 75.9612 72.9606 76.132C77.233 75.1061 81.6724 76.0947 85.5869 74.3283L85.5817 74.3244C84.2769 73.346 82.965 72.3923 81.6089 71.6454C78.8947 70.1506 77.626 68.4954 74.9191 64.7395C73.3042 62.4988 70.3685 61.2132 67.1207 60.5232L65.0343 61.4646Z" fill="#6BB9E5"/>
<path d="M74.4713 98.2772C74.4351 100.368 74.5586 102.52 74.8001 104.661C74.8024 104.682 74.8048 104.703 74.8071 104.723C75.0486 106.844 75.4055 108.954 75.8376 110.983C76.7663 115.344 78.1062 120.573 78.076 125.009C88.3253 122.794 99.2806 119.995 109.653 119.466C112.22 119.335 115.137 119.351 117.644 118.984C120.38 118.582 123.1 117.387 125.872 117.371C128.714 117.355 135.072 118.163 137.688 116.982C134.406 114.177 127.437 106.563 124.545 103.297C120.4 98.6169 119.511 99.1057 114.665 95.2864C109.799 94.4806 103.099 95.9659 98.2151 95.7716C90.2539 95.4548 82.3175 97.332 74.4713 98.2772Z" fill="#6BB9E5"/>
<path d="M112.102 169.605C108.38 169.274 105.108 170.408 101.26 169.771C99.9793 171.819 98.5652 171.484 96.4865 172.422L88.4262 176.059C85.2917 177.474 80.972 179.315 78.5589 181.756C77.1095 183.222 74.283 183.934 72.429 184.77L62.989 189.03C65.9315 194.942 68.8183 200.89 72.0779 206.598C77.2681 204.256 84.5431 202.551 89.2378 199.297C92.9386 196.732 96.7864 193.946 100.786 191.875C103.976 190.222 106.488 187.312 109.777 185.828C112.664 184.525 115.259 182.857 118.133 181.56L126.331 177.861C129.267 176.535 132.535 176.554 135.456 175.235C137.079 174.503 142.665 171.902 142.74 170.014C140.466 170.232 138.228 170.517 136.081 170.863C131.831 171.549 127.277 170.514 123.064 170.131C119.407 169.799 115.717 169.925 112.102 169.605Z" fill="#6BB9E5"/>
<path d="M174.469 113.463C173.166 111.985 173.024 109.649 171.819 108.081C167.21 110.161 160.936 112.179 156.004 113.338C149.117 114.955 144.117 114.081 137.688 116.982C140.468 119.359 143.312 121.681 146.092 124.14C150.19 127.763 153.53 132.265 157.561 136.018C162.377 134.953 167.362 131.982 171.851 129.957C175.169 128.46 177.926 126.254 181.226 124.732C179.858 122.61 178.069 120.585 176.987 118.187C176.246 116.543 175.663 114.818 174.469 113.463Z" fill="#6BB9E5"/>
<path d="M156.152 75.3219C155.165 73.1332 154.25 70.913 153.364 68.678C146.957 71.5694 139.021 74.1242 132.551 77.0441C124.004 80.9005 114.552 84.6757 105.978 88.5446C108.961 90.703 111.856 93.073 114.665 95.2864C119.511 99.1057 120.4 98.6169 124.545 103.297C132.8 99.5715 139.337 94.9959 147.049 90.4301C151.054 88.0593 156.235 86.2848 160.451 84.3827C157.111 77.634 159.284 82.2632 156.152 75.3219Z" fill="#6BB9E5"/>
<path d="M156.152 75.3219C152.814 67.9247 150.309 60.167 146.938 52.6971C142.312 42.4451 137.33 32.507 132.702 22.2501C131.071 18.6375 129.042 15.242 127.439 11.6896C126.004 8.50995 125.813 6.74501 123.018 5.20398C119.638 3.92708 115.928 7.43058 113.377 8.58169L84.4203 21.6484C81.2737 23.0683 76.6449 24.8336 75.226 28.2848C72.6907 34.4511 63.7262 36.4095 58.2136 38.4214C54.6503 39.7219 50.9839 40.2189 47.4915 41.7948C44.3198 43.226 40.3244 43.7898 36.9584 44.6683C33.001 45.7011 29.2931 47.8739 25.2215 48.6102C22.5151 49.0996 18.8336 49.7514 16.3017 50.8939C11.911 52.8751 6.61631 53.4569 3.01044 57.8864M156.152 75.3219C159.284 82.2632 157.111 77.634 160.451 84.3827M156.152 75.3219C155.165 73.1332 154.25 70.913 153.364 68.678C146.957 71.5694 139.021 74.1242 132.551 77.0441C124.004 80.9005 114.552 84.6757 105.978 88.5446C108.961 90.703 111.856 93.073 114.665 95.2864M160.451 84.3827C162.408 88.3384 169.13 104.58 171.819 108.081M160.451 84.3827C156.235 86.2848 151.054 88.0593 147.049 90.4301C139.337 94.9959 132.8 99.5715 124.545 103.297M171.819 108.081C173.024 109.649 173.166 111.985 174.469 113.463C175.663 114.818 176.246 116.543 176.987 118.187C178.069 120.585 179.858 122.61 181.226 124.732M171.819 108.081C167.21 110.161 160.936 112.179 156.004 113.338C149.117 114.955 144.117 114.081 137.688 116.982M3.01044 57.8864C8.39813 58.9582 14.8622 66.6843 22.5099 65.7544C27.7309 65.1195 32.8464 63.729 38.0757 63.0698C40.6581 62.7443 43.0756 62.0036 45.619 61.656M3.01044 57.8864L7.4662 67.7608C9.09374 71.3676 11.5186 74.5364 13.1631 78.1807M3.01044 57.8864L3.56155 59.1077C5.53881 60.964 11.071 64.5639 13.1421 66.2499C15.6112 68.2599 17.7978 70.5005 20.578 72.0708M45.619 61.656C47.5958 61.3858 50.1292 61.1691 52.0083 60.6247M45.619 61.656C45.7641 65.3465 44.0078 73.7943 44.6646 77.4264C45.1556 80.141 43.2561 83.0669 44.3883 85.576C43.7839 85.3179 43.1664 85.0687 42.5317 84.8288M52.0083 60.6247C58.9885 58.6025 69.0956 61.0059 72.2275 67.9464M52.0083 60.6247C53.1467 60.111 60.7369 59.1668 67.1207 60.5232M72.2275 67.9464C70.8683 64.9343 68.1953 62.7767 65.0343 61.4646M72.2275 67.9464C73.2191 70.144 73.2227 72.925 73.0048 75.6182M72.54 80.2156C72.3149 82.7525 73.6252 85.6999 73.9544 88.3114C74.352 91.4658 74.526 95.1128 74.4713 98.2772M72.54 80.2156C72.6514 78.9602 72.8307 77.5648 72.9606 76.132M72.54 80.2156C72.6647 78.8105 72.8744 77.2301 73.0048 75.6182M74.4713 98.2772C82.3175 97.332 90.2539 95.4548 98.2151 95.7716C103.099 95.9659 109.799 94.4806 114.665 95.2864M74.4713 98.2772C74.4351 100.368 74.5586 102.52 74.8001 104.661M75.8376 110.983C76.7663 115.344 78.1062 120.573 78.076 125.009M75.8376 110.983C72.2944 112.582 68.2661 117.099 64.9053 119.039C61.1774 121.191 57.3229 122.931 53.3828 124.708L53.3241 124.735C50.7537 125.895 48.6892 127.658 46.2006 128.917C43.5915 130.237 39.7339 130.812 37.0684 132.015M75.8376 110.983C75.4055 108.954 75.0486 106.844 74.8071 104.723M75.8376 110.983C75.4013 108.934 75.0417 106.803 74.8001 104.661M78.076 125.009C88.3253 122.794 99.2806 119.995 109.653 119.466C112.22 119.335 115.137 119.351 117.644 118.984C120.38 118.582 123.1 117.387 125.872 117.371C128.714 117.355 135.072 118.163 137.688 116.982M78.076 125.009C78.0527 128.432 78.4564 131.878 78.6419 135.336M80.0175 153.016C80.0128 148.454 78.6072 143.975 78.7203 139.422C78.7542 138.059 78.715 136.696 78.6419 135.336M80.0175 153.016C80.0211 156.541 81.0772 160.016 81.5171 163.506C81.6611 164.648 81.2327 166.142 82.4864 166.634C85.0504 167.639 87.7419 167.455 90.288 168.365C92.0541 168.996 94.2672 168.997 96.1129 169.329C97.704 169.616 99.6633 169.506 101.26 169.771M80.0175 153.016C80.0188 154.304 80.1606 155.585 80.3615 156.862C70.5203 161.303 63.7387 166.988 53.9096 171.601C52.0746 167.843 50.3948 163.998 48.6673 160.169M101.26 169.771C105.108 170.408 108.38 169.274 112.102 169.605C115.717 169.925 119.407 169.799 123.064 170.131C127.277 170.514 131.831 171.549 136.081 170.863M101.26 169.771C99.9793 171.819 98.5652 171.484 96.4865 172.422L88.4262 176.059C85.2917 177.474 80.972 179.315 78.5589 181.756C77.1095 183.222 74.283 183.934 72.429 184.77L62.989 189.03C65.9315 194.942 68.8183 200.89 72.0779 206.598M136.081 170.863C142.852 169.771 150.521 169.295 157.387 169.568C168.263 170.001 179.581 164.762 190.097 168.738C191.607 169.309 193.241 169.657 194.263 170.866C195.184 171.954 197.207 172.919 197.794 174.22C198.872 176.609 200.65 181.204 197.752 182.946C195.954 184.026 195.064 185.651 193.03 186.569L173.924 195.19C163.961 199.686 153.714 205.601 143.077 207.866C135.043 209.577 126.998 212.386 119.523 215.758C112.584 218.89 104.739 221.408 98.7929 226.108C95.9066 228.389 92.6121 230.282 90.2214 232.961C88.1814 235.246 89.1258 235.445 91.5875 234.334M136.081 170.863C138.228 170.517 140.466 170.232 142.74 170.014C142.665 171.902 137.079 174.503 135.456 175.235C132.535 176.554 129.267 176.535 126.331 177.861L118.133 181.56C115.259 182.857 112.664 184.525 109.777 185.828C106.488 187.312 103.976 190.222 100.786 191.875C96.7864 193.946 92.9386 196.732 89.2378 199.297C84.5431 202.551 77.2681 204.256 72.0779 206.598M91.5875 234.334L101.324 229.941C113.996 224.223 126.125 217.754 138.841 212.016C145.269 209.116 152.906 209.152 159.298 206.268C166.155 203.174 174.51 201.717 180.802 197.449C183.676 195.5 185.996 193.551 188.446 191.235C190.541 189.256 193.551 188.167 195.491 186.205C196.585 185.098 198.584 183.565 199.985 182.933C201.792 182.118 203.287 180.448 205.192 179.588L182.331 126.721C182.023 126.04 181.644 125.381 181.226 124.732M91.5875 234.334C88.1555 235.883 82.6264 229.913 81.5926 227.622C78.4774 220.719 75.8303 213.17 72.0779 206.598M20.578 72.0708C24.2473 74.1433 27.1252 76.693 31.1113 78.263C32.9518 78.9879 34.6491 80.1073 36.3437 81.2555C36.4567 81.332 36.5696 81.4087 36.6826 81.4854C38.3257 82.6007 39.9751 83.7203 41.7587 84.511M20.578 72.0708L12.0319 75.9272C12.4339 76.6629 12.8159 77.4112 13.1631 78.1807M42.5317 84.8288C46.4093 86.295 49.6462 88.1026 53.1755 90.2248C56.5505 92.2541 60.3969 93.3352 63.7779 95.5289M42.5317 84.8288C42.2911 84.7378 42.0532 84.6403 41.8177 84.537M42.5317 84.8288C42.271 84.7302 42.0135 84.624 41.7587 84.511M63.7779 95.5289C67.7547 98.1093 71.6689 101.325 74.8071 104.723M63.7779 95.5289C63.8432 93.8896 64.1743 91.9803 64.3932 90.2764C64.797 87.133 62.4074 84.4677 62.6576 81.4687C62.8976 78.5915 62.4462 75.1888 62.2242 72.2392C61.9686 68.8437 63.444 65.2362 65.0343 61.4646M63.7779 95.5289L50.098 103.803C43.3112 106.865 36.7538 110.685 29.9294 113.765C32.5892 119.75 34.9245 125.8 37.0684 132.015M74.8071 104.723C74.8048 104.703 74.8024 104.682 74.8001 104.661M13.1631 78.1807C17.2129 87.1555 21.6479 95.8813 25.7002 104.862C30.2171 113.769 33.8574 122.707 37.0684 132.015M13.1631 78.1807C15.6561 83.7055 18.2951 89.1359 20.9009 94.5895C26.9906 90.5775 35.1653 87.5388 41.8177 84.537M37.0684 132.015C38.8347 137.135 42.1074 141.81 43.4949 147.053C43.9695 148.846 44.5619 150.574 45.2238 152.271M48.6673 160.169C51.257 165.908 53.7396 171.687 56.7983 177.147C62.191 186.774 66.6099 197.022 72.0779 206.598M48.6673 160.169C47.4726 157.522 46.2626 154.934 45.2238 152.271M114.665 95.2864C110.336 91.8752 105.802 88.092 101.058 85.2848C99.0103 84.0728 97.3055 82.1662 95.3283 80.7946C93.3023 79.3891 91.132 78.233 89.0798 76.8701C87.9018 76.0878 86.7445 75.1963 85.5817 74.3244M114.665 95.2864C119.511 99.1057 120.4 98.6169 124.545 103.297M124.545 103.297C129.888 109.33 140.03 118.779 146.092 124.14M124.545 103.297C127.437 106.563 134.406 114.177 137.688 116.982M146.092 124.14C150.19 127.763 153.53 132.265 157.561 136.018M146.092 124.14C143.312 121.681 140.468 119.359 137.688 116.982M157.561 136.018C160.427 138.687 162.906 142.085 165.2 145.23C167.088 147.818 169.22 151.089 172.311 152.413C176.718 154.303 181.138 157.286 184.321 160.897C185.921 162.713 187.956 164.103 189.827 165.626C191.005 166.586 193.948 168.11 194.637 169.426C195.317 170.723 196.969 171.286 197.555 172.586C198.27 174.17 200.442 178.339 199.038 181.448M157.561 136.018C162.377 134.953 167.362 131.982 171.851 129.957C175.169 128.46 177.926 126.254 181.226 124.732M65.0343 61.4646C70.0593 59.1971 63.3447 62.227 67.1207 60.5232M65.0343 61.4646L67.1207 60.5232M67.8525 60.1929C74.8969 57.0142 94.6609 48.3707 101.658 45.2132C112.662 40.2477 125.052 34.411 136.025 29.4596C138.739 35.249 141.515 40.983 144.219 46.7795C125.181 55.3702 104.63 65.7352 85.5869 74.3283M67.8525 60.1929L67.1207 60.5232M67.8525 60.1929C67.5735 60.3188 67.3309 60.4283 67.1207 60.5232M85.5869 74.3283C81.6724 76.0947 77.233 75.1061 72.9606 76.132M85.5869 74.3283L85.5817 74.3244M181.398 124.654C181.341 124.68 181.283 124.706 181.226 124.732M72.9606 76.132C72.9761 75.9612 72.9909 75.7899 73.0048 75.6182M41.8177 84.537C41.798 84.5284 41.7784 84.5197 41.7587 84.511M45.1236 152.316C45.157 152.301 45.1904 152.286 45.2238 152.271M78.6852 135.181C78.6833 135.229 78.6685 135.281 78.6419 135.336M78.6419 135.336C78.0121 136.633 70.7264 139.768 69.4594 140.34C61.2223 144.056 53.435 148.557 45.2238 152.271M67.1207 60.5232C70.3685 61.2132 73.3042 62.4988 74.9191 64.7395C77.626 68.4954 78.8947 70.1506 81.6089 71.6454C82.965 72.3923 84.2769 73.346 85.5817 74.3244" stroke="#3D32C0" stroke-width="1.27715" stroke-linecap="round" stroke-linejoin="round"/>
</g>
<g filter="url(#filter1_d)">
<path d="M159.678 132.973C158.757 136.499 158.118 139.182 157.278 142.757L157.184 143.158C155.819 148.966 154.461 154.744 153.421 160.626C152.742 164.469 152.198 168.274 151.073 172.008C149.588 176.932 148.52 181.979 147.483 187.01C146.503 191.768 145.097 196.43 144.21 201.211C143.227 206.509 142.69 211.904 142.132 217.265C141.782 220.636 141.762 224.103 141.556 227.526C144.472 229.048 148.24 233.398 151.423 234.357L164.969 238.441C173.545 241.026 185.835 242.714 194.633 242.459C195.121 241.386 195.58 240.299 195.994 239.192C198.847 231.547 202.423 224.16 205.158 216.467C206.546 212.56 208.142 208.742 209.825 204.944C211.733 200.639 212.979 196.273 215.333 192.181C216.866 189.517 217.655 186.439 219.083 183.703C219.846 182.241 220.621 180.792 221.41 179.385C223.274 176.066 224.642 171.944 225.751 168.267C226.609 165.42 228.138 162.84 229.209 160.074C230.385 157.038 231.338 154.758 232.378 151.636C229.623 153.114 225.768 153.215 222.673 153.906C212.989 156.068 203.876 154.453 194.531 151.636C187.36 149.474 179.837 147.41 173.664 142.995C171.108 141.167 168.4 139.57 165.858 137.694C163.818 136.188 161.655 134.564 159.678 132.973Z" fill="#FCDFA0"/>
<path d="M210.552 110.865C207.209 112.208 203.913 112.64 202.12 116.308C202.546 118.78 204.153 120.853 204.599 123.437C204.871 125.014 205.905 125.782 206.691 127.204C207.913 129.411 208.103 131.528 209.707 132.365L209.713 132.327C210.349 128.211 211.029 123.809 210.508 119.677C210.207 117.285 209.868 113.134 210.552 110.865Z" fill="#FCDFA0"/>
<path d="M218.859 116.485C217.91 114.121 213.452 109.7 210.552 110.865C209.868 113.134 210.207 117.285 210.508 119.677C211.029 123.809 210.349 128.211 209.713 132.327L209.707 132.365C211.51 129.502 214.029 126.167 215.797 123.305C216.334 122.434 217.963 116.639 218.859 116.485Z" fill="#FCDFA0"/>
<path d="M220.939 120.974C220.71 119.156 219.516 118.119 218.859 116.485C217.963 116.639 216.334 122.434 215.797 123.305C214.029 126.167 211.51 129.502 209.707 132.365C210.87 132.317 213.915 132.468 214.906 131.581C215.502 131.049 216.703 130.54 217.516 130.353C218.526 130.12 220.949 128.81 221.668 128.048C221.642 127.393 221.648 126.734 221.697 126.072C221.824 124.359 221.158 122.709 220.939 120.974Z" fill="#FCDFA0"/>
<path d="M225.751 138.027C227.133 138.074 228.519 138.072 229.845 137.913C230.765 137.802 231.66 137.626 232.55 137.443C232.345 136.872 232.659 135.322 232.817 134.798C233.033 134.083 233.482 132.108 233.371 131.289C233.266 130.51 233.412 129.641 233.351 128.82C233.296 128.08 233.006 127.462 232.984 126.694C232.931 124.856 232.551 123.154 232.241 121.358C232.018 120.06 231.694 118.593 231.191 117.193C230.532 115.355 229.563 113.631 228.104 112.554C227.028 111.761 226.301 110.856 225.087 110.059C223.531 109.038 220.77 108.212 219.097 107.339C220.41 108.076 221.037 109.159 222.106 110.168C225.514 113.384 226.437 118.879 227.037 123.334C227.617 127.643 226.997 133.892 225.751 138.027Z" fill="#FCDFA0"/>
<path d="M214.691 137.137C217.158 137.625 220.061 137.78 222.412 137.874C222.356 135.944 222.485 134.069 222.143 132.084C221.912 130.748 221.721 129.404 221.668 128.048C220.949 128.81 218.526 130.12 217.516 130.353C216.703 130.54 215.502 131.049 214.906 131.581C213.915 132.468 210.87 132.317 209.707 132.365C210.774 132.715 213.764 136.734 214.691 137.137Z" fill="#FCDFA0"/>
<path d="M141.556 227.526C141.44 229.444 141.267 231.348 140.944 233.214C140.585 235.294 140.524 237.413 140.464 239.521L140.457 239.784C140.428 240.769 140.717 241.832 140.477 242.813C140.211 243.895 143.531 245.031 144.616 245.402L144.655 245.416C146.324 245.987 148.139 247.086 149.647 247.999L149.658 248.006C151.261 248.976 152.889 249.886 154.521 250.815C158.647 253.164 163.666 254.169 168.21 255.539C172.406 256.803 177.087 257.071 181.407 256.326C183.337 255.993 185.398 256.207 187.293 256.234C187.969 256.244 189.191 253.501 189.479 252.882C191.105 249.379 193.026 245.993 194.633 242.459C185.835 242.714 173.545 241.026 164.969 238.441L151.423 234.357C148.24 233.398 144.472 229.048 141.556 227.526Z" fill="#FCDFA0"/>
<path d="M216 148.796C215.192 146.464 213.927 145.224 212.183 143.516L212.083 143.418C210.56 141.926 211.006 140.377 208.346 140.836C205.728 141.288 202.902 141.197 200.354 141.972C199.227 142.315 197.412 142.737 196.443 143.52C197.932 144.195 199.454 144.671 201.128 145.228C203.553 146.035 205.22 148.141 207.745 148.902C209.097 149.309 210.403 149.811 211.819 149.869C213.047 149.919 213.977 149.084 215.147 148.857C215.396 148.808 215.686 148.791 216 148.796Z" fill="#FCDFA0"/>
<path d="M252.576 78.7155L249.808 83.6956C249.749 84.279 249.797 85.097 249.808 85.6831C249.815 86.0559 249.871 86.4262 249.891 86.8015C249.926 87.4614 250.179 88.1435 250.12 88.8045C250.072 89.3459 250.261 89.9067 250.226 90.4653C250.191 91.0242 250.321 91.6009 250.351 92.1615C250.368 92.482 250.233 93.4645 250.351 93.7567C252.782 89.1375 255.08 84.8644 256.93 81.5947C254.871 81.4951 252.576 78.7155 252.576 78.7155Z" fill="#FCDFA0"/>
<path d="M244.967 92.407L237.742 105.407C237.14 107.477 238.157 115.081 238.294 117.193L238.686 116.419C240.398 113.039 242.387 109.13 244.462 105.094C244.237 103.741 244.221 101.012 244.19 99.6543C244.142 97.5118 244.339 94.4889 244.967 92.407Z" fill="#FCDFA0"/>
<path d="M161.327 126.849L161.808 126.985L161.327 126.849ZM157.278 142.757L157.765 142.872L157.765 142.871L157.278 142.757ZM157.184 143.158L157.67 143.272L157.67 143.272L157.184 143.158ZM153.421 160.626L153.914 160.713L153.421 160.626ZM147.483 187.01L146.994 186.909L147.483 187.01ZM144.21 201.211L144.702 201.302L144.21 201.211ZM142.132 217.265L141.635 217.213L142.132 217.265ZM140.944 233.214L141.437 233.299L140.944 233.214ZM140.464 239.521L140.964 239.535L140.964 239.535L140.464 239.521ZM140.457 239.784L140.956 239.798L140.956 239.798L140.457 239.784ZM140.477 242.813L140.962 242.932L140.477 242.813ZM144.616 245.402L144.778 244.929L144.778 244.929L144.616 245.402ZM144.655 245.416L144.817 244.942L144.817 244.942L144.655 245.416ZM149.647 247.999L149.906 247.572L149.906 247.571L149.647 247.999ZM149.658 248.006L149.399 248.433L149.399 248.434L149.658 248.006ZM154.521 250.815L154.768 250.38L154.521 250.815ZM181.407 256.326L181.322 255.833L181.407 256.326ZM187.293 256.234L187.286 256.734L187.286 256.734L187.293 256.234ZM189.479 252.882L189.932 253.092L189.479 252.882ZM195.994 239.192L195.525 239.017L195.994 239.192ZM205.158 216.467L204.686 216.299L205.158 216.467ZM209.825 204.944L209.368 204.741L209.825 204.944ZM215.333 192.181L215.766 192.431L215.333 192.181ZM219.083 183.703L218.64 183.471L219.083 183.703ZM221.41 179.385L221.846 179.63L221.41 179.385ZM229.209 160.074L228.743 159.893L229.209 160.074ZM236.315 136.505L235.894 136.235L236.315 136.505ZM164.268 115.981L163.789 115.837C163.745 115.984 163.77 116.144 163.859 116.27L164.268 115.981ZM167.097 118.849L167.268 118.379L167.268 118.379L167.097 118.849ZM170.005 120.901L169.647 121.25L169.647 121.25L170.005 120.901ZM179.396 126.083L179.149 126.518L179.396 126.083ZM187.601 129.377L187.78 128.91L187.601 129.377ZM213.396 136.836L213.527 136.353L213.396 136.836ZM229.845 137.913L229.785 137.417L229.785 137.417L229.845 137.913ZM233.775 137.194L233.871 137.685L233.871 137.685L233.775 137.194ZM237.372 134.174L236.885 134.286L237.372 134.174ZM236.259 132.047L235.818 132.284L236.259 132.047ZM185.542 111.386L185.588 110.888L185.542 111.386ZM182.09 111.203L182.087 110.703L182.09 111.203ZM179.012 110.518L179.038 111.018L179.012 110.518ZM174.052 110.199L174.038 109.699L174.052 110.199ZM169.256 111.44L168.917 111.073L169.256 111.44ZM166.068 113.352L165.724 112.989L165.724 112.989L166.068 113.352ZM199.147 114.541C198.972 114.754 199.004 115.069 199.217 115.244C199.431 115.419 199.746 115.388 199.921 115.174L199.147 114.541ZM209.448 107.099L209.56 107.586L209.448 107.099ZM215.014 106.09L215.14 105.606L215.014 106.09ZM219.097 107.339L218.852 107.775L218.852 107.775L219.097 107.339ZM227.037 123.334L226.542 123.401L227.037 123.334ZM225.751 138.027L225.272 137.883C225.227 138.031 225.254 138.192 225.344 138.318C225.435 138.444 225.579 138.521 225.734 138.527L225.751 138.027ZM225.087 110.059L224.813 110.477L225.087 110.059ZM228.104 112.554L227.807 112.957L228.104 112.554ZM232.984 126.694L232.484 126.709L232.984 126.694ZM233.371 131.289L232.876 131.356L233.371 131.289ZM232.301 137.964C232.502 138.153 232.818 138.144 233.008 137.943C233.198 137.743 233.188 137.426 232.988 137.237L232.301 137.964ZM220.939 120.974L220.443 121.036L220.939 120.974ZM221.697 126.072L222.196 126.109L221.697 126.072ZM222.143 132.084L222.635 131.999L222.143 132.084ZM209.707 132.365L209.476 132.808C209.5 132.821 209.525 132.832 209.551 132.84L209.707 132.365ZM210.508 119.677L210.012 119.739L210.508 119.677ZM206.691 127.204L206.254 127.446L206.691 127.204ZM215.797 123.305L216.222 123.567L215.797 123.305ZM214.906 131.581L215.24 131.954L214.906 131.581ZM217.516 130.353L217.403 129.866L217.516 130.353ZM214.691 137.137L214.492 137.595C214.525 137.61 214.559 137.62 214.594 137.627L214.691 137.137ZM159.678 132.973L159.345 132.601C159.271 132.666 159.219 132.752 159.194 132.847L159.678 132.973ZM165.858 137.694L165.561 138.096L165.858 137.694ZM173.664 142.995L173.373 143.401L173.664 142.995ZM222.673 153.906L222.564 153.418L222.673 153.906ZM232.378 151.636L232.852 151.794C232.926 151.572 232.836 151.329 232.637 151.208L232.378 151.636ZM176.691 130.407L176.251 130.643L176.691 130.407ZM178.041 134.472C178.088 134.744 178.347 134.927 178.619 134.88C178.891 134.833 179.074 134.574 179.027 134.302L178.041 134.472ZM176.224 137.763C176.145 138.027 176.295 138.306 176.559 138.386C176.823 138.465 177.102 138.316 177.182 138.051L176.224 137.763ZM185.117 136.446L185.331 135.994L185.117 136.446ZM188.51 144.883C188.431 145.147 188.581 145.426 188.845 145.506C189.109 145.586 189.388 145.436 189.468 145.171L188.51 144.883ZM175.583 136.055C175.384 135.864 175.067 135.871 174.876 136.07C174.685 136.27 174.692 136.586 174.891 136.777L175.583 136.055ZM180.019 141.72L179.639 142.044L180.019 141.72ZM193.497 147.144C193.762 147.224 194.041 147.074 194.12 146.81C194.2 146.546 194.05 146.267 193.786 146.187L193.497 147.144ZM215.613 149.219C215.698 149.482 215.979 149.627 216.242 149.543C216.505 149.458 216.65 149.177 216.566 148.914L215.613 149.219ZM208.346 140.836L208.261 140.343L208.346 140.836ZM200.354 141.972L200.499 142.45L200.499 142.45L200.354 141.972ZM195.837 143.399C195.647 143.6 195.656 143.917 195.857 144.106C196.058 144.296 196.374 144.287 196.564 144.086L195.837 143.399ZM193.992 141.572C193.765 141.416 193.454 141.473 193.297 141.701C193.141 141.928 193.198 142.24 193.426 142.396L193.992 141.572ZM201.128 145.228L200.97 145.702L201.128 145.228ZM211.819 149.869L211.799 150.368L211.819 149.869ZM215.147 148.857L215.051 148.366L215.051 148.366L215.147 148.857ZM219.211 149.858C219.475 149.938 219.754 149.788 219.834 149.523C219.914 149.259 219.764 148.98 219.5 148.9L219.211 149.858ZM219.355 143.743L219.614 143.315C219.579 143.293 219.54 143.276 219.5 143.264L219.355 143.743ZM208.358 139.683L208.201 140.158L208.358 139.683ZM141.556 227.526L141.057 227.496L141.556 227.526ZM194.633 242.459L195.088 242.666L194.633 242.459ZM231.191 117.193L230.721 117.362L230.721 117.362L231.191 117.193ZM252.576 78.7155L252.961 78.3971C252.856 78.2697 252.695 78.2025 252.53 78.2176C252.365 78.2327 252.219 78.3282 252.139 78.4726L252.576 78.7155ZM256.93 81.5947L257.365 81.8409C257.451 81.6899 257.452 81.5053 257.368 81.3534C257.284 81.2014 257.128 81.1037 256.954 81.0953L256.93 81.5947ZM249.808 83.6956L249.371 83.4527L249.808 83.6956ZM249.808 85.6831L250.308 85.6739L249.808 85.6831ZM249.891 86.8015L249.392 86.8279L249.392 86.8279L249.891 86.8015ZM250.12 88.8045L249.622 88.7602L250.12 88.8045ZM250.226 90.4653L250.725 90.4968L250.226 90.4653ZM250.351 92.1615L249.851 92.1879L249.851 92.1879L250.351 92.1615ZM250.351 93.7567L250.793 93.9896L250.351 93.7567ZM244.19 99.6543L244.69 99.6431L244.19 99.6543ZM244.462 105.094L244.906 105.322C244.955 105.227 244.972 105.118 244.955 105.012L244.462 105.094ZM237.742 105.407L237.305 105.164C237.286 105.197 237.272 105.231 237.262 105.267L237.742 105.407ZM238.294 117.193L237.795 117.225C237.81 117.45 237.973 117.638 238.194 117.683C238.415 117.728 238.639 117.62 238.74 117.419L238.294 117.193ZM252.573 77.8703C252.298 77.8506 252.058 78.0579 252.039 78.3333C252.019 78.6087 252.226 78.848 252.502 78.8677L252.573 77.8703ZM256.985 80.1338L256.652 80.506L256.652 80.506L256.985 80.1338ZM256.92 81.0155C256.841 81.2799 256.99 81.5589 257.255 81.6386C257.519 81.7183 257.798 81.5685 257.878 81.3041L256.92 81.0155ZM209.713 132.327L209.219 132.251L209.713 132.327ZM212.183 143.516L211.833 143.873L211.833 143.873L212.183 143.516ZM238.686 116.419L238.24 116.194L238.686 116.419ZM163.793 115.843C162.726 119.382 161.831 123.206 160.845 126.714L161.808 126.985C162.817 123.395 163.68 119.682 164.75 116.131L163.793 115.843ZM160.845 126.714C159.355 132.019 158.051 137.281 156.791 142.643L157.765 142.871C159.023 137.517 160.323 132.271 161.808 126.985L160.845 126.714ZM156.791 142.643L156.697 143.043L157.67 143.272L157.765 142.872L156.791 142.643ZM156.697 143.043C155.332 148.85 153.971 154.641 152.929 160.539L153.914 160.713C154.95 154.848 156.305 149.083 157.67 143.272L156.697 143.043ZM152.929 160.539C152.246 164.405 151.708 168.166 150.594 171.864L151.551 172.153C152.688 168.381 153.239 164.534 153.914 160.713L152.929 160.539ZM150.594 171.864C149.102 176.811 148.03 181.879 146.994 186.909L147.973 187.111C149.01 182.079 150.074 177.052 151.551 172.153L150.594 171.864ZM146.994 186.909C146.506 189.276 145.913 191.619 145.327 193.982C144.742 196.339 144.165 198.713 143.719 201.12L144.702 201.302C145.142 198.928 145.712 196.58 146.297 194.222C146.881 191.868 147.481 189.502 147.973 187.111L146.994 186.909ZM143.719 201.12C142.731 206.442 142.192 211.858 141.635 217.213L142.63 217.317C143.187 211.951 143.723 206.577 144.702 201.302L143.719 201.12ZM141.635 217.213C141.36 219.862 141.286 222.573 141.171 225.241C141.054 227.92 140.895 230.565 140.452 233.129L141.437 233.299C141.892 230.667 142.053 227.967 142.17 225.285C142.287 222.593 142.358 219.927 142.63 217.317L141.635 217.213ZM140.452 233.129C140.085 235.249 140.024 237.404 139.964 239.507L140.964 239.535C141.024 237.421 141.085 235.338 141.437 233.299L140.452 233.129ZM139.964 239.507L139.957 239.77L140.956 239.798L140.964 239.535L139.964 239.507ZM139.957 239.77C139.942 240.297 140.011 240.862 140.047 241.338C140.085 241.839 140.091 242.284 139.991 242.694L140.962 242.932C141.102 242.361 141.084 241.784 141.045 241.262C141.003 240.715 140.943 240.256 140.956 239.798L139.957 239.77ZM139.991 242.694C139.855 243.249 140.204 243.702 140.522 243.992C140.864 244.303 141.337 244.582 141.816 244.821C142.783 245.304 143.915 245.691 144.454 245.875L144.778 244.929C144.232 244.742 143.161 244.375 142.263 243.927C141.811 243.701 141.435 243.47 141.195 243.252C141.076 243.143 141.011 243.057 140.981 242.996C140.967 242.968 140.963 242.951 140.962 242.943C140.961 242.937 140.962 242.934 140.962 242.932L139.991 242.694ZM144.454 245.875L144.493 245.889L144.817 244.942L144.778 244.929L144.454 245.875ZM144.493 245.889C146.101 246.439 147.867 247.506 149.388 248.427L149.906 247.571C148.41 246.665 146.547 245.535 144.817 244.942L144.493 245.889ZM149.388 248.426L149.399 248.433L149.918 247.578L149.906 247.572L149.388 248.426ZM149.399 248.434C151.01 249.409 152.646 250.323 154.273 251.25L154.768 250.38C153.131 249.449 151.513 248.544 149.917 247.578L149.399 248.434ZM154.273 251.25C158.465 253.636 163.588 254.667 168.066 256.017L168.354 255.06C163.744 253.67 158.829 252.692 154.768 250.38L154.273 251.25ZM168.066 256.017C172.338 257.305 177.097 257.577 181.492 256.819L181.322 255.833C177.077 256.566 172.475 256.302 168.354 255.06L168.066 256.017ZM181.492 256.819C183.361 256.496 185.327 256.706 187.286 256.734L187.3 255.735C185.468 255.708 183.313 255.49 181.322 255.833L181.492 256.819ZM187.286 256.734C187.535 256.738 187.738 256.619 187.872 256.516C188.016 256.407 188.149 256.264 188.268 256.116C188.509 255.818 188.75 255.427 188.968 255.038C189.406 254.256 189.792 253.394 189.932 253.092L189.025 252.671C188.878 252.989 188.51 253.808 188.095 254.55C187.887 254.923 187.678 255.255 187.49 255.488C187.396 255.605 187.32 255.68 187.266 255.721C187.203 255.769 187.22 255.733 187.3 255.735L187.286 256.734ZM189.932 253.092C190.988 250.819 192.164 248.602 193.312 246.333C194.456 244.072 195.565 241.771 196.462 239.366L195.525 239.017C194.648 241.368 193.56 243.629 192.42 245.882C191.284 248.128 190.09 250.378 189.025 252.671L189.932 253.092ZM196.462 239.366C197.884 235.556 199.487 231.81 201.081 228.042C202.673 224.279 204.256 220.496 205.629 216.634L204.686 216.299C203.325 220.13 201.752 223.888 200.16 227.652C198.569 231.413 196.957 235.182 195.525 239.017L196.462 239.366ZM205.629 216.634C207.012 212.744 208.602 208.939 210.282 205.146L209.368 204.741C207.682 208.545 206.081 212.376 204.686 216.299L205.629 216.634ZM210.282 205.146C211.242 202.982 212.039 200.791 212.877 198.666C213.719 196.531 214.608 194.444 215.766 192.431L214.899 191.932C213.704 194.01 212.793 196.152 211.947 198.299C211.096 200.457 210.316 202.602 209.368 204.741L210.282 205.146ZM215.766 192.431C216.553 191.062 217.146 189.595 217.712 188.152C218.283 186.698 218.827 185.273 219.526 183.934L218.64 183.471C217.91 184.869 217.345 186.351 216.782 187.786C216.214 189.232 215.645 190.636 214.899 191.932L215.766 192.431ZM219.526 183.934C220.287 182.475 221.06 181.031 221.846 179.63L220.974 179.141C220.181 180.553 219.404 182.007 218.64 183.471L219.526 183.934ZM221.846 179.63C223.739 176.258 225.121 172.09 226.229 168.412L225.272 168.123C224.164 171.799 222.808 175.873 220.974 179.141L221.846 179.63ZM226.229 168.412C226.648 167.024 227.232 165.694 227.854 164.35C228.472 163.015 229.132 161.657 229.676 160.255L228.743 159.893C228.215 161.257 227.575 162.571 226.946 163.93C226.322 165.279 225.712 166.663 225.272 168.123L226.229 168.412ZM229.676 160.255C231.107 156.558 232.65 152.682 233.801 148.864L232.844 148.575C231.706 152.348 230.181 156.181 228.743 159.893L229.676 160.255ZM233.801 148.864C234.484 146.598 234.897 144.649 235.307 142.718C235.717 140.787 236.123 138.874 236.793 136.649L235.836 136.36C235.152 138.63 234.738 140.581 234.329 142.511C233.919 144.443 233.513 146.354 232.844 148.575L233.801 148.864ZM166.927 119.319C167.833 119.648 168.913 120.495 169.647 121.25L170.364 120.553C169.586 119.752 168.381 118.783 167.268 118.379L166.927 119.319ZM169.647 121.25C171.005 122.647 172.649 123.536 174.305 124.287C175.989 125.052 177.63 125.655 179.149 126.518L179.643 125.648C178.074 124.757 176.311 124.1 174.718 123.377C173.097 122.641 171.59 121.815 170.364 120.553L169.647 121.25ZM179.149 126.518C181.733 127.984 184.771 128.826 187.422 129.844L187.78 128.91C184.999 127.842 182.141 127.066 179.643 125.648L179.149 126.518ZM187.422 129.844C190.212 130.916 193.022 131.888 195.894 132.754L196.182 131.796C193.337 130.938 190.55 129.974 187.78 128.91L187.422 129.844ZM195.894 132.754C201.654 134.49 207.56 135.765 213.265 137.318L213.527 136.353C207.735 134.776 201.944 133.533 196.182 131.796L195.894 132.754ZM213.265 137.318C216.017 138.067 219.622 138.262 222.392 138.374L222.432 137.375C219.645 137.262 216.153 137.068 213.527 136.353L213.265 137.318ZM222.392 138.374C224.774 138.47 227.444 138.705 229.905 138.409L229.785 137.417C227.429 137.7 224.887 137.473 222.432 137.375L222.392 138.374ZM233.871 137.685C233.977 137.664 234.162 137.637 234.414 137.597C234.656 137.558 234.944 137.511 235.227 137.453C235.507 137.395 235.799 137.325 236.045 137.237C236.168 137.194 236.292 137.141 236.404 137.076C236.507 137.016 236.642 136.921 236.735 136.775L235.894 136.235C235.924 136.187 235.947 136.185 235.901 136.212C235.862 136.234 235.8 136.263 235.709 136.295C235.529 136.36 235.29 136.419 235.027 136.473C234.766 136.527 234.496 136.571 234.257 136.609C234.028 136.646 233.809 136.678 233.678 136.704L233.871 137.685ZM236.735 136.775C236.851 136.595 236.981 136.444 237.124 136.287C237.258 136.139 237.427 135.962 237.564 135.772C237.709 135.571 237.835 135.335 237.895 135.039C237.955 134.745 237.943 134.424 237.859 134.062L236.885 134.286C236.944 134.543 236.94 134.716 236.915 134.84C236.89 134.962 236.838 135.069 236.753 135.188C236.659 135.318 236.544 135.438 236.384 135.614C236.232 135.781 236.056 135.982 235.894 136.235L236.735 136.775ZM237.859 134.062C237.761 133.635 237.532 133.204 237.313 132.834C237.074 132.428 236.866 132.12 236.7 131.811L235.818 132.284C235.991 132.606 236.259 133.015 236.452 133.342C236.665 133.703 236.823 134.021 236.885 134.286L237.859 134.062ZM236.7 131.811C236.162 130.81 235.719 130.348 235.236 129.935C234.778 129.543 234.349 129.244 233.736 128.502L232.965 129.138C233.649 129.966 234.168 130.338 234.587 130.696C234.981 131.033 235.344 131.399 235.818 132.284L236.7 131.811ZM202.264 115.83C201.386 115.565 200.615 115.174 199.808 114.762C199.01 114.354 198.173 113.925 197.216 113.636L196.927 114.594C197.785 114.852 198.544 115.239 199.353 115.652C200.152 116.06 200.998 116.492 201.975 116.787L202.264 115.83ZM197.216 113.636L191.828 112.012L191.539 112.97L196.927 114.594L197.216 113.636ZM191.828 112.012C189.755 111.387 187.721 111.083 185.588 110.888L185.497 111.884C187.594 112.075 189.554 112.371 191.539 112.97L191.828 112.012ZM185.588 110.888C184.398 110.779 183.294 110.696 182.087 110.703L182.093 111.703C183.251 111.697 184.315 111.776 185.497 111.884L185.588 110.888ZM182.087 110.703C181.662 110.706 181.25 110.558 180.726 110.372C180.234 110.197 179.639 109.986 178.987 110.019L179.038 111.018C179.463 110.996 179.877 111.131 180.391 111.314C180.872 111.485 181.459 111.707 182.093 111.703L182.087 110.703ZM178.987 110.019C178.228 110.057 177.425 109.971 176.58 109.875C175.75 109.78 174.875 109.675 174.038 109.699L174.067 110.698C174.818 110.677 175.616 110.771 176.466 110.868C177.3 110.964 178.183 111.061 179.038 111.018L178.987 110.019ZM174.038 109.699C173.337 109.719 172.357 109.801 171.415 109.999C170.498 110.192 169.522 110.513 168.917 111.073L169.596 111.807C169.988 111.444 170.73 111.165 171.621 110.978C172.489 110.795 173.408 110.718 174.067 110.698L174.038 109.699ZM168.917 111.073C168.515 111.445 168.02 111.676 167.442 111.943C166.889 112.199 166.25 112.49 165.724 112.989L166.412 113.715C166.799 113.347 167.284 113.118 167.862 112.851C168.415 112.595 169.058 112.304 169.596 111.807L168.917 111.073ZM199.921 115.174C202.747 111.721 205.259 108.577 209.56 107.586L209.336 106.612C204.646 107.692 201.928 111.143 199.147 114.541L199.921 115.174ZM209.56 107.586C210.08 107.466 210.561 107.304 211.012 107.143C211.47 106.979 211.884 106.822 212.307 106.694C213.135 106.443 213.937 106.325 214.887 106.573L215.14 105.606C213.949 105.294 212.947 105.455 212.018 105.736C211.563 105.874 211.109 106.046 210.675 106.201C210.233 106.359 209.796 106.505 209.336 106.612L209.56 107.586ZM214.887 106.573C215.207 106.657 215.556 106.738 215.907 106.821C216.261 106.904 216.621 106.99 216.975 107.084C217.69 107.275 218.349 107.493 218.852 107.775L219.341 106.903C218.724 106.557 217.966 106.313 217.232 106.118C216.862 106.019 216.49 105.931 216.136 105.848C215.78 105.764 215.445 105.686 215.14 105.606L214.887 106.573ZM218.852 107.775C219.444 108.107 219.888 108.52 220.327 108.992C220.75 109.448 221.214 110.014 221.763 110.532L222.449 109.804C221.929 109.313 221.544 108.833 221.059 108.311C220.588 107.805 220.062 107.308 219.341 106.903L218.852 107.775ZM221.763 110.532C223.381 112.058 224.429 114.147 225.147 116.436C225.865 118.725 226.242 121.175 226.542 123.401L227.533 123.268C227.232 121.038 226.847 118.513 226.102 116.137C225.356 113.761 224.239 111.493 222.449 109.804L221.763 110.532ZM226.542 123.401C227.111 127.631 226.5 133.809 225.272 137.883L226.229 138.171C227.494 133.976 228.123 127.654 227.533 123.268L226.542 123.401ZM218.865 107.782C219.73 108.234 220.872 108.671 221.948 109.107C223.048 109.552 224.082 109.997 224.813 110.477L225.361 109.641C224.536 109.099 223.412 108.621 222.324 108.18C221.212 107.73 220.137 107.318 219.328 106.896L218.865 107.782ZM224.813 110.477C225.386 110.853 225.847 111.256 226.311 111.678C226.77 112.095 227.244 112.541 227.807 112.957L228.401 112.152C227.889 111.774 227.461 111.371 226.984 110.938C226.512 110.509 226.003 110.062 225.361 109.641L224.813 110.477ZM227.807 112.957C228.989 113.829 229.849 115.186 230.479 116.731C231.108 118.272 231.493 119.959 231.749 121.443L232.734 121.273C232.472 119.756 232.073 117.99 231.405 116.353C230.739 114.721 229.789 113.177 228.401 112.152L227.807 112.957ZM231.749 121.443C232.064 123.27 232.432 124.917 232.484 126.709L233.484 126.68C233.429 124.795 233.039 123.039 232.734 121.273L231.749 121.443ZM232.484 126.709C232.497 127.149 232.586 127.54 232.669 127.884C232.753 128.239 232.828 128.535 232.852 128.857L233.849 128.783C233.818 128.364 233.72 127.983 233.641 127.651C233.559 127.309 233.493 127.007 233.484 126.68L232.484 126.709ZM232.852 128.857C232.88 129.233 232.861 129.623 232.845 130.052C232.829 130.466 232.817 130.918 232.876 131.356L233.867 131.222C233.821 130.881 233.829 130.509 233.844 130.089C233.859 129.683 233.882 129.228 233.849 128.783L232.852 128.857ZM232.876 131.356C232.919 131.676 232.851 132.3 232.725 132.992C232.602 133.662 232.44 134.316 232.339 134.653L233.296 134.942C233.41 134.564 233.58 133.873 233.708 133.172C233.832 132.494 233.934 131.721 233.867 131.222L232.876 131.356ZM202.569 116.528C203.407 114.813 204.587 113.859 205.979 113.162C206.682 112.809 207.44 112.523 208.244 112.237C209.04 111.954 209.89 111.67 210.739 111.329L210.366 110.401C209.543 110.732 208.727 111.004 207.909 111.295C207.099 111.583 206.293 111.886 205.531 112.267C203.99 113.039 202.625 114.135 201.671 116.089L202.569 116.528ZM210.739 111.329C211.315 111.097 212.007 111.128 212.778 111.392C213.549 111.656 214.358 112.139 215.128 112.745C216.68 113.965 217.963 115.596 218.395 116.671L219.323 116.298C218.806 115.01 217.385 113.248 215.746 111.959C214.92 111.309 214.012 110.758 213.102 110.446C212.192 110.135 211.239 110.05 210.366 110.401L210.739 111.329ZM218.395 116.671C218.743 117.536 219.242 118.262 219.629 118.915C220.026 119.585 220.341 120.229 220.443 121.036L221.435 120.911C221.308 119.901 220.911 119.117 220.49 118.406C220.058 117.677 219.632 117.068 219.323 116.298L218.395 116.671ZM220.443 121.036C220.556 121.931 220.787 122.822 220.959 123.635C221.134 124.467 221.257 125.252 221.199 126.035L222.196 126.109C222.265 125.18 222.117 124.282 221.937 123.428C221.752 122.553 221.541 121.752 221.435 120.911L220.443 121.036ZM221.199 126.035C221.043 128.129 221.306 130.176 221.65 132.169L222.635 131.999C222.295 130.027 222.05 128.078 222.196 126.109L221.199 126.035ZM221.65 132.169C221.985 134.108 221.855 135.896 221.912 137.889L222.912 137.86C222.858 135.992 222.986 134.03 222.635 131.999L221.65 132.169ZM211.004 119.614C210.855 118.428 210.697 116.811 210.661 115.213C210.624 113.602 210.713 112.064 211.031 111.009L210.074 110.72C209.708 111.935 209.624 113.607 209.661 115.236C209.698 116.879 209.86 118.533 210.012 119.739L211.004 119.614ZM209.938 131.922C209.295 131.586 208.904 130.984 208.513 130.097C208.14 129.249 207.752 128.088 207.129 126.962L206.254 127.446C206.852 128.527 207.17 129.528 207.598 130.5C208.008 131.432 208.515 132.307 209.476 132.808L209.938 131.922ZM207.129 126.962C206.721 126.224 206.222 125.615 205.864 125.095C205.493 124.557 205.21 124.039 205.091 123.352L204.106 123.522C204.259 124.411 204.63 125.067 205.04 125.662C205.463 126.276 205.876 126.762 206.254 127.446L207.129 126.962ZM205.091 123.352C204.856 121.99 204.316 120.771 203.809 119.628C203.293 118.467 202.813 117.387 202.612 116.223L201.627 116.393C201.853 117.701 202.389 118.894 202.895 120.034C203.409 121.191 203.895 122.3 204.106 123.522L205.091 123.352ZM210.13 132.632C211.024 131.211 212.097 129.672 213.176 128.12C214.25 126.572 215.33 125.012 216.222 123.567L215.371 123.042C214.496 124.46 213.432 125.998 212.354 127.549C211.28 129.096 210.193 130.655 209.284 132.099L210.13 132.632ZM216.222 123.567C216.314 123.418 216.412 123.196 216.51 122.955C216.611 122.705 216.724 122.399 216.846 122.064C217.092 121.386 217.369 120.588 217.662 119.801C217.954 119.014 218.251 118.269 218.526 117.715C218.664 117.437 218.788 117.226 218.892 117.087C218.944 117.017 218.982 116.979 219.003 116.961C219.028 116.941 219.007 116.966 218.944 116.977L218.774 115.992C218.599 116.022 218.461 116.111 218.363 116.193C218.261 116.278 218.172 116.381 218.092 116.486C217.934 116.697 217.779 116.971 217.63 117.271C217.331 117.874 217.019 118.661 216.725 119.452C216.431 120.241 216.144 121.066 215.906 121.723C215.785 122.056 215.677 122.347 215.582 122.581C215.484 122.824 215.414 122.973 215.371 123.042L216.222 123.567ZM209.728 132.865C210.247 132.843 211.381 132.865 212.409 132.786C212.938 132.746 213.479 132.677 213.961 132.556C214.432 132.438 214.902 132.256 215.24 131.954L214.573 131.209C214.415 131.35 214.132 131.482 213.717 131.586C213.313 131.688 212.834 131.751 212.333 131.789C211.3 131.869 210.33 131.839 209.687 131.866L209.728 132.865ZM215.24 131.954C215.483 131.737 215.881 131.501 216.337 131.293C216.788 131.087 217.26 130.925 217.628 130.84L217.403 129.866C216.959 129.968 216.424 130.154 215.922 130.383C215.426 130.609 214.925 130.894 214.573 131.209L215.24 131.954ZM217.628 130.84C218.205 130.707 219.115 130.292 219.942 129.837C220.766 129.384 221.613 128.834 222.031 128.391L221.304 127.705C221.004 128.023 220.281 128.51 219.46 128.961C218.644 129.41 217.837 129.766 217.403 129.866L217.628 130.84ZM209.551 132.84C209.601 132.856 209.709 132.914 209.883 133.049C210.048 133.177 210.241 133.351 210.457 133.56C210.889 133.98 211.382 134.517 211.881 135.067C212.376 135.612 212.878 136.172 213.313 136.619C213.531 136.843 213.74 137.046 213.928 137.209C214.106 137.363 214.302 137.513 214.492 137.595L214.891 136.678C214.849 136.66 214.748 136.596 214.582 136.452C214.425 136.316 214.239 136.137 214.03 135.922C213.61 135.491 213.124 134.949 212.622 134.395C212.125 133.847 211.612 133.288 211.154 132.843C210.925 132.621 210.703 132.419 210.496 132.259C210.299 132.106 210.08 131.961 209.863 131.89L209.551 132.84ZM159.365 133.363C161.35 134.96 163.519 136.589 165.561 138.096L166.155 137.291C164.116 135.787 161.96 134.167 159.992 132.584L159.365 133.363ZM165.561 138.096C166.844 139.043 168.168 139.918 169.481 140.78C170.799 141.644 172.105 142.494 173.373 143.401L173.955 142.588C172.667 141.667 171.341 140.804 170.03 139.944C168.715 139.082 167.414 138.22 166.155 137.291L165.561 138.096ZM173.373 143.401C179.628 147.876 187.243 149.961 194.387 152.114L194.675 151.157C187.476 148.987 180.046 146.945 173.955 142.588L173.373 143.401ZM194.387 152.114C203.764 154.941 212.975 156.583 222.782 154.394L222.564 153.418C213.003 155.552 203.988 153.964 194.675 151.157L194.387 152.114ZM222.782 154.394C224.32 154.051 225.997 153.863 227.739 153.559C229.445 153.26 231.163 152.855 232.614 152.076L232.141 151.195C230.838 151.895 229.251 152.279 227.567 152.574C225.919 152.862 224.121 153.07 222.564 153.418L222.782 154.394ZM160.012 133.346C161.349 132.148 163.064 130.635 164.926 129.566C166.795 128.492 168.718 127.92 170.507 128.46L170.795 127.502C168.615 126.845 166.386 127.574 164.428 128.698C162.462 129.827 160.675 131.409 159.345 132.601L160.012 133.346ZM170.507 128.46C170.863 128.567 171.388 128.697 171.956 128.845C172.533 128.995 173.172 129.167 173.786 129.363C174.403 129.56 174.979 129.776 175.432 130.01C175.907 130.255 176.162 130.477 176.251 130.643L177.132 130.171C176.89 129.72 176.396 129.382 175.891 129.121C175.365 128.85 174.729 128.614 174.09 128.41C173.449 128.206 172.788 128.028 172.207 127.877C171.618 127.724 171.127 127.602 170.795 127.502L170.507 128.46ZM176.251 130.643C176.508 131.123 176.909 131.822 177.281 132.559C177.659 133.307 177.962 134.01 178.041 134.472L179.027 134.302C178.918 133.674 178.547 132.847 178.174 132.108C177.796 131.359 177.37 130.613 177.132 130.171L176.251 130.643ZM177.182 138.051C177.445 137.179 177.868 136.617 178.37 136.261C178.878 135.902 179.508 135.723 180.229 135.694C181.689 135.636 183.414 136.192 184.903 136.898L185.331 135.994C183.791 135.264 181.89 134.627 180.189 134.695C179.331 134.73 178.498 134.945 177.792 135.445C177.082 135.948 176.542 136.71 176.224 137.763L177.182 138.051ZM184.903 136.898C185.23 137.053 185.765 137.207 186.309 137.365C186.876 137.53 187.498 137.711 188.067 137.924C188.646 138.141 189.118 138.372 189.41 138.619C189.691 138.856 189.716 139.017 189.672 139.162L190.629 139.451C190.835 138.769 190.495 138.226 190.055 137.854C189.626 137.493 189.02 137.213 188.418 136.988C187.807 136.759 187.148 136.568 186.588 136.405C186.004 136.236 185.567 136.106 185.331 135.994L184.903 136.898ZM189.672 139.162C189.399 140.068 189.228 141.121 189.066 142.12C188.902 143.138 188.747 144.098 188.51 144.883L189.468 145.171C189.728 144.309 189.892 143.277 190.053 142.28C190.217 141.265 190.379 140.281 190.629 139.451L189.672 139.162ZM174.891 136.777C176.647 138.459 178.07 140.207 179.639 142.044L180.4 141.395C178.85 139.58 177.385 137.781 175.583 136.055L174.891 136.777ZM179.639 142.044C180.411 142.948 181.468 143.486 182.534 143.869C183.575 144.243 184.753 144.508 185.664 144.783L185.952 143.826C184.924 143.516 183.897 143.296 182.873 142.928C181.874 142.569 181.007 142.106 180.4 141.395L179.639 142.044ZM185.664 144.783C186.524 145.042 187.377 145.213 188.201 145.378C189.033 145.544 189.835 145.704 190.631 145.945L190.92 144.987C190.07 144.731 189.222 144.562 188.398 144.397C187.567 144.231 186.759 144.069 185.952 143.826L185.664 144.783ZM190.631 145.945C191.094 146.084 191.519 146.289 191.986 146.514C192.443 146.735 192.94 146.976 193.497 147.144L193.786 146.187C193.316 146.045 192.887 145.839 192.421 145.614C191.965 145.394 191.47 145.153 190.92 144.987L190.631 145.945ZM212.433 143.061C212.093 142.728 211.86 142.389 211.657 142.058C211.466 141.749 211.263 141.373 211.032 141.084C210.779 140.766 210.456 140.495 209.978 140.356C209.519 140.222 208.963 140.222 208.261 140.343L208.431 141.329C209.059 141.22 209.445 141.242 209.698 141.316C209.932 141.384 210.092 141.509 210.25 141.707C210.43 141.933 210.567 142.196 210.805 142.582C211.029 142.947 211.311 143.362 211.733 143.775L212.433 143.061ZM208.261 140.343C206.976 140.565 205.648 140.653 204.275 140.785C202.918 140.916 201.532 141.091 200.208 141.494L200.499 142.45C201.723 142.078 203.025 141.911 204.372 141.781C205.703 141.652 207.098 141.559 208.431 141.329L208.261 140.343ZM200.97 145.702C202.101 146.079 203.064 146.76 204.113 147.492C205.142 148.211 206.251 148.974 207.6 149.381L207.889 148.423C206.714 148.069 205.727 147.399 204.685 146.672C203.663 145.959 202.58 145.184 201.285 144.754L200.97 145.702ZM207.6 149.381C208.904 149.773 210.3 150.307 211.799 150.368L211.84 149.369C210.506 149.314 209.29 148.845 207.889 148.423L207.6 149.381ZM211.799 150.368C212.532 150.399 213.16 150.162 213.704 149.926C214.274 149.678 214.727 149.448 215.242 149.348L215.051 148.366C214.397 148.493 213.8 148.794 213.306 149.008C212.785 149.234 212.334 149.39 211.84 149.369L211.799 150.368ZM232.637 151.208L219.614 143.315L219.096 144.17L232.118 152.063L232.637 151.208ZM219.5 143.264C218.641 143.005 216.338 142.14 214.01 141.258C211.702 140.383 209.377 139.494 208.516 139.209L208.201 140.158C209.036 140.435 211.329 141.311 213.656 142.193C215.962 143.067 218.31 143.95 219.211 144.221L219.5 143.264ZM208.516 139.209C206.408 138.509 204.373 137.646 202.308 136.787C200.249 135.931 198.164 135.08 195.987 134.424L195.698 135.382C197.821 136.022 199.864 136.854 201.924 137.71C203.977 138.564 206.05 139.444 208.201 140.158L208.516 139.209ZM195.987 134.424C194.251 133.901 192.585 133.233 190.902 132.558C189.226 131.885 187.533 131.204 185.773 130.674L185.485 131.631C187.195 132.147 188.847 132.81 190.53 133.486C192.206 134.159 193.912 134.843 195.698 135.382L195.987 134.424ZM185.773 130.674C184.91 130.413 183.018 129.821 181.153 129.497C180.222 129.334 179.271 129.234 178.444 129.283C177.638 129.33 176.837 129.525 176.328 130.064L177.055 130.75C177.293 130.498 177.765 130.324 178.503 130.281C179.219 130.239 180.083 130.325 180.982 130.482C182.776 130.794 184.606 131.366 185.485 131.631L185.773 130.674ZM141.324 227.97C142.723 228.7 144.336 230.116 146.072 231.539C147.762 232.925 149.575 234.323 151.278 234.836L151.567 233.879C150.087 233.433 148.425 232.176 146.706 230.766C145.033 229.394 143.305 227.875 141.787 227.083L141.324 227.97ZM151.278 234.836L164.825 238.92L165.113 237.962L151.567 233.879L151.278 234.836ZM164.825 238.92C173.45 241.519 185.793 243.216 194.647 242.959L194.618 241.959C185.876 242.213 173.64 240.532 165.113 237.962L164.825 238.92ZM231.628 117.436L253.013 78.9584L252.139 78.4726L230.754 116.95L231.628 117.436ZM252.576 78.7155C252.19 79.0339 252.19 79.034 252.19 79.0341C252.19 79.0341 252.19 79.0342 252.191 79.0343C252.191 79.0345 252.191 79.0348 252.191 79.035C252.192 79.0356 252.192 79.0363 252.193 79.0372C252.194 79.039 252.196 79.0414 252.199 79.0445C252.204 79.0506 252.211 79.0593 252.221 79.0705C252.24 79.0927 252.267 79.1246 252.302 79.1647C252.373 79.2449 252.475 79.3585 252.603 79.4945C252.859 79.766 253.224 80.13 253.657 80.4985C254.495 81.2122 255.696 82.0356 256.906 82.0941L256.954 81.0953C256.105 81.0542 255.129 80.438 254.305 79.7369C253.907 79.3981 253.569 79.061 253.33 78.8082C253.211 78.6821 253.118 78.5777 253.054 78.5056C253.023 78.4695 252.999 78.4415 252.983 78.423C252.975 78.4138 252.969 78.4069 252.966 78.4025C252.964 78.4003 252.963 78.3987 252.962 78.3978C252.961 78.3974 252.961 78.3971 252.961 78.397C252.961 78.3969 252.961 78.3969 252.961 78.3969C252.961 78.3969 252.961 78.397 252.961 78.397C252.961 78.397 252.961 78.3971 252.576 78.7155ZM249.311 83.6456C249.248 84.2683 249.298 85.144 249.308 85.6922L250.308 85.6739C250.297 85.0499 250.251 84.2897 250.306 83.7455L249.311 83.6456ZM249.308 85.6922C249.312 85.899 249.329 86.101 249.347 86.288C249.365 86.4803 249.383 86.6532 249.392 86.8279L250.39 86.7751C250.38 86.5745 250.359 86.3746 250.342 86.1947C250.325 86.0095 250.311 85.84 250.308 85.6739L249.308 85.6922ZM249.392 86.8279C249.411 87.1986 249.493 87.5799 249.549 87.891C249.608 88.223 249.645 88.5016 249.622 88.7602L250.618 88.8488C250.654 88.4464 250.594 88.0535 250.533 87.7142C250.468 87.354 250.406 87.0644 250.39 86.7751L249.392 86.8279ZM249.622 88.7602C249.593 89.0948 249.637 89.4246 249.673 89.6942C249.711 89.9828 249.741 90.2122 249.727 90.4337L250.725 90.4968C250.746 90.1598 250.699 89.8295 250.664 89.5627C250.626 89.2769 250.6 89.0556 250.618 88.8488L249.622 88.7602ZM249.727 90.4337C249.706 90.759 249.735 91.079 249.767 91.3685C249.801 91.6716 249.838 91.9272 249.851 92.1879L250.85 92.1351C250.834 91.8352 250.791 91.5221 250.761 91.257C250.73 90.9783 250.71 90.7305 250.725 90.4968L249.727 90.4337ZM249.851 92.1879C249.854 92.2353 249.851 92.3287 249.842 92.4754C249.834 92.607 249.822 92.7822 249.814 92.9437C249.805 93.1086 249.799 93.2852 249.804 93.4444C249.808 93.5846 249.821 93.7802 249.887 93.9431L250.815 93.5703C250.821 93.5871 250.807 93.5503 250.803 93.4141C250.8 93.2969 250.804 93.153 250.812 92.9958C250.821 92.8351 250.831 92.6863 250.84 92.5344C250.848 92.3976 250.856 92.248 250.85 92.1351L249.851 92.1879ZM244.488 92.2627C243.838 94.418 243.642 97.5014 243.69 99.6654L244.69 99.6431C244.643 97.5222 244.84 94.5599 245.445 92.5513L244.488 92.2627ZM243.69 99.6654C243.72 100.993 243.737 103.777 243.968 105.175L244.955 105.012C244.738 103.705 244.721 101.032 244.69 99.6431L243.69 99.6654ZM237.262 105.267C237.088 105.865 237.042 106.797 237.055 107.831C237.068 108.885 237.144 110.108 237.243 111.325C237.341 112.542 237.463 113.76 237.568 114.802C237.674 115.85 237.762 116.709 237.795 117.225L238.793 117.161C238.758 116.621 238.668 115.738 238.563 114.701C238.458 113.659 238.337 112.45 238.239 111.244C238.141 110.036 238.067 108.839 238.055 107.819C238.042 106.779 238.094 105.984 238.222 105.547L237.262 105.267ZM252.502 78.8677C252.568 78.8725 252.627 78.8709 252.674 78.8686C252.697 78.8675 252.719 78.866 252.737 78.8648C252.757 78.8635 252.771 78.8625 252.786 78.8617C252.844 78.8586 252.845 78.8634 252.831 78.8594L253.12 77.9019C252.962 77.8542 252.818 77.8585 252.732 77.8632C252.623 77.869 252.607 77.8727 252.573 77.8703L252.502 78.8677ZM254.826 79.4605C255.511 79.6671 256.112 80.0218 256.652 80.506L257.319 79.7615C256.682 79.1901 255.955 78.7564 255.114 78.503L254.826 79.4605ZM256.652 80.506C256.718 80.5657 256.807 80.6808 256.867 80.81C256.931 80.9506 256.92 81.0166 256.92 81.0155L257.878 81.3041C257.98 80.9652 257.883 80.6266 257.776 80.3929C257.663 80.1478 257.495 79.9188 257.319 79.7615L256.652 80.506ZM252.831 78.8594L254.826 79.4605L255.114 78.503L253.12 77.9019L252.831 78.8594ZM159.194 132.847C158.272 136.379 157.631 139.067 156.791 142.643L157.765 142.871C158.604 139.297 159.243 136.619 160.162 133.1L159.194 132.847ZM141.635 217.213C141.284 220.594 141.26 224.114 141.057 227.496L142.055 227.557C142.263 224.092 142.28 220.677 142.63 217.317L141.635 217.213ZM195.088 242.666C195.58 241.585 196.044 240.487 196.462 239.366L195.525 239.017C195.117 240.111 194.662 241.187 194.178 242.252L195.088 242.666ZM229.676 160.255C230.847 157.231 231.807 154.931 232.852 151.794L231.903 151.478C230.868 154.585 229.924 156.846 228.743 159.893L229.676 160.255ZM210.201 132.441L210.207 132.403L209.219 132.251L209.213 132.289L210.201 132.441ZM210.207 132.404C210.841 128.302 211.536 123.828 211.004 119.614L210.012 119.739C210.523 123.79 209.857 128.12 209.219 132.251L210.207 132.404ZM210.201 132.442C210.203 132.427 210.205 132.418 210.207 132.404L209.219 132.251C209.217 132.262 209.215 132.278 209.213 132.289L210.201 132.442ZM222.167 128.028C222.142 127.389 222.148 126.75 222.196 126.109L221.199 126.035C221.148 126.718 221.142 127.396 221.168 128.068L222.167 128.028ZM163.863 116.275C164.243 116.814 164.639 117.455 165.089 117.986C165.558 118.537 166.128 119.029 166.927 119.319L167.268 118.379C166.682 118.167 166.247 117.804 165.852 117.339C165.439 116.852 165.114 116.313 164.68 115.699L163.863 116.275ZM222.635 131.999C222.406 130.671 222.22 129.352 222.167 128.028L221.168 128.068C221.223 129.456 221.418 130.824 221.65 132.169L222.635 131.999ZM165.724 112.989C164.787 113.878 164.219 114.594 163.799 115.825L164.745 116.149C165.097 115.119 165.548 114.534 166.412 113.715L165.724 112.989ZM163.863 116.275C163.902 116.324 164.011 116.414 164.082 116.45C164.165 116.475 164.326 116.484 164.399 116.47C164.452 116.453 164.538 116.41 164.57 116.388C164.592 116.371 164.628 116.337 164.642 116.322C164.671 116.291 164.689 116.263 164.697 116.251C164.706 116.236 164.713 116.223 164.717 116.215C164.73 116.189 164.738 116.167 164.739 116.164C164.744 116.152 164.748 116.141 164.748 116.138C164.751 116.13 164.753 116.122 164.755 116.118C164.758 116.106 164.762 116.093 164.766 116.08C164.773 116.053 164.783 116.02 164.789 115.995C164.79 115.99 164.798 115.963 164.802 115.936C164.803 115.931 164.805 115.921 164.806 115.909C164.807 115.903 164.812 115.869 164.81 115.827C164.809 115.812 164.807 115.749 164.779 115.673C164.765 115.635 164.732 115.558 164.658 115.487C164.572 115.404 164.448 115.345 164.304 115.346C164.179 115.348 164.087 115.396 164.042 115.425C163.994 115.455 163.962 115.487 163.945 115.505C163.911 115.541 163.891 115.574 163.884 115.586C163.867 115.613 163.856 115.636 163.854 115.642C163.849 115.652 163.846 115.66 163.844 115.665C163.84 115.674 163.838 115.682 163.836 115.686C163.827 115.713 163.811 115.764 163.789 115.837L164.746 116.125C164.758 116.088 164.766 116.061 164.772 116.042C164.779 116.021 164.78 116.016 164.779 116.018C164.779 116.02 164.777 116.025 164.774 116.032C164.773 116.036 164.77 116.043 164.766 116.052C164.763 116.058 164.753 116.08 164.737 116.107C164.729 116.119 164.709 116.152 164.676 116.188C164.659 116.206 164.627 116.238 164.579 116.268C164.533 116.297 164.442 116.345 164.316 116.346C164.173 116.348 164.049 116.289 163.963 116.206C163.889 116.134 163.855 116.058 163.841 116.019C163.813 115.944 163.811 115.881 163.811 115.866C163.809 115.824 163.813 115.791 163.814 115.785C163.816 115.774 163.817 115.764 163.818 115.76C163.821 115.741 163.825 115.728 163.821 115.744C163.817 115.759 163.81 115.785 163.804 115.807C163.8 115.819 163.798 115.827 163.797 115.832C163.796 115.835 163.796 115.833 163.797 115.829C163.798 115.829 163.8 115.82 163.805 115.808C163.806 115.806 163.814 115.784 163.827 115.758C163.831 115.751 163.838 115.738 163.847 115.723C163.855 115.711 163.873 115.683 163.901 115.651C163.915 115.636 163.951 115.603 163.973 115.586C164.006 115.563 164.091 115.521 164.144 115.503C164.218 115.49 164.379 115.498 164.461 115.524C164.532 115.56 164.642 115.65 164.68 115.699L163.863 116.275ZM163.859 116.27C163.859 116.269 163.859 116.269 163.859 116.27C163.86 116.27 163.861 116.273 163.863 116.275L164.68 115.699C164.681 115.699 164.681 115.7 164.68 115.698C164.68 115.698 164.678 115.695 164.676 115.693L163.859 116.27ZM225.734 138.527C227.125 138.574 228.541 138.573 229.905 138.409L229.785 137.417C228.497 137.571 227.141 137.574 225.768 137.527L225.734 138.527ZM229.905 138.409C230.847 138.296 231.76 138.116 232.651 137.933L232.45 136.953C231.56 137.136 230.683 137.309 229.785 137.417L229.905 138.409ZM233.021 137.274C233.001 137.218 232.98 137.088 232.983 136.869C232.986 136.663 233.008 136.422 233.043 136.171C233.113 135.669 233.226 135.176 233.296 134.942L232.339 134.653C232.251 134.944 232.128 135.488 232.052 136.034C232.014 136.309 231.987 136.594 231.983 136.856C231.98 137.105 231.997 137.382 232.08 137.612L233.021 137.274ZM232.734 121.273C232.508 119.96 232.178 118.462 231.662 117.024L230.721 117.362C231.21 118.725 231.527 120.16 231.749 121.443L232.734 121.273ZM231.662 117.024C230.988 115.146 229.975 113.314 228.401 112.152L227.807 112.957C229.15 113.948 230.075 115.564 230.721 117.362L231.662 117.024ZM232.08 137.612C232.119 137.722 232.185 137.854 232.301 137.964L232.988 137.237C233.007 137.255 233.018 137.271 233.022 137.278C233.025 137.284 233.024 137.284 233.021 137.274L232.08 137.612ZM232.651 137.933C233.062 137.849 233.465 137.765 233.871 137.685L233.678 136.704C233.267 136.785 232.856 136.87 232.45 136.953L232.651 137.933ZM214.594 137.627C217.104 138.124 220.043 138.279 222.392 138.374L222.432 137.375C220.079 137.28 217.212 137.126 214.789 136.646L214.594 137.627ZM141.057 227.496C140.942 229.405 140.77 231.289 140.452 233.129L141.437 233.299C141.764 231.408 141.939 229.484 142.055 227.557L141.057 227.496ZM189.932 253.092C190.741 251.352 191.622 249.639 192.508 247.91C193.392 246.185 194.279 244.445 195.088 242.666L194.178 242.252C193.38 244.007 192.503 245.727 191.618 247.454C190.735 249.178 189.843 250.909 189.025 252.671L189.932 253.092ZM216.472 148.633C215.622 146.177 214.275 144.865 212.533 143.159L211.833 143.873C213.579 145.584 214.762 146.751 215.527 148.96L216.472 148.633ZM212.533 143.159L212.433 143.061L211.733 143.775L211.833 143.873L212.533 143.159ZM200.208 141.494C199.674 141.656 198.901 141.859 198.176 142.108C197.45 142.358 196.684 142.682 196.128 143.131L196.757 143.909C197.17 143.575 197.797 143.296 198.502 143.054C199.209 142.81 199.906 142.631 200.499 142.45L200.208 141.494ZM196.236 143.975C197.755 144.664 199.309 145.15 200.97 145.702L201.285 144.754C199.598 144.192 198.108 143.726 196.649 143.065L196.236 143.975ZM215.242 149.348C215.445 149.308 215.699 149.291 215.991 149.296L216.008 148.296C215.674 148.291 215.346 148.309 215.051 148.366L215.242 149.348ZM193.426 142.396C194.37 143.046 195.298 143.55 196.236 143.975L196.649 143.065C195.758 142.66 194.882 142.184 193.992 141.572L193.426 142.396ZM196.128 143.131C196.025 143.214 195.927 143.304 195.837 143.399L196.564 144.086C196.62 144.027 196.684 143.968 196.757 143.909L196.128 143.131ZM215.991 149.296C217.039 149.315 218.39 149.61 219.211 149.858L219.5 148.9C218.634 148.639 217.185 148.317 216.008 148.296L215.991 149.296ZM216.566 148.914C216.535 148.819 216.504 148.725 216.472 148.633L215.527 148.96C215.557 149.045 215.585 149.131 215.613 149.219L216.566 148.914ZM212.533 143.159C212.5 143.126 212.466 143.094 212.433 143.061L211.733 143.775C211.767 143.808 211.8 143.841 211.833 143.873L212.533 143.159ZM252.139 78.4726L249.371 83.4527L250.245 83.9384L253.013 78.9584L252.139 78.4726ZM250.793 93.9896C253.224 89.3719 255.519 85.1041 257.365 81.8409L256.495 81.3485C254.641 84.6248 252.34 88.9031 249.908 93.5238L250.793 93.9896ZM244.53 92.1641L237.305 105.164L238.179 105.65L245.404 92.6499L244.53 92.1641ZM249.371 83.4527L244.53 92.1641L245.404 92.6499L250.245 83.9384L249.371 83.4527ZM238.74 117.419C238.869 117.164 239 116.906 239.132 116.645L238.24 116.194C238.108 116.455 237.977 116.713 237.848 116.967L238.74 117.419ZM239.132 116.645C242.445 110.102 246.799 101.578 250.793 93.9896L249.908 93.5238C245.911 101.119 241.554 109.649 238.24 116.194L239.132 116.645ZM256.495 81.3485C251.598 90.004 243.569 105.67 238.24 116.194L239.132 116.645C244.463 106.117 252.482 90.4727 257.365 81.8409L256.495 81.3485ZM238.24 116.194C236.64 119.352 235.284 122.049 234.327 123.956C233.848 124.909 233.469 125.666 233.21 126.183C233.081 126.442 232.981 126.642 232.914 126.776C232.88 126.844 232.855 126.895 232.838 126.929C232.829 126.946 232.823 126.959 232.818 126.968C232.816 126.972 232.815 126.975 232.814 126.978C232.813 126.979 232.813 126.979 232.812 126.98C232.812 126.98 232.812 126.981 232.812 126.981C232.812 126.981 232.812 126.981 232.812 126.981C232.812 126.981 232.812 126.981 233.259 127.204C233.707 127.427 233.707 127.427 233.707 127.427C233.707 127.427 233.707 127.427 233.707 127.427C233.707 127.427 233.707 127.427 233.707 127.426C233.708 127.426 233.708 127.425 233.709 127.424C233.71 127.422 233.711 127.418 233.713 127.414C233.718 127.406 233.724 127.393 233.733 127.375C233.75 127.341 233.775 127.29 233.809 127.223C233.876 127.089 233.975 126.889 234.105 126.631C234.364 126.113 234.742 125.357 235.22 124.404C236.177 122.498 237.533 119.802 239.132 116.645L238.24 116.194ZM238.74 117.419L239.132 116.645L238.24 116.194L237.848 116.967L238.74 117.419ZM239.132 116.645C240.843 113.266 242.832 109.357 244.906 105.322L244.017 104.865C241.942 108.902 239.952 112.813 238.24 116.194L239.132 116.645Z" fill="#3D32C0"/>
</g>
<defs>
<filter id="filter0_d" x="0.382822" y="0.155273" width="214.453" height="251.446" filterUnits="userSpaceOnUse" color-interpolation-filters="sRGB">
<feFlood flood-opacity="0" result="BackgroundImageFix"/>
<feColorMatrix in="SourceAlpha" type="matrix" values="0 0 0 0 0 0 0 0 0 0 0 0 0 0 0 0 0 0 127 0"/>
<feOffset dx="2.22853" dy="6.68558"/>
<feGaussianBlur stdDeviation="1.5"/>
<feColorMatrix type="matrix" values="0 0 0 0 0 0 0 0 0 0 0 0 0 0 0 0 0 0 0.25 0"/>
<feBlend mode="normal" in2="BackgroundImageFix" result="effect1_dropShadow"/>
<feBlend mode="normal" in="SourceGraphic" in2="effect1_dropShadow" result="shape"/>
</filter>
<filter id="filter1_d" x="124.605" y="56.377" width="139.045" height="219.698" filterUnits="userSpaceOnUse" color-interpolation-filters="sRGB">
<feFlood flood-opacity="0" result="BackgroundImageFix"/>
<feColorMatrix in="SourceAlpha" type="matrix" values="0 0 0 0 0 0 0 0 0 0 0 0 0 0 0 0 0 0 127 0"/>
<feOffset dx="2.22853" dy="6.68558"/>
<feGaussianBlur stdDeviation="1.5"/>
<feColorMatrix type="matrix" values="0 0 0 0 0 0 0 0 0 0 0 0 0 0 0 0 0 0 0.25 0"/>
<feBlend mode="normal" in2="BackgroundImageFix" result="effect1_dropShadow"/>
<feBlend mode="normal" in="SourceGraphic" in2="effect1_dropShadow" result="shape"/>
</filter>
</defs>
</svg>
