<svg width="358" height="363" viewBox="0 0 358 363" fill="none" xmlns="http://www.w3.org/2000/svg">
<g filter="url(#filter0_i)">
<path fill-rule="evenodd" clip-rule="evenodd" d="M133.476 252.539C137.808 252.861 142.357 253.695 146.322 252.052C152.905 249.324 156.663 240.343 163.823 239.966C169.879 239.647 174.324 246.624 179.458 250.306C185.165 254.399 191.235 257.846 196.048 263.075C201.561 269.067 212.091 275.574 209.747 283.223C206.669 293.261 192.581 293.475 184.752 299.918C181.11 302.916 178.216 306.778 175.954 311.037C173.362 315.918 172.841 321.699 170.511 326.733C167.115 334.069 166.882 347.926 158.98 347.704C149.989 347.451 149.989 327.898 141.119 325.908C132.296 323.928 126.524 341.515 117.928 338.493C110.681 335.945 115.301 322.666 111.658 315.548C108.676 309.723 98.7973 307.628 98.8072 301.14C98.8189 293.487 109.009 290.455 111.706 283.477C113.485 278.874 111.114 273.472 111.443 268.452C111.862 262.063 108.995 253.201 113.924 249.641C119.249 245.795 126.876 252.048 133.476 252.539Z" fill="#FED6D9"/>
</g>
<path fill-rule="evenodd" clip-rule="evenodd" d="M133.476 252.539C137.808 252.861 142.357 253.695 146.322 252.052C152.905 249.324 156.663 240.343 163.823 239.966C169.879 239.647 174.324 246.624 179.458 250.306C185.165 254.399 191.235 257.846 196.048 263.075C201.561 269.067 212.091 275.574 209.747 283.223C206.669 293.261 192.581 293.475 184.752 299.918C181.11 302.916 178.216 306.778 175.954 311.037C173.362 315.918 172.841 321.699 170.511 326.733C167.115 334.069 166.882 347.926 158.98 347.704C149.989 347.451 149.989 327.898 141.119 325.908C132.296 323.928 126.524 341.515 117.928 338.493C110.681 335.945 115.301 322.666 111.658 315.548C108.676 309.723 98.7973 307.628 98.8072 301.14C98.8189 293.487 109.009 290.455 111.706 283.477C113.485 278.874 111.114 273.472 111.443 268.452C111.862 262.063 108.995 253.201 113.924 249.641C119.249 245.795 126.876 252.048 133.476 252.539Z" stroke="#3D32C0" stroke-width="0.5"/>
<path d="M140.357 292.418C139.337 290.041 138.193 287.938 137.227 285.538C136.615 283.72 138.186 283.433 139.524 283.836C141.088 284.307 142.266 286.345 142.81 287.754C143.026 288.312 144.369 291.686 144.996 291.269C145.718 290.789 146.142 288.75 146.269 287.836C146.356 287.214 147.077 285.024 147.634 284.604C149.218 283.407 150.033 283.812 150.738 285.637C151 286.315 150.334 287.452 150.299 288.17C150.259 288.978 149.821 289.673 149.78 290.498C149.749 291.12 149.004 291.824 150.067 292.16C150.616 292.334 151.149 292.538 151.698 292.712C153.065 293.144 155.251 293.845 155.448 295.518C155.715 297.789 152.953 297.677 151.38 297.089C149.91 296.539 147.92 295.528 147.117 294.008C146.85 293.502 145.368 293.152 145.724 294.074C146.002 294.793 146.443 295.321 146.725 296.051C147.116 297.065 148.648 298.838 147.965 300.01C147.609 300.622 146.008 300.773 145.429 300.517C144.907 300.285 143.895 299.688 143.658 299.126C142.714 296.887 141.329 294.679 140.357 292.418Z" fill="#F5FF96"/>
<path d="M114.355 297.919C116.091 300.68 118.229 303.296 120.731 305.383C122.062 306.493 123.048 307.123 124.83 307.292C125.674 307.373 127.763 309.262 126.561 309.972C125.127 310.82 123.393 310.973 121.87 311.561C120.918 311.929 120.707 311.914 121.097 312.924C121.48 313.917 121.846 313.914 122.8 314.275C124.209 314.807 126.737 313.756 128.008 313.208C130.097 312.308 129.637 308.876 129.77 307.196C130 304.289 129.441 300.994 128.63 298.195C128.29 297.02 127.343 292.777 125.627 293.105C125.144 293.197 124.379 293.473 123.97 293.745C123.519 294.045 124.159 295.764 124.325 296.194C124.737 297.261 125.328 298.374 125.585 299.49C125.818 300.499 125.831 301.615 126.092 302.603C126.424 303.861 124.313 305.399 123.387 304.304C122.077 302.755 121.557 300.605 120.602 298.828C120.33 298.322 119.766 297.675 119.321 297.313C118.83 296.914 118.471 297.195 117.947 297.122C117.355 297.039 114.417 297.269 114.355 297.919Z" fill="#F5FF96"/>
<path d="M132.001 294.648C132.998 297.231 134.58 299.488 135.557 302.019C135.991 303.143 137.251 303.965 138.385 303.527C139.404 303.133 140.441 303.037 139.942 301.744C139.009 299.328 138.004 296.948 136.955 294.625C136.045 292.608 133.431 294.095 132.001 294.648Z" fill="#F5FF96"/>
<path d="M179.759 272.654C177.662 272.357 176.761 273.103 174.836 273.846C172.92 274.586 171.357 274.899 170.675 276.977C170.302 278.112 170.238 280.271 170.607 281.389C171.367 283.695 172.862 283.827 174.907 283.037C176.199 282.538 178.659 281.124 179.474 282.928C180.095 284.303 176.827 284.916 175.914 284.999C174.767 285.103 173.405 284.799 172.322 285.218C170.555 285.9 171.754 287.644 172.754 288.478C174.227 289.706 175.993 289.472 177.736 288.799C179.862 287.978 181.7 287.246 183.053 285.327C184.197 283.705 184.418 281.653 183.688 279.763C183.127 278.311 181.123 278.415 179.833 278.351C178.443 278.282 177.228 278.766 175.779 278.564C175.021 278.458 174.573 277.494 175.468 277.148L177.628 276.313C178.301 276.053 178.846 275.78 179.576 275.85L179.587 275.851C180.269 275.916 181.006 275.986 181.386 275.334C181.922 274.414 180.678 272.741 179.759 272.654Z" fill="#F5FF96"/>
<path d="M186.476 275.968C188.037 275.365 188.532 275.84 188.484 273.958C188.45 272.623 188.172 271.161 187.889 269.868C187.394 267.612 185.54 264.907 182.995 265.731C181.095 266.346 182.897 270.373 183.335 271.509C184.035 273.32 184.588 275.132 186.476 275.968Z" fill="#F5FF96"/>
<path d="M189.645 278.053C188.969 278.314 187.974 278.469 187.684 279.231C187.43 279.896 187.916 280.379 187.829 281C187.593 282.696 189.262 283.401 190.57 282.896C192.575 282.121 193.075 280.812 192.298 278.801C191.827 277.582 190.624 277.675 189.645 278.053Z" fill="#F5FF96"/>
<path d="M131.606 286.895C130.799 287.207 130.086 287.179 130.262 288.346C130.413 289.346 130.682 290.57 131.987 290.635C133.532 290.712 133.942 289.473 133.511 288.155C133.178 287.138 132.668 286.845 131.606 286.895Z" fill="#F5FF96"/>
<path fill-rule="evenodd" clip-rule="evenodd" d="M161.398 288.732C163.839 288.737 167.552 287.311 167.871 284.573C168.052 283.019 166.8 280.496 164.651 279.908C164.32 280.006 163.518 279.959 163.107 279.935L163.058 279.932C162.439 279.896 161.679 280.111 161.099 280.335C160.978 280.381 160.851 280.428 160.72 280.476C159.914 280.771 158.97 281.116 158.545 281.847C157.469 283.693 157.105 285.888 157.794 287.993C157.873 288.234 157.949 288.473 158.024 288.709L158.024 288.71C159.029 291.87 159.862 294.486 164.67 293.557C165.039 293.435 165.458 293.317 165.901 293.193C168.426 292.486 171.702 291.569 170.442 288.307C169.851 286.776 168.399 287.886 167.26 288.757C166.832 289.084 166.448 289.378 166.17 289.485C166.055 289.529 165.867 289.619 165.642 289.727C164.913 290.075 163.793 290.611 163.457 290.415C163.318 290.334 163.18 290.259 163.045 290.184C162.376 289.816 161.761 289.478 161.398 288.732ZM163.026 284.209C160.437 283.669 161.618 286.537 162.302 286.475C163.362 286.379 163.535 284.794 163.026 284.209Z" fill="#F5FF96"/>
<path d="M137.227 285.538C137.287 285.692 137.165 285.385 137.227 285.538ZM137.227 285.538C138.193 287.938 139.337 290.041 140.357 292.418C141.329 294.679 142.714 296.887 143.658 299.126C143.895 299.688 144.907 300.286 145.429 300.517C146.008 300.773 147.609 300.622 147.965 300.01C148.648 298.838 147.116 297.065 146.725 296.051C146.443 295.321 146.002 294.793 145.724 294.074C145.368 293.152 146.85 293.502 147.117 294.008C147.92 295.528 149.91 296.539 151.38 297.089C152.953 297.677 155.715 297.789 155.448 295.518C155.251 293.845 153.065 293.144 151.698 292.712C151.149 292.538 150.616 292.334 150.067 292.16C149.004 291.824 149.749 291.12 149.78 290.498C149.821 289.673 150.259 288.978 150.299 288.17C150.334 287.452 151 286.315 150.738 285.637C150.033 283.812 149.218 283.407 147.634 284.604C147.077 285.024 146.356 287.214 146.269 287.836C146.142 288.75 145.718 290.789 144.996 291.269C144.369 291.686 143.026 288.312 142.81 287.754C142.266 286.345 141.088 284.307 139.524 283.836C138.186 283.433 136.615 283.72 137.227 285.538ZM137.227 285.538C137.244 285.588 137.206 285.485 137.227 285.538ZM161.388 288.732C161.392 288.732 161.395 288.732 161.398 288.732M161.398 288.732C163.839 288.737 167.552 287.311 167.871 284.573C168.052 283.019 166.8 280.496 164.651 279.908C164.32 280.006 163.518 279.959 163.107 279.935M161.398 288.732C161.366 288.667 161.426 288.804 161.398 288.732ZM161.398 288.732C161.761 289.478 162.376 289.816 163.045 290.184C163.18 290.259 163.318 290.334 163.457 290.415C163.793 290.611 164.913 290.075 165.642 289.727C165.867 289.619 166.055 289.529 166.17 289.485C166.448 289.378 166.832 289.084 167.26 288.757C168.399 287.886 169.851 286.776 170.442 288.307C171.702 291.569 168.426 292.486 165.901 293.193C165.458 293.317 165.039 293.435 164.67 293.557C159.862 294.486 159.029 291.87 158.024 288.71L158.024 288.709C157.949 288.473 157.873 288.234 157.794 287.993C157.105 285.888 157.469 283.693 158.545 281.847C158.97 281.116 159.914 280.771 160.72 280.476C160.851 280.428 160.978 280.381 161.099 280.335C161.679 280.111 162.439 279.896 163.058 279.932M163.058 279.932L163.107 279.935M163.058 279.932C163.074 279.933 163.09 279.934 163.107 279.935M163.026 284.209C163.083 284.221 162.572 283.982 162.632 283.997C162.791 284.012 162.923 284.09 163.026 284.209ZM163.026 284.209C160.437 283.669 161.618 286.537 162.302 286.475C163.362 286.379 163.535 284.794 163.026 284.209ZM114.355 297.919C116.091 300.68 118.229 303.296 120.731 305.383C122.062 306.493 123.048 307.123 124.83 307.292C125.674 307.373 127.763 309.262 126.561 309.972C125.127 310.82 123.393 310.973 121.87 311.561C120.918 311.929 120.707 311.914 121.097 312.924C121.48 313.917 121.846 313.914 122.8 314.275C124.209 314.807 126.737 313.756 128.008 313.208C130.097 312.308 129.637 308.876 129.77 307.196C130 304.289 129.441 300.994 128.63 298.195C128.29 297.02 127.343 292.777 125.627 293.105C125.144 293.197 124.379 293.473 123.97 293.745C123.519 294.045 124.159 295.764 124.325 296.194C124.737 297.261 125.328 298.374 125.585 299.49C125.818 300.499 125.831 301.615 126.092 302.603C126.424 303.861 124.313 305.399 123.387 304.304C122.077 302.755 121.557 300.605 120.602 298.828C120.33 298.322 119.766 297.675 119.321 297.313C118.83 296.914 118.471 297.195 117.947 297.122C117.355 297.039 114.417 297.269 114.355 297.919ZM131.606 286.895C130.799 287.207 130.086 287.179 130.262 288.346C130.413 289.346 130.682 290.57 131.987 290.635C133.532 290.712 133.942 289.473 133.511 288.155C133.178 287.138 132.668 286.845 131.606 286.895ZM132.001 294.648C132.998 297.231 134.58 299.488 135.557 302.019C135.991 303.143 137.251 303.965 138.385 303.527C139.404 303.133 140.441 303.037 139.942 301.744C139.009 299.328 138.004 296.948 136.955 294.625C136.045 292.608 133.431 294.095 132.001 294.648ZM179.759 272.654C177.662 272.357 176.761 273.103 174.836 273.846C172.92 274.586 171.357 274.899 170.675 276.977C170.302 278.112 170.238 280.271 170.607 281.389C171.367 283.695 172.862 283.827 174.907 283.037C176.199 282.538 178.659 281.124 179.474 282.928C180.095 284.303 176.827 284.916 175.914 284.999C174.767 285.103 173.405 284.799 172.322 285.218C170.555 285.9 171.754 287.644 172.754 288.478C174.227 289.706 175.993 289.472 177.736 288.799C179.862 287.978 181.7 287.246 183.053 285.327C184.197 283.705 184.418 281.653 183.688 279.763C183.127 278.311 181.123 278.415 179.833 278.351C178.443 278.282 177.228 278.766 175.779 278.564C175.021 278.458 174.573 277.494 175.468 277.148L177.628 276.313C178.301 276.053 178.846 275.78 179.576 275.85L179.587 275.851C180.269 275.916 181.006 275.986 181.386 275.334C181.922 274.414 180.678 272.741 179.759 272.654ZM186.476 275.968C188.037 275.365 188.532 275.84 188.484 273.958C188.45 272.623 188.172 271.161 187.889 269.868C187.394 267.612 185.54 264.907 182.995 265.731C181.095 266.346 182.897 270.373 183.335 271.509C184.035 273.32 184.588 275.132 186.476 275.968ZM189.645 278.053C188.969 278.314 187.974 278.469 187.684 279.231C187.43 279.896 187.916 280.379 187.829 281C187.593 282.696 189.262 283.401 190.57 282.896C192.575 282.121 193.075 280.812 192.298 278.801C191.827 277.582 190.624 277.675 189.645 278.053Z" stroke="#3D32C0" stroke-width="0.653719" stroke-linecap="round" stroke-linejoin="round"/>
<g filter="url(#filter1_d)">
<path d="M98.8473 115.937C94.2528 131.656 85.2601 144.868 77.4404 159.079C75.3621 162.856 70.8228 167.169 71.1167 171.968C71.227 173.768 75.4563 175.275 76.7235 175.937C83.4294 179.444 90.3559 183.119 97.387 185.887C104.574 188.716 110.719 193.718 117.897 196.619C123.134 198.735 128.173 201.347 133.399 203.518C140.462 206.452 147.751 208.588 154.874 211.336C183.702 222.461 210.664 238.702 236.361 255.643C245.041 261.365 252.688 267.501 260.631 274.09C265.79 278.37 272.858 280.333 278.409 284.136C282.69 287.069 286.765 290.289 291.013 293.234C293.44 294.916 305.091 272.517 306.902 269.87C313.052 260.881 319.482 252.403 326.149 243.766C331.134 237.308 333.723 229.533 338.518 223.058C339.539 221.679 340.617 221.001 338.844 219.882C337.436 218.994 336.161 217.176 334.673 216.145C330.621 213.335 326.282 210.849 321.941 208.513C313.871 204.17 306.395 198.89 298.629 193.993C288.335 187.501 276.71 183.465 266.446 176.766C254.577 169.02 241.627 162.999 229.653 155.373C207.737 141.414 183.819 129.505 159.147 121.344C142.646 115.886 125.993 111.014 109.306 106.137C106.811 105.407 101.49 104.923 99.9128 107.79C98.0968 111.09 99.7478 112.856 98.8473 115.937Z" fill="#FFF6E8" stroke="#3D32C0" stroke-width="0.809001" stroke-linecap="round" stroke-linejoin="round"/>
<path d="M312.555 229.83C308.562 220.285 302.955 214.552 294.262 209.069C288.692 205.557 283.293 201.821 277.702 198.327C271.882 194.69 265.496 191.656 259.947 187.686C249.844 180.458 238.857 174.359 228.941 166.819C223.544 162.715 217.579 160.285 211.561 157.34C203.317 153.306 194.059 152.291 185.81 148.46C182.144 146.758 178.03 146.277 174.434 144.421C170.478 142.379 166.593 140.019 162.596 138.104C156.852 135.351 151.246 131.252 145.122 129.462C134.892 126.472 121.164 120.674 111.414 127.355C100.56 134.791 94.8087 148.987 98.6148 161.885C101.407 171.344 112.716 177.787 120.717 182.217C133.365 189.22 144.834 196.371 158.808 200.456C165.004 202.267 172.428 202.432 178.122 205.763C180.614 207.221 183.205 208.806 185.944 209.741C188.829 210.725 190.588 213.136 193.181 214.563C205.112 221.128 214.569 231.249 225.678 238.949C230.383 242.21 234.614 245.513 239.689 248.119C246.679 251.708 254.928 254.265 262.474 256.471C273.918 259.816 283.338 264.331 295.554 260.726C300.009 259.411 305.431 258.161 308.215 253.938C310.635 250.267 311.702 246.638 312.924 242.457L314.372 237.504C314.733 236.268 313.785 235.355 313.955 234.299C314.069 233.594 312.947 230.194 312.555 229.83Z" fill="#F5FF96"/>
<path d="M312.924 242.457C311.702 246.638 310.635 250.267 308.215 253.938C305.431 258.161 300.009 259.411 295.554 260.726C283.338 264.331 273.918 259.816 262.474 256.471C254.928 254.265 246.679 251.708 239.689 248.119C234.614 245.513 230.383 242.21 225.678 238.949C214.569 231.249 205.112 221.128 193.181 214.563C190.588 213.136 188.829 210.725 185.944 209.741C183.205 208.806 180.614 207.221 178.122 205.763C172.428 202.432 165.004 202.267 158.808 200.456C144.834 196.371 133.365 189.22 120.717 182.217C112.716 177.787 101.407 171.344 98.6148 161.885C94.8087 148.987 100.56 134.791 111.414 127.355C121.164 120.674 134.892 126.472 145.122 129.462C151.246 131.252 156.852 135.351 162.596 138.104C166.593 140.019 170.478 142.379 174.434 144.421C178.03 146.277 182.144 146.758 185.81 148.46C194.059 152.291 203.317 153.306 211.561 157.34C217.579 160.285 223.544 162.715 228.941 166.819C238.857 174.359 249.844 180.458 259.947 187.686C265.496 191.656 271.882 194.69 277.702 198.327C283.293 201.821 288.692 205.557 294.262 209.069C302.955 214.552 308.562 220.285 312.555 229.83C312.947 230.194 314.069 233.594 313.955 234.299C313.785 235.355 314.733 236.268 314.372 237.504M312.924 242.457C313.407 240.806 313.889 239.155 314.372 237.504M312.924 242.457L314.372 237.504" stroke="#3D32C0" stroke-width="0.809001" stroke-linecap="round" stroke-linejoin="round"/>
<path d="M244.427 194.353C245.073 191.924 245.985 188.292 245.549 185.884" stroke="#3D32C0" stroke-width="0.809001" stroke-linecap="round" stroke-linejoin="round"/>
<path d="M248.349 194.823C250.064 195.286 251.744 195.724 253.519 195.657" stroke="#3D32C0" stroke-width="0.809001" stroke-linecap="round" stroke-linejoin="round"/>
<path d="M250.785 205.009C250.416 206.269 249.081 208.579 250.133 209.555" stroke="#3D32C0" stroke-width="0.809001" stroke-linecap="round" stroke-linejoin="round"/>
<path d="M241.587 206.38C239.717 205.834 237.847 205.287 235.977 204.74" stroke="#3D32C0" stroke-width="0.809001" stroke-linecap="round" stroke-linejoin="round"/>
<path d="M237.828 193.777C237.551 190.633 238.045 187.243 235.65 185.021" stroke="#3D32C0" stroke-width="0.809001" stroke-linecap="round" stroke-linejoin="round"/>
<path d="M229.176 193.279C227.929 192.914 226.682 192.55 225.436 192.186" stroke="#3D32C0" stroke-width="0.809001" stroke-linecap="round" stroke-linejoin="round"/>
<path d="M227.987 183.458C228.127 181.925 228.206 180.393 228.639 178.911" stroke="#3D32C0" stroke-width="0.809001" stroke-linecap="round" stroke-linejoin="round"/>
<path d="M221.158 176.724C219.287 176.178 217.417 175.631 215.547 175.084" stroke="#3D32C0" stroke-width="0.809001" stroke-linecap="round" stroke-linejoin="round"/>
<path d="M223.604 170.672C223.298 167.186 222.709 165.674 226.127 166.673" stroke="#3D32C0" stroke-width="0.809001" stroke-linecap="round" stroke-linejoin="round"/>
<path d="M234.796 178.681C238.614 177.161 238.684 177.329 238.124 174.24" stroke="#3D32C0" stroke-width="0.809001" stroke-linecap="round" stroke-linejoin="round"/>
<path d="M218.606 185.453C217.314 188.103 217.974 189.932 217.225 192.493" stroke="#3D32C0" stroke-width="0.809001" stroke-linecap="round" stroke-linejoin="round"/>
<path d="M226.625 202.007C223.946 201.224 221.244 200.263 218.52 199.638C217.284 199.354 217.003 202.193 217.609 202.755" stroke="#3D32C0" stroke-width="0.809001" stroke-linecap="round" stroke-linejoin="round"/>
<path d="M227.583 205.671C226.266 207.381 224.361 209.241 225.61 211.523C226.526 213.196 227.449 213.061 227.526 215.128" stroke="#3D32C0" stroke-width="0.809001" stroke-linecap="round" stroke-linejoin="round"/>
<path d="M219.864 213.565C217.055 212.744 205.75 211.297 204.643 207.762" stroke="#3D32C0" stroke-width="0.809001" stroke-linecap="round" stroke-linejoin="round"/>
<path d="M207.453 200.463C208.434 197.108 208.745 195.427 205.17 194.382" stroke="#3D32C0" stroke-width="0.809001" stroke-linecap="round" stroke-linejoin="round"/>
<path d="M201.812 203.552C197.983 202.432 194.428 201.03 193.055 205.729" stroke="#3D32C0" stroke-width="0.809001" stroke-linecap="round" stroke-linejoin="round"/>
<path d="M222.771 219.828C222.167 221.893 220.6 225.071 222.819 226.609" stroke="#3D32C0" stroke-width="0.809001" stroke-linecap="round" stroke-linejoin="round"/>
<path d="M215.989 219.876C212.461 218.94 212.625 219.811 211.779 222.705" stroke="#3D32C0" stroke-width="0.809001" stroke-linecap="round" stroke-linejoin="round"/>
<path d="M234.25 224.537C235.266 221.352 235.59 220.868 238.461 221.707" stroke="#3D32C0" stroke-width="0.809001" stroke-linecap="round" stroke-linejoin="round"/>
<path d="M237.971 214.121C237.005 211.694 236.638 211.024 234.336 210.351" stroke="#3D32C0" stroke-width="0.809001" stroke-linecap="round" stroke-linejoin="round"/>
<path d="M231.805 230.589C231.56 231.428 229.718 235.216 230.971 235.759C231.841 236.136 231.252 237.111 231.048 237.811" stroke="#3D32C0" stroke-width="0.809001" stroke-linecap="round" stroke-linejoin="round"/>
<path d="M237.829 237.763C239.165 235.45 241.734 233.503 244.456 233.61" stroke="#3D32C0" stroke-width="0.809001" stroke-linecap="round" stroke-linejoin="round"/>
<path d="M241.807 228.776C242.339 226.956 244.985 223.731 243.006 222.359" stroke="#3D32C0" stroke-width="0.809001" stroke-linecap="round" stroke-linejoin="round"/>
<path d="M244.646 216.748C247.377 218.817 249.822 219.614 253.01 220.546" stroke="#3D32C0" stroke-width="0.809001" stroke-linecap="round" stroke-linejoin="round"/>
<path d="M254.834 214.312C256.186 209.688 255.964 210.582 259.045 211.483" stroke="#3D32C0" stroke-width="0.809001" stroke-linecap="round" stroke-linejoin="round"/>
<path d="M260.425 204.443C261.699 204.56 264.951 205.971 265.595 205.277" stroke="#3D32C0" stroke-width="0.809001" stroke-linecap="round" stroke-linejoin="round"/>
<path d="M261.988 196.779C261.571 191.559 262.303 191.742 264.98 188.857" stroke="#3D32C0" stroke-width="0.809001" stroke-linecap="round" stroke-linejoin="round"/>
<path d="M267.675 200.472C271.281 199.457 271.588 198.66 272.524 195.46C272.931 194.068 272.856 192.512 274.591 193.019" stroke="#3D32C0" stroke-width="0.809001" stroke-linecap="round" stroke-linejoin="round"/>
<path d="M274.428 205.152C276.355 205.715 278.455 205.544 280.221 206.168C281.951 206.78 282.657 210.308 283.31 211.808" stroke="#3D32C0" stroke-width="0.809001" stroke-linecap="round" stroke-linejoin="round"/>
<path d="M270.812 212.892C270.023 215.594 269.233 218.295 268.444 220.997" stroke="#3D32C0" stroke-width="0.809001" stroke-linecap="round" stroke-linejoin="round"/>
<path d="M262.908 221.41C263.887 223.738 266.039 224.751 266.482 227.191C266.715 228.48 265.285 229.559 266.332 230.531" stroke="#3D32C0" stroke-width="0.809001" stroke-linecap="round" stroke-linejoin="round"/>
<path d="M261.059 232.372C257.838 232.076 257.401 231.425 256.448 234.258C256.147 235.152 255.376 235.61 255.055 236.708" stroke="#3D32C0" stroke-width="0.809001" stroke-linecap="round" stroke-linejoin="round"/>
<path d="M261.911 238.712C261.179 241.214 260.722 243.312 259.283 245.388" stroke="#3D32C0" stroke-width="0.809001" stroke-linecap="round" stroke-linejoin="round"/>
<path d="M248.428 240.861C248.67 243.084 249.28 244.89 248.658 247.019" stroke="#3D32C0" stroke-width="0.809001" stroke-linecap="round" stroke-linejoin="round"/>
<path d="M268.117 245.263C269.406 240.853 269.014 237.405 273.906 238.835C275.653 239.345 277.06 240.433 278.85 240.956" stroke="#3D32C0" stroke-width="0.809001" stroke-linecap="round" stroke-linejoin="round"/>
<path d="M274.43 249.138C274.785 251.101 274.788 255.018 276.348 256.466" stroke="#3D32C0" stroke-width="0.809001" stroke-linecap="round" stroke-linejoin="round"/>
<path d="M280.923 252.389C281.987 248.748 281.896 248.613 285.133 249.56" stroke="#3D32C0" stroke-width="0.809001" stroke-linecap="round" stroke-linejoin="round"/>
<path d="M284.125 239.115C283.044 237.611 281.022 233.887 284.336 233.763" stroke="#3D32C0" stroke-width="0.809001" stroke-linecap="round" stroke-linejoin="round"/>
<path d="M278.285 231.317C276.732 229.157 275.038 226.936 274.938 224.248" stroke="#3D32C0" stroke-width="0.809001" stroke-linecap="round" stroke-linejoin="round"/>
<path d="M283.771 224.124C285.47 223.698 287.209 223.424 288.864 222.905" stroke="#3D32C0" stroke-width="0.809001" stroke-linecap="round" stroke-linejoin="round"/>
<path d="M288.863 222.905C289.531 220.619 290.199 218.333 290.867 216.047C291.379 214.295 289.968 213.97 289.908 212.384" stroke="#3D32C0" stroke-width="0.809001" stroke-linecap="round" stroke-linejoin="round"/>
<path d="M291.931 217.035C295.559 215.846 300.189 216.566 298.826 221.231C298.142 223.571 301.243 221.607 302.683 224.238" stroke="#3D32C0" stroke-width="0.809001" stroke-linecap="round" stroke-linejoin="round"/>
<path d="M294.6 233.379C295.205 235.04 296.255 236.977 295.727 238.783C295.423 239.822 295.244 240.293 295.712 241.148" stroke="#3D32C0" stroke-width="0.809001" stroke-linecap="round" stroke-linejoin="round"/>
<path d="M301.64 234.76C303.118 232.363 304.245 231.913 306.776 232.878C308.073 233.372 306.654 235.28 306.766 236.258C307.003 238.332 309.275 239.022 311.068 239.546" stroke="#3D32C0" stroke-width="0.809001" stroke-linecap="round" stroke-linejoin="round"/>
<path d="M303.529 246.816C301.834 249.016 300.017 251.118 298.405 253.288C297.642 254.314 297.586 255.562 297.938 256.686" stroke="#3D32C0" stroke-width="0.809001" stroke-linecap="round" stroke-linejoin="round"/>
<path d="M290.639 253.876C290.447 254.599 290.54 257.975 289.675 258.331C288.252 258.917 288.048 260.758 288.27 261.98" stroke="#3D32C0" stroke-width="0.809001" stroke-linecap="round" stroke-linejoin="round"/>
<path d="M210.214 186.383C207.747 184.227 206.86 182.533 208.496 179.528C208.93 178.73 209.916 177.34 209.383 176.366C208.971 175.614 205.161 173.424 208.065 172.898" stroke="#3D32C0" stroke-width="0.809001" stroke-linecap="round" stroke-linejoin="round"/>
<path d="M196.777 195.313C194.03 194.51 183.572 189.558 182.241 194.109C181.847 195.458 179.991 194.864 179.369 196.992" stroke="#3D32C0" stroke-width="0.809001" stroke-linecap="round" stroke-linejoin="round"/>
<path d="M195.041 187.362C195.945 185.618 198.888 183.205 199.369 181.559C199.576 180.85 196.882 179.705 196.419 179.306C194.836 177.942 193.781 177.784 194.398 175.67" stroke="#3D32C0" stroke-width="0.809001" stroke-linecap="round" stroke-linejoin="round"/>
<path d="M191.587 182.969C190.506 182.653 186.025 180.437 185.114 182.092C184.804 182.657 184.481 183.549 185.248 183.823C187.694 184.696 185.239 182.123 184.001 183.458" stroke="#3D32C0" stroke-width="0.809001" stroke-linecap="round" stroke-linejoin="round"/>
<path d="M175.762 188.494C172.334 187.492 167.942 187.67 167.177 184.293C166.877 182.968 166.845 181.644 166.621 180.408" stroke="#3D32C0" stroke-width="0.809001" stroke-linecap="round" stroke-linejoin="round"/>
<path d="M170.486 190.336C168.808 191.004 167.504 191.276 166.99 193.036C166.757 193.831 167.704 194.349 167.18 194.444C164.866 194.864 164.63 196.48 164.012 198.594" stroke="#3D32C0" stroke-width="0.809001" stroke-linecap="round" stroke-linejoin="round"/>
<path d="M173.373 185.089C173.617 182.764 173.676 179.47 175.273 177.561C176.02 176.668 177.182 176.986 177.838 176.244C178.137 175.906 177.709 172.572 178.006 171.556" stroke="#3D32C0" stroke-width="0.809001" stroke-linecap="round" stroke-linejoin="round"/>
<path d="M188.526 172.601C188.356 170.66 189.41 167.445 187.352 166.844C185.83 166.399 184.838 165.433 183.309 164.985" stroke="#3D32C0" stroke-width="0.809001" stroke-linecap="round" stroke-linejoin="round"/>
<path d="M198.38 166.683C201.133 165.175 201.879 164.193 203.76 162.165" stroke="#3D32C0" stroke-width="0.809001" stroke-linecap="round" stroke-linejoin="round"/>
<path d="M210.616 164.17C208.063 162.576 205.274 161.48 204.713 158.384C204.433 156.836 205.726 155.297 203.893 154.761" stroke="#3D32C0" stroke-width="0.809001" stroke-linecap="round" stroke-linejoin="round"/>
<path d="M194.043 160.679C191.681 157.14 194.433 157.189 194.654 153.827C194.719 152.841 192.084 153.128 191.865 151.922" stroke="#3D32C0" stroke-width="0.809001" stroke-linecap="round" stroke-linejoin="round"/>
<path d="M179.339 157.735C179.52 155.856 179.77 149.118 182.418 148.484C185.235 147.811 183.458 145.405 181.736 144.901" stroke="#3D32C0" stroke-width="0.809001" stroke-linecap="round" stroke-linejoin="round"/>
<path d="M175.992 150.666C172.673 149.696 167.762 146.412 166.535 150.608C165.922 152.706 162.801 152.029 161.519 153.879" stroke="#3D32C0" stroke-width="0.809001" stroke-linecap="round" stroke-linejoin="round"/>
<path d="M169.258 157.495C167.414 161.063 165.896 167.849 160.837 163.154" stroke="#3D32C0" stroke-width="0.809001" stroke-linecap="round" stroke-linejoin="round"/>
<path d="M166.343 167.47C164.972 170.122 165.255 170.641 162.665 170.793C160.975 170.893 160.481 170.627 159.533 172.246" stroke="#3D32C0" stroke-width="0.809001" stroke-linecap="round" stroke-linejoin="round"/>
<path d="M161.347 182.25C155.467 180.231 157.32 174.983 151.765 173.359C145.791 171.613 149.048 168.767 150.212 164.785" stroke="#3D32C0" stroke-width="0.809001" stroke-linecap="round" stroke-linejoin="round"/>
<path d="M151.343 184.063C149.131 183.417 147.775 182.462 146.201 184.29C145.32 185.314 144.597 187.216 146.155 187.923C148.322 188.907 148.176 188.429 145.919 189.245C144.329 189.819 144.116 192.581 143.699 194.01" stroke="#3D32C0" stroke-width="0.809001" stroke-linecap="round" stroke-linejoin="round"/>
<path d="M157.367 191.237C158.606 189.628 161.46 187.02 158.513 186.159C156.809 185.661 156.347 185.894 154.72 186.403" stroke="#3D32C0" stroke-width="0.809001" stroke-linecap="round" stroke-linejoin="round"/>
<path d="M146.125 176.448C143.968 175.817 140.214 175.833 141.081 172.868C141.395 171.794 142.016 167.279 143.195 166.794C146.602 165.392 142.45 163.553 143.094 161.351" stroke="#3D32C0" stroke-width="0.809001" stroke-linecap="round" stroke-linejoin="round"/>
<path d="M135.938 178.884C134.001 178.318 128.206 175.241 127.196 178.697C126.733 180.28 126.439 181.435 125.388 182.567" stroke="#3D32C0" stroke-width="0.809001" stroke-linecap="round" stroke-linejoin="round"/>
<path d="M120.612 175.758C119.663 175.48 110.995 173.932 111.534 172.089C112.336 169.343 105.659 172.353 104.662 172.449" stroke="#3D32C0" stroke-width="0.809001" stroke-linecap="round" stroke-linejoin="round"/>
<path d="M113.916 161.62C113.792 161.273 112.23 149.549 114.498 149.083C114.851 149.011 118.093 149.873 117.807 150.239C116.575 151.81 115.415 148.327 115.249 147.799" stroke="#3D32C0" stroke-width="0.809001" stroke-linecap="round" stroke-linejoin="round"/>
<path d="M108.958 155.434C107.415 154.983 102.558 152.582 101.204 154.182C100.125 155.456 99.2786 156.711 100.744 158.071C102.414 159.62 99.2654 158.468 97.9261 158.45C96.0509 158.425 94.8753 159.627 94.3795 161.323" stroke="#3D32C0" stroke-width="0.809001" stroke-linecap="round" stroke-linejoin="round"/>
<path d="M107.472 165.15C106.356 164.824 103.323 163.138 102.814 164.879C102.498 165.959 102.506 167.231 101.391 167.433" stroke="#3D32C0" stroke-width="0.809001" stroke-linecap="round" stroke-linejoin="round"/>
<path d="M107.846 147.665C109.643 141.518 112.795 135.577 104.633 133.192" stroke="#3D32C0" stroke-width="0.809001" stroke-linecap="round" stroke-linejoin="round"/>
<path d="M116.143 133.172C118.509 129.866 115.632 130.291 116.445 127.509C116.887 125.996 117.329 124.484 117.771 122.972C118.183 121.565 118.265 120.409 119.438 119.586C120.637 118.745 121.324 120.079 121.035 121.068" stroke="#3D32C0" stroke-width="0.809001" stroke-linecap="round" stroke-linejoin="round"/>
<path d="M123.806 134.736C124.325 134.505 130.76 130.35 128.122 129.23C126.305 128.459 127.784 128.072 128.238 126.52C129.315 122.835 129.789 120.244 125.686 119.044" stroke="#3D32C0" stroke-width="0.809001" stroke-linecap="round" stroke-linejoin="round"/>
<path d="M122.318 144.452C123.981 144.937 125.643 145.423 127.306 145.909" stroke="#3D32C0" stroke-width="0.809001" stroke-linecap="round" stroke-linejoin="round"/>
<path d="M126.472 151.079C125.033 153.94 122.949 156.187 122.05 159.261" stroke="#3D32C0" stroke-width="0.809001" stroke-linecap="round" stroke-linejoin="round"/>
<path d="M126.49 162.589C127.911 161.542 129.812 160.487 130.341 158.677C130.52 158.063 130.614 157.247 131.234 156.907C132.561 156.18 133.461 157.262 133.118 158.436C132.671 159.966 130.122 167.54 131.19 167.346" stroke="#3D32C0" stroke-width="0.809001" stroke-linecap="round" stroke-linejoin="round"/>
<path d="M139.2 156.153C139.752 154.264 140.058 151.363 141.138 149.651C141.5 149.077 143.675 149.781 144.548 148.919C146.571 146.92 146.319 144.699 143.468 143.866" stroke="#3D32C0" stroke-width="0.809001" stroke-linecap="round" stroke-linejoin="round"/>
<path d="M136.062 143.732C136.356 139.083 131.92 137.819 129.306 141.381C127.59 143.719 124.777 142.983 125.646 140.011" stroke="#3D32C0" stroke-width="0.809001" stroke-linecap="round" stroke-linejoin="round"/>
<path d="M135.286 139.445C136.078 136.734 135.931 136.241 137.71 135.266C138.023 135.095 136.025 133.07 135.953 132.534C135.474 128.979 137.827 128.684 140.878 129.575" stroke="#3D32C0" stroke-width="0.809001" stroke-linecap="round" stroke-linejoin="round"/>
<path d="M142.795 136.903C144.13 136.476 145.595 136.161 146.539 135.027C146.763 134.758 146.951 133.813 147.286 133.629C147.795 133.351 149.681 134.955 150.41 135.031C152.055 135.204 154.101 132.951 154.516 131.532" stroke="#3D32C0" stroke-width="0.809001" stroke-linecap="round" stroke-linejoin="round"/>
<path d="M150.689 144.624C150.87 146.68 150.444 148.357 150.432 150.263C150.428 150.979 151.821 150.868 151.984 151.769" stroke="#3D32C0" stroke-width="0.809001" stroke-linecap="round" stroke-linejoin="round"/>
<path d="M151.227 158.991C152.747 160.903 153.508 161.784 155.85 161.696" stroke="#3D32C0" stroke-width="0.809001" stroke-linecap="round" stroke-linejoin="round"/>
<path d="M161.729 148.527C162.034 145.212 163.31 143.512 166.448 142.801C168.878 142.251 169.955 138.714 168.491 136.97" stroke="#3D32C0" stroke-width="0.809001" stroke-linecap="round" stroke-linejoin="round"/>
</g>
<g filter="url(#filter2_d)">
<path d="M17.9599 243.045C32.8355 249.895 44.5858 260.728 57.497 270.547C60.9283 273.156 64.5294 278.279 69.3192 278.692C71.1161 278.846 73.2268 274.884 74.068 273.727C78.5196 267.608 83.1709 261.295 86.9397 254.746C90.7921 248.051 96.6409 242.706 100.563 236.031C103.424 231.161 106.747 226.56 109.661 221.708C113.598 215.152 116.779 208.255 120.543 201.612C135.774 174.726 155.792 150.437 176.318 127.502C183.251 119.755 190.442 113.089 198.124 106.199C203.115 101.722 206.093 95.0188 210.668 90.0856C214.197 86.2811 217.98 82.7223 221.516 78.9515C223.536 76.7975 203.087 61.9879 200.734 59.8085C192.744 52.4072 185.301 44.8039 177.734 36.9426C172.077 31.0649 164.765 27.3633 159.063 21.6713C157.849 20.459 157.336 19.2927 155.97 20.8827C154.885 22.1457 152.9 23.1396 151.661 24.4603C148.288 28.0575 145.193 31.9851 142.246 35.9359C136.766 43.2818 130.447 49.9036 124.464 56.8673C116.533 66.0979 110.837 77.0056 102.705 86.1771C93.3026 96.7814 85.448 108.709 76.1482 119.435C59.1268 139.068 43.8392 160.981 32.1494 184.19C24.3308 199.713 17.0701 215.472 9.79888 231.263C8.71156 233.624 7.45233 238.816 10.0569 240.797C13.0553 243.077 15.0442 241.703 17.9599 243.045Z" fill="#FFF6E8" stroke="#3D32C0" stroke-width="0.809001" stroke-linecap="round" stroke-linejoin="round"/>
<path d="M161.955 48.3475C151.928 50.8973 145.435 55.6032 138.737 63.399C134.446 68.393 129.958 73.1866 125.683 78.2046C121.232 83.4285 117.295 89.3006 112.554 94.2073C103.922 103.142 96.2786 113.115 87.3659 121.819C82.5153 126.556 79.237 132.1 75.4415 137.622C70.2421 145.185 67.8804 154.194 62.882 161.792C60.6602 165.169 59.581 169.168 57.2184 172.453C54.6186 176.067 51.7143 179.564 49.2337 183.236C45.6689 188.515 40.792 193.46 38.1236 199.255C33.666 208.936 25.9178 221.665 31.0964 232.289C36.8614 244.116 50.0607 251.887 63.3765 250.013C73.1431 248.639 81.1742 238.396 86.73 231.131C95.5115 219.647 104.267 209.35 110.356 196.126C113.056 190.262 114.308 182.942 118.438 177.799C120.246 175.547 122.194 173.217 123.52 170.644C124.917 167.935 127.559 166.548 129.351 164.192C137.594 153.353 148.992 145.482 158.238 135.622C162.153 131.447 166.041 127.746 169.364 123.107C173.939 116.719 177.677 108.934 180.966 101.793C185.952 90.9629 191.8 82.3068 190.025 69.6942C189.378 65.0945 188.936 59.5482 185.166 56.1749C181.89 53.243 178.457 51.6554 174.5 49.8333L169.813 47.6751C168.643 47.1366 167.602 47.9409 166.582 47.6175C165.901 47.4015 162.373 48.0129 161.955 48.3475Z" fill="#F5FF96"/>
<path d="M174.5 49.8333C178.457 51.6554 181.89 53.243 185.166 56.1749C188.936 59.5482 189.378 65.0945 190.025 69.6942C191.8 82.3068 185.952 90.9629 180.966 101.793C177.677 108.934 173.939 116.719 169.364 123.107C166.041 127.746 162.153 131.447 158.238 135.622C148.992 145.482 137.594 153.353 129.351 164.192C127.559 166.548 124.917 167.935 123.52 170.644C122.194 173.217 120.246 175.547 118.438 177.799C114.308 182.942 113.056 190.262 110.356 196.126C104.267 209.35 95.5115 219.647 86.73 231.131C81.1742 238.396 73.1431 248.639 63.3765 250.013C50.0607 251.887 36.8614 244.116 31.0964 232.289C25.9178 221.665 33.666 208.936 38.1236 199.255C40.792 193.46 45.6689 188.515 49.2337 183.236C51.7143 179.564 54.6186 176.067 57.2184 172.453C59.581 169.168 60.6602 165.169 62.882 161.792C67.8804 154.194 70.2421 145.185 75.4415 137.622C79.237 132.1 82.5153 126.556 87.3659 121.819C96.2786 113.115 103.922 103.142 112.554 94.2073C117.295 89.3006 121.232 83.4285 125.683 78.2046C129.958 73.1866 134.446 68.393 138.737 63.399C145.435 55.6032 151.928 50.8973 161.955 48.3475C162.373 48.0129 165.901 47.4015 166.582 47.6175C167.602 47.9409 168.643 47.1366 169.813 47.6751M174.5 49.8333C172.938 49.1139 171.375 48.3945 169.813 47.6751M174.5 49.8333L169.813 47.6751" stroke="#3D32C0" stroke-width="0.809001" stroke-linecap="round" stroke-linejoin="round"/>
<path d="M116.873 110.538C114.566 109.543 111.106 108.107 108.66 108.186" stroke="#3D32C0" stroke-width="0.809001" stroke-linecap="round" stroke-linejoin="round"/>
<path d="M117.912 106.726C118.622 105.098 119.301 103.5 119.496 101.734" stroke="#3D32C0" stroke-width="0.809001" stroke-linecap="round" stroke-linejoin="round"/>
<path d="M128.345 105.81C129.537 106.359 131.627 108.018 132.746 107.121" stroke="#3D32C0" stroke-width="0.809001" stroke-linecap="round" stroke-linejoin="round"/>
<path d="M128.355 115.109C127.54 116.879 126.725 118.649 125.91 120.419" stroke="#3D32C0" stroke-width="0.809001" stroke-linecap="round" stroke-linejoin="round"/>
<path d="M115.337 116.981C112.186 116.793 108.905 115.808 106.355 117.851" stroke="#3D32C0" stroke-width="0.809001" stroke-linecap="round" stroke-linejoin="round"/>
<path d="M113.575 125.465C113.032 126.645 112.489 127.825 111.945 129.005" stroke="#3D32C0" stroke-width="0.809001" stroke-linecap="round" stroke-linejoin="round"/>
<path d="M103.685 125.202C102.19 124.838 100.685 124.535 99.2832 123.89" stroke="#3D32C0" stroke-width="0.809001" stroke-linecap="round" stroke-linejoin="round"/>
<path d="M96.0231 130.97C95.2081 132.74 94.3931 134.51 93.5781 136.28" stroke="#3D32C0" stroke-width="0.809001" stroke-linecap="round" stroke-linejoin="round"/>
<path d="M90.3944 127.664C86.9009 127.456 85.3185 127.817 86.8079 124.582" stroke="#3D32C0" stroke-width="0.809001" stroke-linecap="round" stroke-linejoin="round"/>
<path d="M99.9581 117.765C99.0147 113.766 99.1905 113.721 96.0533 113.822" stroke="#3D32C0" stroke-width="0.809001" stroke-linecap="round" stroke-linejoin="round"/>
<path d="M104.283 134.773C106.715 136.44 108.62 136.056 111.044 137.172" stroke="#3D32C0" stroke-width="0.809001" stroke-linecap="round" stroke-linejoin="round"/>
<path d="M121.834 129.269C120.667 131.804 119.32 134.336 118.302 136.939C117.84 138.12 120.607 138.814 121.252 138.297" stroke="#3D32C0" stroke-width="0.809001" stroke-linecap="round" stroke-linejoin="round"/>
<path d="M125.598 128.857C127.097 130.411 128.658 132.569 131.098 131.667C132.887 131.006 132.889 130.074 134.945 130.3" stroke="#3D32C0" stroke-width="0.809001" stroke-linecap="round" stroke-linejoin="round"/>
<path d="M132.276 137.652C131.052 140.31 127.963 151.281 124.305 151.858" stroke="#3D32C0" stroke-width="0.809001" stroke-linecap="round" stroke-linejoin="round"/>
<path d="M117.496 148.008C114.321 146.546 112.704 145.991 111.146 149.375" stroke="#3D32C0" stroke-width="0.809001" stroke-linecap="round" stroke-linejoin="round"/>
<path d="M119.724 154.04C118.055 157.663 116.147 160.974 120.594 163.021" stroke="#3D32C0" stroke-width="0.809001" stroke-linecap="round" stroke-linejoin="round"/>
<path d="M138.896 135.695C140.851 136.595 143.764 138.611 145.611 136.642" stroke="#3D32C0" stroke-width="0.809001" stroke-linecap="round" stroke-linejoin="round"/>
<path d="M137.95 142.41C136.506 145.762 137.392 145.729 140.131 146.99" stroke="#3D32C0" stroke-width="0.809001" stroke-linecap="round" stroke-linejoin="round"/>
<path d="M145.237 125.029C142.236 123.557 141.805 123.166 143.056 120.449" stroke="#3D32C0" stroke-width="0.809001" stroke-linecap="round" stroke-linejoin="round"/>
<path d="M135.48 119.821C132.938 120.42 132.222 120.685 131.219 122.864" stroke="#3D32C0" stroke-width="0.809001" stroke-linecap="round" stroke-linejoin="round"/>
<path d="M150.866 128.336C151.66 128.701 155.137 131.079 155.857 129.919C156.358 129.113 157.237 129.839 157.899 130.144" stroke="#3D32C0" stroke-width="0.809001" stroke-linecap="round" stroke-linejoin="round"/>
<path d="M158.847 123.429C156.754 121.768 155.205 118.941 155.71 116.264" stroke="#3D32C0" stroke-width="0.809001" stroke-linecap="round" stroke-linejoin="round"/>
<path d="M150.541 118.174C148.818 117.381 146.016 114.291 144.369 116.048" stroke="#3D32C0" stroke-width="0.809001" stroke-linecap="round" stroke-linejoin="round"/>
<path d="M139.059 113.603C141.505 111.205 142.653 108.904 144.042 105.886" stroke="#3D32C0" stroke-width="0.809001" stroke-linecap="round" stroke-linejoin="round"/>
<path d="M138.143 103.169C133.767 101.154 134.619 101.505 135.961 98.5893" stroke="#3D32C0" stroke-width="0.809001" stroke-linecap="round" stroke-linejoin="round"/>
<path d="M129.199 96.1911C129.502 94.9479 131.375 91.9388 130.783 91.1996" stroke="#3D32C0" stroke-width="0.809001" stroke-linecap="round" stroke-linejoin="round"/>
<path d="M121.848 93.5217C116.623 93.1683 116.911 92.4714 114.45 89.4001" stroke="#3D32C0" stroke-width="0.809001" stroke-linecap="round" stroke-linejoin="round"/>
<path d="M126.334 88.4368C125.859 84.7215 125.116 84.3004 122.087 82.9061C120.77 82.2995 119.22 82.1454 119.976 80.5037" stroke="#3D32C0" stroke-width="0.809001" stroke-linecap="round" stroke-linejoin="round"/>
<path d="M131.954 82.444C132.794 80.621 132.933 78.5179 133.809 76.8625C134.668 75.2414 138.261 75.0599 139.841 74.6342" stroke="#3D32C0" stroke-width="0.809001" stroke-linecap="round" stroke-linejoin="round"/>
<path d="M139.08 87.1553C141.637 88.3325 144.193 89.5097 146.75 90.6869" stroke="#3D32C0" stroke-width="0.809001" stroke-linecap="round" stroke-linejoin="round"/>
<path d="M146.346 96.2209C148.793 95.594 150.11 93.6135 152.589 93.5338C153.898 93.4917 154.755 95.0647 155.87 94.171" stroke="#3D32C0" stroke-width="0.809001" stroke-linecap="round" stroke-linejoin="round"/>
<path d="M156.919 99.6592C156.154 102.803 155.445 103.139 158.108 104.497C158.949 104.926 159.288 105.756 160.327 106.234" stroke="#3D32C0" stroke-width="0.809001" stroke-linecap="round" stroke-linejoin="round"/>
<path d="M163.317 99.745C165.684 100.835 167.692 101.595 169.535 103.323" stroke="#3D32C0" stroke-width="0.809001" stroke-linecap="round" stroke-linejoin="round"/>
<path d="M163.465 113.399C165.699 113.485 167.575 113.147 169.59 114.074" stroke="#3D32C0" stroke-width="0.809001" stroke-linecap="round" stroke-linejoin="round"/>
<path d="M170.707 94.5664C166.534 92.6447 163.066 92.5269 165.197 87.8976C165.958 86.2444 167.241 85.012 168.021 83.3183" stroke="#3D32C0" stroke-width="0.809001" stroke-linecap="round" stroke-linejoin="round"/>
<path d="M175.465 88.8916C177.459 88.8275 181.334 89.3992 182.995 88.0683" stroke="#3D32C0" stroke-width="0.809001" stroke-linecap="round" stroke-linejoin="round"/>
<path d="M179.634 82.9449C176.188 81.358 176.042 81.4287 177.452 78.365" stroke="#3D32C0" stroke-width="0.809001" stroke-linecap="round" stroke-linejoin="round"/>
<path d="M166.972 77.83C165.326 78.6788 161.346 80.1328 161.709 76.8367" stroke="#3D32C0" stroke-width="0.809001" stroke-linecap="round" stroke-linejoin="round"/>
<path d="M158.403 82.4651C156.038 83.6845 153.593 85.0346 150.92 84.74" stroke="#3D32C0" stroke-width="0.809001" stroke-linecap="round" stroke-linejoin="round"/>
<path d="M152.09 75.9831C151.919 74.2402 151.902 72.4793 151.632 70.7666" stroke="#3D32C0" stroke-width="0.809001" stroke-linecap="round" stroke-linejoin="round"/>
<path d="M151.632 70.7671C149.468 69.771 147.305 68.7749 145.142 67.7788C143.484 67.0153 142.955 68.3644 141.377 68.1904" stroke="#3D32C0" stroke-width="0.809001" stroke-linecap="round" stroke-linejoin="round"/>
<path d="M146.276 66.8704C145.632 63.1072 147.023 58.6333 151.437 60.6659C153.651 61.6855 152.164 58.3302 154.978 57.2907" stroke="#3D32C0" stroke-width="0.809001" stroke-linecap="round" stroke-linejoin="round"/>
<path d="M162.834 66.6294C164.566 66.2737 166.636 65.5196 168.345 66.3069C169.328 66.7596 169.768 67.0055 170.682 66.6678" stroke="#3D32C0" stroke-width="0.809001" stroke-linecap="round" stroke-linejoin="round"/>
<path d="M165.232 59.8676C163.078 58.0536 162.797 56.8732 164.123 54.5105C164.802 53.3002 166.482 54.9841 167.465 55.0166C169.552 55.0855 170.567 52.9397 171.348 51.2428" stroke="#3D32C0" stroke-width="0.809001" stroke-linecap="round" stroke-linejoin="round"/>
<path d="M177.435 59.7654C179.363 61.7648 181.176 63.8702 183.086 65.7838C183.989 66.6885 185.216 66.9271 186.378 66.7436" stroke="#3D32C0" stroke-width="0.809001" stroke-linecap="round" stroke-linejoin="round"/>
<path d="M182.528 73.5521C183.215 73.8478 186.568 74.2507 186.794 75.1587C187.164 76.6526 188.957 77.1236 190.198 77.0837" stroke="#3D32C0" stroke-width="0.809001" stroke-linecap="round" stroke-linejoin="round"/>
<path d="M103.972 143.211C101.478 145.335 99.6719 145.964 96.9391 143.905C96.2135 143.359 94.9831 142.18 93.9413 142.565C93.1378 142.862 90.4127 146.309 90.3179 143.359" stroke="#3D32C0" stroke-width="0.809001" stroke-linecap="round" stroke-linejoin="round"/>
<path d="M110.837 157.813C109.64 160.412 103.209 170.032 107.516 172.015C108.792 172.603 107.932 174.352 109.946 175.279" stroke="#3D32C0" stroke-width="0.809001" stroke-linecap="round" stroke-linejoin="round"/>
<path d="M102.716 158.364C101.124 157.215 99.1681 153.949 97.6107 153.232C96.9402 152.924 95.4118 155.421 94.9491 155.821C93.3686 157.186 93.057 158.207 91.0566 157.286" stroke="#3D32C0" stroke-width="0.809001" stroke-linecap="round" stroke-linejoin="round"/>
<path d="M97.8657 161.137C97.3944 162.16 94.5459 166.268 96.0492 167.411C96.5622 167.801 97.3976 168.251 97.7807 167.533C99.0038 165.241 96.0985 167.292 97.2374 168.713" stroke="#3D32C0" stroke-width="0.809001" stroke-linecap="round" stroke-linejoin="round"/>
<path d="M101.01 177.601C99.5165 180.845 99.0482 185.215 95.5959 185.477C94.2409 185.579 92.927 185.417 91.6719 185.457" stroke="#3D32C0" stroke-width="0.809001" stroke-linecap="round" stroke-linejoin="round"/>
<path d="M102.057 183.088C102.472 184.846 102.55 186.176 104.215 186.942C104.968 187.289 105.619 186.428 105.636 186.961C105.712 189.312 107.276 189.782 109.277 190.703" stroke="#3D32C0" stroke-width="0.809001" stroke-linecap="round" stroke-linejoin="round"/>
<path d="M97.2914 179.464C95.027 178.882 91.7773 178.341 90.1237 176.481C89.3497 175.611 89.8343 174.508 89.1963 173.75C88.9064 173.406 85.5449 173.34 84.5835 172.897" stroke="#3D32C0" stroke-width="0.809001" stroke-linecap="round" stroke-linejoin="round"/>
<path d="M87.1594 162.643C85.2145 162.527 82.1892 161.013 81.2926 162.961C80.6296 164.4 79.5279 165.24 78.8613 166.688" stroke="#3D32C0" stroke-width="0.809001" stroke-linecap="round" stroke-linejoin="round"/>
<path d="M82.7512 152.031C81.6634 149.086 80.801 148.204 79.0714 146.046" stroke="#3D32C0" stroke-width="0.809001" stroke-linecap="round" stroke-linejoin="round"/>
<path d="M82.0587 139.556C80.1077 141.848 78.6141 144.446 75.4702 144.547C73.8974 144.598 72.5644 143.093 71.7656 144.828" stroke="#3D32C0" stroke-width="0.809001" stroke-linecap="round" stroke-linejoin="round"/>
<path d="M76.1748 155.44C72.3279 157.257 72.7799 154.542 69.4871 153.83C68.521 153.621 68.4183 156.27 67.1934 156.31" stroke="#3D32C0" stroke-width="0.809001" stroke-linecap="round" stroke-linejoin="round"/>
<path d="M71.1066 169.552C69.2751 169.097 62.6461 167.862 62.4078 165.149C62.1544 162.265 59.5139 163.67 58.7637 165.299" stroke="#3D32C0" stroke-width="0.809001" stroke-linecap="round" stroke-linejoin="round"/>
<path d="M63.6239 171.827C62.1779 174.968 58.2089 179.345 62.1806 181.174C64.1655 182.088 63.0379 185.075 64.6805 186.615" stroke="#3D32C0" stroke-width="0.809001" stroke-linecap="round" stroke-linejoin="round"/>
<path d="M69.3924 179.489C72.6511 181.836 79.1414 184.332 73.7556 188.648" stroke="#3D32C0" stroke-width="0.809001" stroke-linecap="round" stroke-linejoin="round"/>
<path d="M78.8315 183.835C81.2538 185.58 81.809 185.377 81.5797 187.961C81.4301 189.648 81.0946 190.097 82.558 191.272" stroke="#3D32C0" stroke-width="0.809001" stroke-linecap="round" stroke-linejoin="round"/>
<path d="M92.7185 190.945C89.8585 196.466 84.939 193.864 82.5187 199.12C79.9156 204.774 77.5774 201.135 73.809 199.4" stroke="#3D32C0" stroke-width="0.809001" stroke-linecap="round" stroke-linejoin="round"/>
<path d="M93.0463 201.106C92.0824 203.2 90.9395 204.401 92.5166 206.226C93.4001 207.248 95.1756 208.241 96.1034 206.805C97.3948 204.805 96.9008 204.88 97.3765 207.232C97.7116 208.889 100.413 209.504 101.764 210.126" stroke="#3D32C0" stroke-width="0.809001" stroke-linecap="round" stroke-linejoin="round"/>
<path d="M101.026 196.2C99.6158 194.738 97.454 191.533 96.1699 194.321C95.4273 195.934 95.59 196.425 95.8557 198.11" stroke="#3D32C0" stroke-width="0.809001" stroke-linecap="round" stroke-linejoin="round"/>
<path d="M84.747 205.151C83.8072 207.193 83.2725 210.908 80.4666 209.616C79.4496 209.148 75.0752 207.872 74.7682 206.635C73.8808 203.059 71.4524 206.896 69.3691 205.936" stroke="#3D32C0" stroke-width="0.809001" stroke-linecap="round" stroke-linejoin="round"/>
<path d="M85.6649 215.584C84.8208 217.417 80.9277 222.699 84.1983 224.205C85.6963 224.895 86.795 225.355 87.7615 226.561" stroke="#3D32C0" stroke-width="0.809001" stroke-linecap="round" stroke-linejoin="round"/>
<path d="M80.3257 230.287C79.9123 231.185 77.11 239.533 75.3658 238.73C72.7673 237.533 74.7652 244.58 74.7141 245.58" stroke="#3D32C0" stroke-width="0.809001" stroke-linecap="round" stroke-linejoin="round"/>
<path d="M65.359 234.837C64.9969 234.909 53.171 234.735 53.0428 232.423C53.0229 232.064 54.3515 228.983 54.6707 229.319C56.0443 230.768 52.4285 231.406 51.8827 231.492" stroke="#3D32C0" stroke-width="0.809001" stroke-linecap="round" stroke-linejoin="round"/>
<path d="M58.5124 238.835C57.8399 240.296 54.7533 244.748 56.1374 246.323C57.2388 247.576 58.3565 248.598 59.9162 247.348C61.6938 245.923 60.0925 248.868 59.8784 250.191C59.5786 252.042 60.5953 253.381 62.2005 254.12" stroke="#3D32C0" stroke-width="0.809001" stroke-linecap="round" stroke-linejoin="round"/>
<path d="M67.9057 241.73C67.4196 242.786 65.3068 245.539 66.9546 246.298C67.9766 246.768 69.2359 246.947 69.2723 248.08" stroke="#3D32C0" stroke-width="0.809001" stroke-linecap="round" stroke-linejoin="round"/>
<path d="M50.6649 238.797C44.8475 236.118 39.4334 232.13 35.877 239.854" stroke="#3D32C0" stroke-width="0.809001" stroke-linecap="round" stroke-linejoin="round"/>
<path d="M37.5462 228.465C34.622 225.64 34.6209 228.548 31.988 227.336C30.5568 226.677 29.1255 226.018 27.6942 225.359C26.3634 224.746 25.2314 224.495 24.5899 223.215C23.9336 221.905 25.3537 221.421 26.2899 221.852" stroke="#3D32C0" stroke-width="0.809001" stroke-linecap="round" stroke-linejoin="round"/>
<path d="M40.215 221.114C40.0624 220.567 36.8962 213.592 35.4018 216.037C34.3721 217.722 34.2065 216.202 32.7374 215.526C29.2503 213.92 26.7567 213.071 24.9688 216.954" stroke="#3D32C0" stroke-width="0.809001" stroke-linecap="round" stroke-linejoin="round"/>
<path d="M49.6074 224.009C50.3319 222.436 51.0563 220.863 51.7807 219.29" stroke="#3D32C0" stroke-width="0.809001" stroke-linecap="round" stroke-linejoin="round"/>
<path d="M56.774 220.872C59.3932 222.715 61.3099 225.106 64.2187 226.446" stroke="#3D32C0" stroke-width="0.809001" stroke-linecap="round" stroke-linejoin="round"/>
<path d="M68.1611 222.541C67.3334 220.982 66.5685 218.947 64.8556 218.158C64.2748 217.891 63.4814 217.678 63.2366 217.016C62.7121 215.596 63.9138 214.864 65.0245 215.376C66.4725 216.042 73.5908 219.674 73.5559 218.589" stroke="#3D32C0" stroke-width="0.809001" stroke-linecap="round" stroke-linejoin="round"/>
<path d="M63.6556 209.027C61.868 208.203 59.0437 207.475 57.5087 206.156C56.9937 205.714 58.0087 203.666 57.2838 202.676C55.6034 200.382 53.3698 200.306 52.1277 203.003" stroke="#3D32C0" stroke-width="0.809001" stroke-linecap="round" stroke-linejoin="round"/>
<path d="M50.9118 210.308C46.3564 209.336 44.455 213.538 47.5957 216.647C49.6564 218.686 48.516 221.361 45.7036 220.066" stroke="#3D32C0" stroke-width="0.809001" stroke-linecap="round" stroke-linejoin="round"/>
<path d="M46.5554 210.447C43.9903 209.266 43.4805 209.34 42.7773 207.437C42.654 207.103 40.3575 208.782 39.8172 208.775C36.2306 208.727 36.2829 206.357 37.6123 203.469" stroke="#3D32C0" stroke-width="0.809001" stroke-linecap="round" stroke-linejoin="round"/>
<path d="M45.1424 202.647C44.916 201.263 44.8188 199.769 43.8359 198.668C43.6023 198.407 42.6947 198.083 42.5623 197.724C42.3614 197.18 44.2246 195.55 44.4071 194.84C44.8189 193.238 42.8908 190.884 41.5476 190.265" stroke="#3D32C0" stroke-width="0.809001" stroke-linecap="round" stroke-linejoin="round"/>
<path d="M53.9375 195.97C55.9979 196.093 57.5939 196.76 59.478 197.051C60.1861 197.161 60.2804 195.766 61.1956 195.737" stroke="#3D32C0" stroke-width="0.809001" stroke-linecap="round" stroke-linejoin="round"/>
<path d="M68.2285 197.545C70.3423 196.322 71.3251 195.698 71.5818 193.369" stroke="#3D32C0" stroke-width="0.809001" stroke-linecap="round" stroke-linejoin="round"/>
<path d="M59.4178 185.622C56.1832 184.834 54.6884 183.322 54.4454 180.114C54.2573 177.63 50.9164 176.046 48.9764 177.238" stroke="#3D32C0" stroke-width="0.809001" stroke-linecap="round" stroke-linejoin="round"/>
</g>
<defs>
<filter id="filter0_i" x="82.6758" y="220.676" width="146.407" height="144.339" filterUnits="userSpaceOnUse" color-interpolation-filters="sRGB">
<feFlood flood-opacity="0" result="BackgroundImageFix"/>
<feBlend mode="normal" in="SourceGraphic" in2="BackgroundImageFix" result="shape"/>
<feColorMatrix in="SourceAlpha" type="matrix" values="0 0 0 0 0 0 0 0 0 0 0 0 0 0 0 0 0 0 127 0" result="hardAlpha"/>
<feOffset dx="4" dy="6.68558"/>
<feGaussianBlur stdDeviation="1.11426"/>
<feComposite in2="hardAlpha" operator="arithmetic" k2="-1" k3="1"/>
<feColorMatrix type="matrix" values="0 0 0 0 0 0 0 0 0 0 0 0 0 0 0 0 0 0 0.25 0"/>
<feBlend mode="normal" in2="shape" result="effect1_innerShadow"/>
</filter>
<filter id="filter1_d" x="54.1942" y="100.404" width="303.163" height="208.655" filterUnits="userSpaceOnUse" color-interpolation-filters="sRGB">
<feFlood flood-opacity="0" result="BackgroundImageFix"/>
<feColorMatrix in="SourceAlpha" type="matrix" values="0 0 0 0 0 0 0 0 0 0 0 0 0 0 0 0 0 0 127 0"/>
<feOffset dx="1.80288" dy="5.40864"/>
<feGaussianBlur stdDeviation="1.2135"/>
<feColorMatrix type="matrix" values="0 0 0 0 0 0 0 0 0 0 0 0 0 0 0 0 0 0 0.25 0"/>
<feBlend mode="normal" in2="BackgroundImageFix" result="effect1_dropShadow"/>
<feBlend mode="normal" in="SourceGraphic" in2="effect1_dropShadow" result="shape"/>
</filter>
<filter id="filter2_d" x="0.838767" y="0.463379" width="236.592" height="309.909" filterUnits="userSpaceOnUse" color-interpolation-filters="sRGB">
<feFlood flood-opacity="0" result="BackgroundImageFix"/>
<feColorMatrix in="SourceAlpha" type="matrix" values="0 0 0 0 0 0 0 0 0 0 0 0 0 0 0 0 0 0 127 0"/>
<feOffset dx="1.80288" dy="5.40864"/>
<feGaussianBlur stdDeviation="1.2135"/>
<feColorMatrix type="matrix" values="0 0 0 0 0 0 0 0 0 0 0 0 0 0 0 0 0 0 0.25 0"/>
<feBlend mode="normal" in2="BackgroundImageFix" result="effect1_dropShadow"/>
<feBlend mode="normal" in="SourceGraphic" in2="effect1_dropShadow" result="shape"/>
</filter>
</defs>
</svg>
